<svg width="16.000000" height="16.000000" viewBox="0 0 16 16" fill="none" xmlns="http://www.w3.org/2000/svg" xmlns:xlink="http://www.w3.org/1999/xlink">
	<desc>
			Created with Pixso.
	</desc>
	<defs>
		<clipPath id="clip1987_25860">
			<rect id="air-conditioner 1" width="16.000000" height="16.000000" fill="white" fill-opacity="0"/>
		</clipPath>
	</defs>
	<rect id="air-conditioner 1" width="16.000000" height="16.000000" fill="#FFFFFF" fill-opacity="0"/>
	<g clip-path="url(#clip1987_25860)">
		<path id="Vector" d="M14 0L2 0C0.896973 0 0 0.897217 0 2L0 7C0 8.10278 0.896973 9 2 9L14 9C15.103 9 16 8.10278 16 7L16 2C16 0.897217 15.103 0 14 0ZM3.25 8L3.25 7L12.75 7L12.75 8L3.25 8ZM15 7C15 7.55139 14.5513 8 14 8L13.75 8L13.75 6.5C13.75 6.22388 13.5264 6 13.25 6L2.75 6C2.47363 6 2.25 6.22388 2.25 6.5L2.25 8L2 8C1.44873 8 1 7.55139 1 7L1 5L14 5C14.2764 5 14.5 4.77612 14.5 4.5C14.5 4.22388 14.2764 4 14 4L1 4L1 2C1 1.44861 1.44873 1 2 1L14 1C14.5513 1 15 1.44861 15 2L15 7Z" fill="#696969" fill-opacity="1.000000" fill-rule="nonzero"/>
		<path id="Vector" d="M4 9.5C3.72363 9.5 3.5 9.72388 3.5 10L3.5 13C3.5 13.5514 3.05127 14 2.5 14C2.22363 14 2 14.2239 2 14.5C2 14.7761 2.22363 15 2.5 15C3.60303 15 4.5 14.1028 4.5 13L4.5 10C4.5 9.72388 4.27637 9.5 4 9.5Z" fill="#696969" fill-opacity="1.000000" fill-rule="nonzero"/>
		<path id="Vector" d="M13.75 15C13.1987 15 12.75 14.5514 12.75 14L12.75 10.75C12.75 10.4739 12.5264 10.25 12.25 10.25C11.9736 10.25 11.75 10.4739 11.75 10.75L11.75 14C11.75 15.1028 12.647 16 13.75 16C14.0264 16 14.25 15.7761 14.25 15.5C14.25 15.2239 14.0264 15 13.75 15Z" fill="#696969" fill-opacity="1.000000" fill-rule="nonzero"/>
		<path id="Vector" d="M9.5 15C8.94873 15 8.5 14.5514 8.5 14L8.5 11.25C8.5 10.9739 8.27637 10.75 8 10.75C7.72363 10.75 7.5 10.9739 7.5 11.25L7.5 14C7.5 15.1028 8.39697 16 9.5 16C9.77637 16 10 15.7761 10 15.5C10 15.2239 9.77637 15 9.5 15Z" fill="#696969" fill-opacity="1.000000" fill-rule="nonzero"/>
		<path id="Vector" d="M6 10.25C5.72363 10.25 5.5 10.4739 5.5 10.75L5.5 14.5C5.5 14.7761 5.72363 15 6 15C6.27637 15 6.5 14.7761 6.5 14.5L6.5 10.75C6.5 10.4739 6.27637 10.25 6 10.25Z" fill="#696969" fill-opacity="1.000000" fill-rule="nonzero"/>
		<path id="Vector" d="M10 9.5C9.72363 9.5 9.5 9.72388 9.5 10L9.5 12.75C9.5 13.0261 9.72363 13.25 10 13.25C10.2764 13.25 10.5 13.0261 10.5 12.75L10.5 10C10.5 9.72388 10.2764 9.5 10 9.5Z" fill="#696969" fill-opacity="1.000000" fill-rule="nonzero"/>
		<path id="Vector" d="M14 2.25C14 2.52612 13.7764 2.75 13.5 2.75C13.2236 2.75 13 2.52612 13 2.25C13 1.97388 13.2236 1.75 13.5 1.75C13.7764 1.75 14 1.97388 14 2.25Z" fill="#696969" fill-opacity="1.000000" fill-rule="evenodd"/>
		<path id="Vector" d="M12 2.25C12 2.52612 11.7764 2.75 11.5 2.75C11.2236 2.75 11 2.52612 11 2.25C11 1.97388 11.2236 1.75 11.5 1.75C11.7764 1.75 12 1.97388 12 2.25Z" fill="#696969" fill-opacity="1.000000" fill-rule="evenodd"/>
	</g>
</svg>
