<svg width="60.000000" height="59.740234" viewBox="0 0 60 59.7402" fill="none" xmlns="http://www.w3.org/2000/svg" xmlns:xlink="http://www.w3.org/1999/xlink">
	<desc>
			Created with Pixso.
	</desc>
	<defs>
		<clipPath id="clip1987_22623">
			<rect id="apartment" width="60.000000" height="59.740261" fill="white" fill-opacity="0"/>
		</clipPath>
	</defs>
	<rect id="apartment" width="60.000000" height="59.740261" fill="#FFFFFF" fill-opacity="0"/>
	<g clip-path="url(#clip1987_22623)">
		<path id="Vector" d="M49.2462 45.3965C55.1761 45.3965 60 40.5933 60 34.689C60 30.6943 57.7295 27.0317 54.2331 25.2021C54.8744 23.8091 55.209 22.2896 55.209 20.7412C55.209 14.8374 50.3851 10.0347 44.4557 10.0347C41.8561 10.0347 39.413 10.9487 37.5 12.5693L37.5 6.97754C38.0347 6.86914 38.4375 6.39844 38.4375 5.83398L38.4375 1.16699C38.4375 0.522461 37.9129 0 37.2656 0L1.17188 0C0.524597 0 0 0.522461 0 1.16699L0 5.83398C0 6.39844 0.402832 6.86914 0.9375 6.97754L0.9375 58.5732C0.9375 59.2178 1.4621 59.7402 2.10938 59.7402L48.0427 59.7402C48.3898 59.7402 48.7184 59.5874 48.9413 59.3228C49.6624 58.4653 50.0597 57.3774 50.0597 56.2588C50.0597 53.7485 48.1023 51.6855 45.6276 51.5005L45.6276 44.7729C46.783 45.1831 48.0084 45.3965 49.2462 45.3965ZM44.4557 12.3682C49.0929 12.3682 52.8653 16.124 52.8653 20.7417C52.8653 22.2998 52.4323 23.8208 51.6129 25.1401C51.4283 25.4365 51.3867 25.8003 51.5002 26.1309C51.6133 26.4614 51.8692 26.7236 52.1979 26.8467C55.4626 28.0649 57.6562 31.2168 57.6562 34.689C57.6562 39.3062 53.8838 43.0625 49.2462 43.0625C47.9901 43.0625 46.7518 42.7817 45.6276 42.2485L45.6276 38.2881L50.9468 32.9912C51.4045 32.5356 51.4045 31.7969 50.9468 31.3408C50.4895 30.8857 49.7474 30.8857 49.2897 31.3408L45.6276 34.9878L45.6276 32.2046C45.6276 32.2041 45.6276 32.2036 45.6276 32.2031L45.6276 23.8418C45.6276 23.1973 45.1025 22.6753 44.4557 22.6753C43.8085 22.6753 43.2838 23.1973 43.2838 23.8418L43.2838 29.3872L42.3143 28.4219C41.8566 27.9663 41.115 27.9663 40.6567 28.4219C40.1995 28.8774 40.1995 29.6162 40.6567 30.0723L43.2838 32.6875L43.2838 37.8037L43.2838 37.8052L43.2838 42.2485C42.1591 42.7817 40.9209 43.0625 39.6648 43.0625C38.9273 43.0625 38.2022 42.9678 37.5 42.7817L37.5 16.0342C39.0715 13.7329 41.6473 12.3682 44.4557 12.3682ZM43.2838 50.4702C42.0941 49.1572 40.3807 48.3638 38.5204 48.3638C38.1747 48.3638 37.8342 48.3921 37.5 48.4453L37.5 45.1768C38.2086 45.3213 38.9319 45.3965 39.6648 45.3965C40.903 45.3965 42.128 45.1831 43.2838 44.7729L43.2838 50.4702ZM3.28125 7.00098L13.9064 7.00098C14.5532 7.00098 15.0782 6.47852 15.0782 5.83398C15.0782 5.18945 14.5532 4.66699 13.9064 4.66699L2.34375 4.66699L2.34375 2.3335L36.0938 2.3335L36.0938 4.66699L24.4528 4.66699C23.806 4.66699 23.2809 5.18945 23.2809 5.83398C23.2809 6.47852 23.806 7.00098 24.4528 7.00098L35.1562 7.00098L35.1562 49.3135C34.2764 49.853 33.528 50.603 32.9906 51.5127C32.931 51.519 32.8716 51.5269 32.8125 51.5356L32.8125 45.7388C32.8125 45.0942 32.2879 44.5718 31.6406 44.5718L26.4844 44.5718C25.8371 44.5718 25.3125 45.0942 25.3125 45.7388L25.3125 52.2729C25.3125 52.917 25.8371 53.4395 26.4844 53.4395L29.637 53.4395C29.0538 54.2305 28.7082 55.2046 28.7082 56.2588C28.7082 56.6484 28.7572 57.0332 28.8501 57.4067L3.28125 57.4067L3.28125 7.00098ZM30.4688 51.106L27.6562 51.106L27.6562 46.9053L30.4688 46.9053L30.4688 51.106ZM47.7159 56.2588C47.7159 56.6611 47.6157 57.0557 47.4275 57.4067L31.3403 57.4067C31.1526 57.0557 31.0519 56.6611 31.0519 56.2588C31.0519 54.9141 32.151 53.8198 33.5019 53.8198C33.5509 53.8198 33.5999 53.8213 33.6479 53.8242C34.1387 53.8521 34.5928 53.5747 34.7896 53.1274C35.4387 51.6514 36.9031 50.6978 38.5204 50.6978C40.28 50.6978 41.8332 51.8145 42.3857 53.478C42.496 53.8081 42.7483 54.0732 43.0742 54.1987C43.4001 54.3252 43.7659 54.2998 44.0712 54.1289C44.4347 53.9268 44.8475 53.8198 45.266 53.8198C46.6168 53.8198 47.7159 54.9141 47.7159 56.2588Z" fill="#FFFFFF" fill-opacity="1.000000" fill-rule="nonzero"/>
		<path id="Vector" d="M11.9531 44.5718L6.79688 44.5718C6.1496 44.5718 5.625 45.0942 5.625 45.7388L5.625 52.2725C5.625 52.917 6.1496 53.4395 6.79688 53.4395L11.9531 53.4395C12.6004 53.4395 13.125 52.917 13.125 52.2725L13.125 45.7388C13.125 45.0942 12.6004 44.5718 11.9531 44.5718ZM10.7812 51.106L7.96875 51.106L7.96875 46.9053L10.7812 46.9053L10.7812 51.106Z" fill="#FFFFFF" fill-opacity="1.000000" fill-rule="nonzero"/>
		<path id="Vector" d="M21.7969 44.5718L16.6406 44.5718C15.9933 44.5718 15.4688 45.0942 15.4688 45.7388L15.4688 52.2725C15.4688 52.917 15.9933 53.4395 16.6406 53.4395L21.7969 53.4395C22.4442 53.4395 22.9688 52.917 22.9688 52.2725L22.9688 45.7388C22.9688 45.0942 22.4442 44.5718 21.7969 44.5718ZM20.625 51.106L17.8125 51.106L17.8125 46.9053L20.625 46.9053L20.625 51.106Z" fill="#FFFFFF" fill-opacity="1.000000" fill-rule="nonzero"/>
		<path id="Vector" d="M11.9531 33.3706L6.79688 33.3706C6.1496 33.3706 5.625 33.8931 5.625 34.5376L5.625 41.0713C5.625 41.7158 6.1496 42.2383 6.79688 42.2383L11.9531 42.2383C12.6004 42.2383 13.125 41.7158 13.125 41.0713L13.125 34.5376C13.125 33.8931 12.6004 33.3706 11.9531 33.3706ZM10.7812 39.9048L7.96875 39.9048L7.96875 35.7041L10.7812 35.7041L10.7812 39.9048Z" fill="#FFFFFF" fill-opacity="1.000000" fill-rule="nonzero"/>
		<path id="Vector" d="M21.7969 33.3706L16.6406 33.3706C15.9933 33.3706 15.4688 33.8931 15.4688 34.5376L15.4688 41.0713C15.4688 41.7158 15.9933 42.2383 16.6406 42.2383L21.7969 42.2383C22.4442 42.2383 22.9688 41.7158 22.9688 41.0713L22.9688 34.5376C22.9688 33.8931 22.4442 33.3706 21.7969 33.3706ZM20.625 39.9048L17.8125 39.9048L17.8125 35.7041L20.625 35.7041L20.625 39.9048Z" fill="#FFFFFF" fill-opacity="1.000000" fill-rule="nonzero"/>
		<path id="Vector" d="M26.4844 42.2383L31.6406 42.2383C32.2879 42.2383 32.8125 41.7158 32.8125 41.0713L32.8125 34.5376C32.8125 33.8931 32.2879 33.3706 31.6406 33.3706L26.4844 33.3706C25.8371 33.3706 25.3125 33.8931 25.3125 34.5376L25.3125 41.0713C25.3125 41.7158 25.8371 42.2383 26.4844 42.2383ZM27.6562 35.7041L30.4688 35.7041L30.4688 39.9048L27.6562 39.9048L27.6562 35.7041Z" fill="#FFFFFF" fill-opacity="1.000000" fill-rule="nonzero"/>
		<path id="Vector" d="M11.9531 22.1689L6.79688 22.1689C6.1496 22.1689 5.625 22.6914 5.625 23.3359L5.625 29.8696C5.625 30.5142 6.1496 31.0366 6.79688 31.0366L11.9531 31.0366C12.6004 31.0366 13.125 30.5142 13.125 29.8696L13.125 23.3359C13.125 22.6914 12.6004 22.1689 11.9531 22.1689ZM10.7812 28.7031L7.96875 28.7031L7.96875 24.5024L10.7812 24.5024L10.7812 28.7031Z" fill="#FFFFFF" fill-opacity="1.000000" fill-rule="nonzero"/>
		<path id="Vector" d="M21.7969 22.1689L16.6406 22.1689C15.9933 22.1689 15.4688 22.6914 15.4688 23.3359L15.4688 29.8696C15.4688 30.5142 15.9933 31.0366 16.6406 31.0366L21.7969 31.0366C22.4442 31.0366 22.9688 30.5142 22.9688 29.8696L22.9688 23.3359C22.9688 22.6914 22.4442 22.1689 21.7969 22.1689ZM20.625 28.7031L17.8125 28.7031L17.8125 24.5024L20.625 24.5024L20.625 28.7031Z" fill="#FFFFFF" fill-opacity="1.000000" fill-rule="nonzero"/>
		<path id="Vector" d="M26.4844 31.0366L31.6406 31.0366C32.2879 31.0366 32.8125 30.5142 32.8125 29.8696L32.8125 23.3359C32.8125 22.6914 32.2879 22.1689 31.6406 22.1689L26.4844 22.1689C25.8371 22.1689 25.3125 22.6914 25.3125 23.3359L25.3125 29.8696C25.3125 30.5142 25.8371 31.0366 26.4844 31.0366ZM27.6562 24.5024L30.4688 24.5024L30.4688 28.7031L27.6562 28.7031L27.6562 24.5024Z" fill="#FFFFFF" fill-opacity="1.000000" fill-rule="nonzero"/>
		<path id="Vector" d="M11.9531 10.9678L6.79688 10.9678C6.1496 10.9678 5.625 11.4902 5.625 12.1348L5.625 18.6685C5.625 19.313 6.1496 19.8354 6.79688 19.8354L11.9531 19.8354C12.6004 19.8354 13.125 19.313 13.125 18.6685L13.125 12.1348C13.125 11.4902 12.6004 10.9678 11.9531 10.9678ZM10.7812 17.502L7.96875 17.502L7.96875 13.3013L10.7812 13.3013L10.7812 17.502Z" fill="#FFFFFF" fill-opacity="1.000000" fill-rule="nonzero"/>
		<path id="Vector" d="M21.7969 10.9678L16.6406 10.9678C15.9933 10.9678 15.4688 11.4902 15.4688 12.1348L15.4688 18.6685C15.4688 19.313 15.9933 19.8354 16.6406 19.8354L21.7969 19.8354C22.4442 19.8354 22.9688 19.313 22.9688 18.6685L22.9688 12.1348C22.9688 11.4902 22.4442 10.9678 21.7969 10.9678ZM20.625 17.502L17.8125 17.502L17.8125 13.3013L20.625 13.3013L20.625 17.502Z" fill="#FFFFFF" fill-opacity="1.000000" fill-rule="nonzero"/>
		<path id="Vector" d="M26.4844 19.8354L31.6406 19.8354C32.2879 19.8354 32.8125 19.313 32.8125 18.6685L32.8125 12.1348C32.8125 11.4902 32.2879 10.9678 31.6406 10.9678L26.4844 10.9678C25.8371 10.9678 25.3125 11.4902 25.3125 12.1348L25.3125 18.6685C25.3125 19.313 25.8371 19.8354 26.4844 19.8354ZM27.6562 13.3013L30.4688 13.3013L30.4688 17.502L27.6562 17.502L27.6562 13.3013Z" fill="#FFFFFF" fill-opacity="1.000000" fill-rule="nonzero"/>
		<path id="Vector" d="M19.1803 7.00049C19.4884 7.00049 19.7905 6.87549 20.0084 6.65869C20.2263 6.44189 20.3522 6.14062 20.3522 5.83398C20.3522 5.52686 20.2267 5.22559 20.0084 5.00879C19.7905 4.79199 19.4884 4.66699 19.1803 4.66699C18.8704 4.66699 18.5696 4.79199 18.3517 5.00879C18.1325 5.22559 18.0084 5.52686 18.0084 5.83398C18.0084 6.14062 18.1325 6.44189 18.3517 6.65869C18.5696 6.87549 18.8704 7.00049 19.1803 7.00049Z" fill="#FFFFFF" fill-opacity="1.000000" fill-rule="nonzero"/>
	</g>
</svg>
