<svg width="18.000000" height="18.000000" viewBox="0 0 18 18" fill="none" xmlns="http://www.w3.org/2000/svg" xmlns:xlink="http://www.w3.org/1999/xlink">
	<desc>
			Created with Pixso.
	</desc>
	<defs>
		<clipPath id="clip1987_25870">
			<rect id="barbecue 1" width="18.000000" height="18.000000" fill="white" fill-opacity="0"/>
		</clipPath>
	</defs>
	<rect id="barbecue 1" width="18.000000" height="18.000000" fill="#FFFFFF" fill-opacity="0"/>
	<g clip-path="url(#clip1987_25870)">
		<path id="XMLID 899" d="M15.0981 6.82056L10.582 6.82056C10.3882 6.82056 10.2305 6.97797 10.2305 7.17212C10.2305 7.36627 10.3882 7.52368 10.582 7.52368L13.7109 7.52368L13.7109 9.0354C13.7109 9.83014 13.0645 10.4768 12.2695 10.4768L5.73096 10.4768C4.93604 10.4768 4.28955 9.83014 4.28955 9.0354L4.28955 7.52368L7.41846 7.52368C7.6123 7.52368 7.77002 7.36627 7.77002 7.17212C7.77002 6.97797 7.6123 6.82056 7.41846 6.82056L2.90234 6.82056C2.70801 6.82056 2.55078 6.97797 2.55078 7.17212C2.55078 7.36627 2.70801 7.52368 2.90234 7.52368L3.58643 7.52368L3.58643 9.0354C3.58643 10.077 4.33301 10.9471 5.31885 11.1398L3.91602 17.5737C3.89307 17.6777 3.91895 17.7863 3.98584 17.8691C4.05225 17.952 4.15283 18.0002 4.25928 18.0002L5.78467 18.0002C5.9502 18.0002 6.09326 17.8849 6.12842 17.7233L6.92871 14.0451L11.0718 14.0451L11.8721 17.7233C11.9072 17.8849 12.0503 18.0002 12.2158 18.0002L13.7412 18.0002C13.8472 18.0002 13.9482 17.952 14.0146 17.8691C14.0815 17.7863 14.1069 17.6777 14.0845 17.5737L12.6816 11.1398C13.6675 10.9471 14.4141 10.077 14.4141 9.0354L14.4141 7.52368L15.0981 7.52368C15.292 7.52368 15.4497 7.36627 15.4497 7.17212C15.4497 6.97797 15.2925 6.82056 15.0981 6.82056ZM5.50146 17.2971L4.6958 17.2971L6.02979 11.1799L6.83252 11.1799L5.50146 17.2971ZM7.08154 13.342L7.55225 11.1799L10.4482 11.1799L10.9189 13.342L7.08154 13.342ZM12.499 17.2971L11.168 11.1799L11.9707 11.1799L13.3047 17.2971L12.499 17.2971Z" fill="#696969" fill-opacity="1.000000" fill-rule="nonzero"/>
		<path id="XMLID 908" d="M15.9268 4.49994C15.7329 4.49994 15.5752 4.65735 15.5752 4.8515C15.5752 5.08417 15.3862 5.27338 15.1533 5.27338C14.9209 5.27338 14.7314 5.08417 14.7314 4.8515C14.7314 4.65735 14.5742 4.49994 14.3799 4.49994L13.7666 4.49994C13.6187 4.05133 13.1958 3.7265 12.6982 3.7265C12.4629 3.7265 12.2451 3.79901 12.0645 3.92261C11.9395 3.80145 11.769 3.7265 11.582 3.7265L10.7207 3.7265C10.5332 3.7265 10.3633 3.80145 10.2378 3.92261C10.0576 3.79901 9.83936 3.7265 9.60449 3.7265C9.37061 3.7265 9.15332 3.79822 8.97314 3.92065C8.84814 3.79791 8.67676 3.72198 8.48779 3.72198L7.62646 3.72198C7.43799 3.72198 7.2666 3.79791 7.14111 3.92059C6.96143 3.79816 6.74414 3.7265 6.51025 3.7265C6.27686 3.7265 6.05957 3.79822 5.87939 3.92065C5.75391 3.79791 5.58301 3.72192 5.39404 3.72192L4.53271 3.72192C4.1499 3.72192 3.83838 4.03339 3.83838 4.41626L3.83838 4.49994L2.0752 4.49994C1.88086 4.49994 1.72363 4.65735 1.72363 4.8515C1.72363 5.04565 1.88086 5.20306 2.0752 5.20306L3.83838 5.20306L3.83838 5.27759C3.83838 5.6604 4.1499 5.97192 4.53271 5.97192L5.39404 5.97192C5.58008 5.97192 5.74902 5.89795 5.87354 5.77832C6.05518 5.9032 6.27441 5.9765 6.51025 5.9765C6.74658 5.9765 6.96582 5.9032 7.14697 5.77838C7.27197 5.89795 7.44043 5.97192 7.62646 5.97192L8.48779 5.97192C8.67383 5.97192 8.84277 5.89795 8.96777 5.77832C9.14893 5.9032 9.36816 5.9765 9.60449 5.9765C9.83936 5.9765 10.0576 5.90399 10.2378 5.7804C10.3633 5.90155 10.5332 5.9765 10.7207 5.9765L11.582 5.9765C11.769 5.9765 11.9395 5.90155 12.0645 5.7804C12.2451 5.90399 12.4634 5.9765 12.6982 5.9765C13.1958 5.9765 13.6187 5.65167 13.7666 5.20306L14.085 5.20306C14.2329 5.65173 14.6558 5.9765 15.1533 5.9765C15.7739 5.9765 16.2783 5.4718 16.2783 4.8515C16.2783 4.65735 16.1211 4.49994 15.9268 4.49994ZM5.38525 5.2688L4.5415 5.2688L4.5415 4.42505L5.38525 4.42505L5.38525 5.2688ZM6.51025 5.27338C6.27783 5.27338 6.08838 5.08417 6.08838 4.8515C6.08838 4.6189 6.27783 4.42963 6.51025 4.42963C6.74316 4.42963 6.93213 4.6189 6.93213 4.8515C6.93213 5.08417 6.74316 5.27338 6.51025 5.27338ZM8.479 5.2688L7.63525 5.2688L7.63525 4.42505L8.479 4.42505L8.479 5.2688ZM9.60449 5.27338C9.37158 5.27338 9.18262 5.08417 9.18262 4.8515C9.18262 4.6189 9.37158 4.42963 9.60449 4.42963C9.83691 4.42963 10.0264 4.6189 10.0264 4.8515C10.0264 5.08417 9.83691 5.27338 9.60449 5.27338ZM11.5732 5.27338L10.7295 5.27338L10.7295 4.42963L11.5732 4.42963L11.5732 5.27338ZM12.6982 5.27338C12.4653 5.27338 12.2764 5.08417 12.2764 4.8515C12.2764 4.6189 12.4653 4.42963 12.6982 4.42963C12.9307 4.42963 13.1201 4.6189 13.1201 4.8515C13.1201 5.08417 12.9307 5.27338 12.6982 5.27338Z" fill="#696969" fill-opacity="1.000000" fill-rule="nonzero"/>
		<path id="XMLID 914" d="M11.7012 2.37115C11.6128 2.54401 11.6812 2.7558 11.854 2.8443C11.9053 2.87048 11.96 2.88293 12.0137 2.88293C12.1416 2.88293 12.2646 2.81305 12.3271 2.69147C12.5532 2.25 12.5532 1.72284 12.3271 1.28137C12.2036 1.04041 12.2036 0.752747 12.3271 0.51178C12.4155 0.338928 12.3472 0.127136 12.1743 0.0386963C12.0015 -0.0498047 11.7896 0.0186157 11.7012 0.191467C11.4751 0.632935 11.4751 1.1601 11.7012 1.60162C11.8242 1.84253 11.8242 2.13025 11.7012 2.37115Z" fill="#696969" fill-opacity="1.000000" fill-rule="nonzero"/>
		<path id="XMLID 915" d="M8.69287 2.37115C8.60449 2.54401 8.67285 2.7558 8.8457 2.8443C8.89697 2.87048 8.95166 2.88293 9.00537 2.88293C9.1333 2.88293 9.25684 2.81305 9.31885 2.69147C9.54492 2.25 9.54492 1.72284 9.31885 1.28137C9.19531 1.04041 9.19531 0.752747 9.31885 0.51178C9.40723 0.338928 9.33887 0.127136 9.16602 0.0386963C8.99316 -0.0498047 8.78125 0.0186157 8.69287 0.191467C8.4668 0.632935 8.4668 1.1601 8.69287 1.60162C8.81641 1.84253 8.81641 2.13025 8.69287 2.37115Z" fill="#696969" fill-opacity="1.000000" fill-rule="nonzero"/>
		<path id="XMLID 916" d="M5.68213 2.37115C5.59375 2.54401 5.66211 2.7558 5.83496 2.8443C5.88623 2.87048 5.94092 2.88293 5.99463 2.88293C6.12256 2.88293 6.24609 2.81305 6.30811 2.69147C6.53418 2.25 6.53418 1.72284 6.30811 1.28137C6.18457 1.04041 6.18457 0.752747 6.30811 0.51178C6.39648 0.338928 6.32812 0.127136 6.15527 0.0386963C5.98242 -0.0498047 5.77051 0.0186157 5.68213 0.191467C5.45605 0.632935 5.45605 1.1601 5.68213 1.60162C5.80566 1.84253 5.80566 2.13025 5.68213 2.37115Z" fill="#696969" fill-opacity="1.000000" fill-rule="nonzero"/>
		<path id="XMLID 917" d="M9.24951 7.42065C9.31494 7.35529 9.35254 7.26459 9.35254 7.17212C9.35254 7.07965 9.31494 6.98895 9.24951 6.92358C9.18408 6.85815 9.09326 6.82056 9.00098 6.82056C8.90869 6.82056 8.81787 6.85815 8.75244 6.92358C8.68701 6.98895 8.64941 7.07965 8.64941 7.17212C8.64941 7.26459 8.68701 7.35529 8.75244 7.42065C8.81787 7.48608 8.90869 7.52368 9.00098 7.52368C9.09326 7.52368 9.18408 7.48602 9.24951 7.42065Z" fill="#696969" fill-opacity="1.000000" fill-rule="nonzero"/>
	</g>
</svg>
