<svg width="19.000000" height="19.000000" viewBox="0 0 19 19" fill="none" xmlns="http://www.w3.org/2000/svg" xmlns:xlink="http://www.w3.org/1999/xlink">
	<desc>
			Created with Pixso.
	</desc>
	<defs>
		<clipPath id="clip1987_22324">
			<rect id="bath" width="19.000000" height="19.000000" fill="white" fill-opacity="0"/>
		</clipPath>
	</defs>
	<rect id="bath" width="19.000000" height="19.000000" fill="#FFFFFF" fill-opacity="0"/>
	<g clip-path="url(#clip1987_22324)">
		<path id="Vector" d="M18.7619 11.0557C18.7619 10.7427 18.5079 10.4888 18.1947 10.4888L17.0595 10.4888L17.0595 2.75488C17.0595 1.23584 15.8235 0 14.3044 0C12.7853 0 11.5494 1.23584 11.5494 2.75488L11.5494 3.78906C11.5494 4.10205 11.8034 4.35645 12.1167 4.35645C12.4299 4.35645 12.6839 4.10205 12.6839 3.78906L12.6839 2.75488C12.6839 1.86133 13.4109 1.13428 14.3044 1.13428C15.1981 1.13428 15.925 1.86133 15.925 2.75488L15.925 10.4888L0.805267 10.4888C0.492004 10.4888 0.238037 10.7427 0.238037 11.0557C0.238037 13.6157 1.85715 15.8042 4.12503 16.6523C3.68878 17.1108 3.41895 17.7397 3.41895 18.4326C3.41895 18.7461 3.67291 19 3.98618 19C4.29941 19 4.55338 18.7461 4.55338 18.4326C4.55338 17.6582 5.14435 17.0283 5.87082 17.0283C5.89749 17.0283 13.1025 17.0283 13.1292 17.0283C13.8557 17.0283 14.4467 17.6582 14.4467 18.4326C14.4467 18.7461 14.7006 19 15.0139 19C15.3271 19 15.5811 18.7461 15.5811 18.4326C15.5811 17.7397 15.3112 17.1108 14.875 16.6523C17.1429 15.8042 18.7619 13.6157 18.7619 11.0557ZM12.7896 15.8936L6.21042 15.8936C3.73456 15.8936 1.68716 14.0244 1.40555 11.623L17.5945 11.623C17.3128 14.0244 15.2654 15.8936 12.7896 15.8936Z" fill="#696969" fill-opacity="1.000000" fill-rule="nonzero"/>
		<path id="Vector" d="M12.1167 5.34033C11.8034 5.34033 11.5495 5.59424 11.5495 5.90771L11.5495 6.39893C11.5495 6.7124 11.8034 6.96631 12.1167 6.96631C12.4299 6.96631 12.6839 6.7124 12.6839 6.39893L12.6839 5.90771C12.6839 5.59424 12.4299 5.34033 12.1167 5.34033Z" fill="#696969" fill-opacity="1.000000" fill-rule="nonzero"/>
		<path id="Vector" d="M12.1167 8.06299C11.8034 8.06299 11.5495 8.31689 11.5495 8.63037L11.5495 9.12158C11.5495 9.43506 11.8034 9.68896 12.1167 9.68896C12.4299 9.68896 12.6839 9.43506 12.6839 9.12158L12.6839 8.63037C12.6839 8.31689 12.4299 8.06299 12.1167 8.06299Z" fill="#696969" fill-opacity="1.000000" fill-rule="nonzero"/>
	</g>
</svg>
