<svg width="19.000000" height="13.596191" viewBox="0 0 19 13.5962" fill="none" xmlns="http://www.w3.org/2000/svg" xmlns:xlink="http://www.w3.org/1999/xlink">
	<desc>
			Created with Pixso.
	</desc>
	<defs/>
	<path id="Vector" d="M17.2372 5.92285L17.2372 1.69189C17.2372 0.758789 16.4782 0 15.5454 0L3.45459 0C2.52177 0 1.76285 0.758789 1.76285 1.69189L1.76285 5.92285C0.747681 6.2041 0 7.13525 0 8.23877L0 11.4536C0 11.7651 0.252563 12.0176 0.564056 12.0176L1.76285 12.0176L1.76285 13.0322C1.76285 13.3438 2.01541 13.5962 2.3269 13.5962C2.6384 13.5962 2.89098 13.3438 2.89098 13.0322L2.89098 12.0176L16.109 12.0176L16.109 13.0322C16.109 13.3438 16.3616 13.5962 16.6731 13.5962C16.9846 13.5962 17.2372 13.3438 17.2372 13.0322L17.2372 12.0176L18.4359 12.0176C18.7474 12.0176 19 11.7651 19 11.4536L19 8.23877C19 7.13525 18.2523 6.2041 17.2372 5.92285ZM2.89098 1.69189C2.89098 1.38086 3.14383 1.12793 3.45459 1.12793L15.5454 1.12793C15.8562 1.12793 16.1091 1.38086 16.1091 1.69189L16.1091 5.83545L14.7874 5.83545L14.7874 4.70312C14.7874 3.71875 13.9865 2.91797 13.0019 2.91797L10.7215 2.91797C10.2493 2.91797 9.81966 3.10254 9.50003 3.40283C9.18042 3.10254 8.75076 2.91797 8.27858 2.91797L5.99817 2.91797C5.01363 2.91797 4.21266 3.71875 4.21266 4.70312L4.21266 5.83545L2.89098 5.83545L2.89098 1.69189ZM13.6593 4.70312L13.6593 5.83545L10.0641 5.83545L10.0641 4.70312C10.0641 4.34082 10.359 4.0459 10.7215 4.0459L13.0019 4.0459C13.3644 4.0459 13.6593 4.34082 13.6593 4.70312ZM8.9359 4.70312L8.9359 5.83545L5.34067 5.83545L5.34067 4.70312C5.34067 4.34082 5.63562 4.0459 5.99806 4.0459L8.27847 4.0459C8.64099 4.0459 8.9359 4.34082 8.9359 4.70312ZM17.8719 10.8896L1.12813 10.8896L1.12813 8.23877C1.12813 7.53564 1.70006 6.96387 2.40309 6.96387L16.5969 6.96387C17.2999 6.96387 17.8719 7.53564 17.8719 8.23877L17.8719 10.8896Z" fill="#696969" fill-opacity="1.000000" fill-rule="nonzero"/>
</svg>
