<svg width="16.000000" height="16.000000" viewBox="0 0 16 16" fill="none" xmlns="http://www.w3.org/2000/svg" xmlns:xlink="http://www.w3.org/1999/xlink">
	<desc>
			Created with Pixso.
	</desc>
	<defs>
		<clipPath id="clip1987_25940">
			<rect id="blinds" width="16.000000" height="16.000000" fill="white" fill-opacity="0"/>
		</clipPath>
	</defs>
	<rect id="blinds" width="16.000000" height="16.000000" fill="#FFFFFF" fill-opacity="0"/>
	<g clip-path="url(#clip1987_25940)">
		<path id="Vector" d="M15.5312 13.1875L14.125 13.1875L14.125 8.4375L14.5938 8.4375C14.8525 8.4375 15.0625 8.2276 15.0625 7.96875C15.0625 7.53577 15.0625 3.41772 15.0625 2.73187C15.6079 2.53839 16 2.01733 16 1.40625C16 0.630859 15.3691 0 14.5938 0L1.40625 0C0.630859 0 0 0.630859 0 1.40625C0 2.01733 0.39209 2.53839 0.9375 2.73187C0.9375 2.99658 0.9375 7.72394 0.9375 7.96875C0.9375 8.2276 1.14746 8.4375 1.40625 8.4375L1.875 8.4375L1.875 13.1875L0.46875 13.1875C0.209961 13.1875 0 13.3974 0 13.6562L0 15.5312C0 15.7901 0.209961 16 0.46875 16L15.5312 16C15.79 16 16 15.7901 16 15.5312L16 13.6562C16 13.3974 15.79 13.1875 15.5312 13.1875ZM14.125 7.5C13.4019 7.5 2.84033 7.5 2.34375 7.5L1.875 7.5L1.875 6.5625L14.125 6.5625L14.125 7.5ZM10.3438 9.45563C9.79834 9.64911 9.40625 10.1702 9.40625 10.7812C9.40625 11.5566 10.0371 12.1875 10.8125 12.1875C11.5879 12.1875 12.2188 11.5566 12.2188 10.7812C12.2188 10.1702 11.8267 9.64911 11.2812 9.45563L11.2812 8.4375L13.1875 8.4375L13.1875 13.1875L8.46875 13.1875L8.46875 8.4375L10.3438 8.4375L10.3438 9.45563ZM10.8125 10.3125C11.0708 10.3125 11.2812 10.5228 11.2812 10.7812C11.2812 11.0397 11.0708 11.25 10.8125 11.25C10.5542 11.25 10.3438 11.0397 10.3438 10.7812C10.3438 10.5228 10.5542 10.3125 10.8125 10.3125ZM7.53125 8.4375L7.53125 13.1875L2.8125 13.1875L2.8125 8.4375L7.53125 8.4375ZM14.125 5.625L1.875 5.625L1.875 4.6875L14.125 4.6875L14.125 5.625ZM14.125 3.75L1.875 3.75L1.875 2.8125L14.125 2.8125L14.125 3.75ZM1.40625 1.875C1.14795 1.875 0.9375 1.66473 0.9375 1.40625C0.9375 1.14777 1.14795 0.9375 1.40625 0.9375L14.5938 0.9375C14.8521 0.9375 15.0625 1.14777 15.0625 1.40625C15.0625 1.66473 14.8521 1.875 14.5938 1.875L1.40625 1.875ZM15.0625 15.0625L0.9375 15.0625L0.9375 14.125C2.18848 14.125 13.2539 14.125 15.0625 14.125L15.0625 15.0625Z" fill="#696969" fill-opacity="1.000000" fill-rule="nonzero"/>
	</g>
</svg>
