<svg width="60.000000" height="60.000000" viewBox="0 0 60 60" fill="none" xmlns="http://www.w3.org/2000/svg" xmlns:xlink="http://www.w3.org/1999/xlink">
	<desc>
			Created with Pixso.
	</desc>
	<defs>
		<clipPath id="clip1987_22637">
			<rect id="business-and-trade" width="60.000000" height="60.000000" fill="white" fill-opacity="0"/>
		</clipPath>
	</defs>
	<rect id="business-and-trade" width="60.000000" height="60.000000" fill="#FFFFFF" fill-opacity="0"/>
	<g clip-path="url(#clip1987_22637)">
		<path id="Vector" d="M35 22.7251L57.025 27.1001C58.8 27.4751 60 28.9751 60 30.75L60 56.25C60 58.3252 58.325 60 56.25 60L33.75 60C34.45 60 35 59.4502 35 58.75L35 57.5L56.25 57.5C56.925 57.5 57.5 56.9502 57.5 56.25L57.5 30.75C57.5 30.1753 57.1 29.6499 56.525 29.5249L35 25.2749L35 22.7251Z" fill="#FFFFFF" fill-opacity="1.000000" fill-rule="nonzero"/>
		<path id="Vector" d="M48.75 35C49.45 35 50 35.5498 50 36.25C50 36.9502 49.45 37.5 48.75 37.5L43.75 37.5C43.05 37.5 42.5 36.9502 42.5 36.25C42.5 35.5498 43.05 35 43.75 35L48.75 35Z" fill="#FFFFFF" fill-opacity="1.000000" fill-rule="nonzero"/>
		<path id="Vector" d="M48.75 42.5C49.45 42.5 50 43.0498 50 43.75C50 44.4502 49.45 45 48.75 45L43.75 45C43.05 45 42.5 44.4502 42.5 43.75C42.5 43.0498 43.05 42.5 43.75 42.5L48.75 42.5Z" fill="#FFFFFF" fill-opacity="1.000000" fill-rule="nonzero"/>
		<path id="Vector" d="M48.75 50C49.45 50 50 50.5498 50 51.25C50 51.9502 49.45 52.5 48.75 52.5L43.75 52.5C43.05 52.5 42.5 51.9502 42.5 51.25C42.5 50.5498 43.05 50 43.75 50L48.75 50Z" fill="#FFFFFF" fill-opacity="1.000000" fill-rule="nonzero"/>
		<path id="Vector" d="M35 58.75C35 59.4502 34.45 60 33.75 60C33.05 60 32.5 59.4502 32.5 58.75L32.5 57.5L32.5 23.75C32.5 23.375 32.675 23.0249 32.95 22.7749C33.25 22.5503 33.625 22.4502 34 22.5249L35 22.7251L35 25.2749L35 57.5L35 58.75Z" fill="#FFFFFF" fill-opacity="1.000000" fill-rule="nonzero"/>
		<path id="Vector" d="M32.5 57.5L32.5 58.75C32.5 59.4502 33.05 60 33.75 60L23.75 60C24.45 60 25 59.4502 25 58.75L25 57.5L32.5 57.5Z" fill="#FFFFFF" fill-opacity="1.000000" fill-rule="nonzero"/>
		<path id="Vector" d="M26.25 12.5C26.95 12.5 27.5 13.0498 27.5 13.75C27.5 14.4502 26.95 15 26.25 15L21.25 15C20.55 15 20 14.4502 20 13.75C20 13.0498 20.55 12.5 21.25 12.5L26.25 12.5Z" fill="#FFFFFF" fill-opacity="1.000000" fill-rule="nonzero"/>
		<path id="Vector" d="M27.5 21.25C27.5 21.9502 26.95 22.5 26.25 22.5L21.25 22.5C20.55 22.5 20 21.9502 20 21.25C20 20.5498 20.55 20 21.25 20L26.25 20C26.95 20 27.5 20.5498 27.5 21.25Z" fill="#FFFFFF" fill-opacity="1.000000" fill-rule="nonzero"/>
		<path id="Vector" d="M26.25 27.5C26.95 27.5 27.5 28.0498 27.5 28.75C27.5 29.4502 26.95 30 26.25 30L21.25 30C20.55 30 20 29.4502 20 28.75C20 28.0498 20.55 27.5 21.25 27.5L26.25 27.5Z" fill="#FFFFFF" fill-opacity="1.000000" fill-rule="nonzero"/>
		<path id="Vector" d="M26.25 35C26.95 35 27.5 35.5498 27.5 36.25C27.5 36.9502 26.95 37.5 26.25 37.5L21.25 37.5C20.55 37.5 20 36.9502 20 36.25C20 35.5498 20.55 35 21.25 35L26.25 35Z" fill="#FFFFFF" fill-opacity="1.000000" fill-rule="nonzero"/>
		<path id="Vector" d="M15 36.25C15 36.9502 14.45 37.5 13.75 37.5L8.75 37.5C8.04999 37.5 7.5 36.9502 7.5 36.25C7.5 35.5498 8.04999 35 8.75 35L13.75 35C14.45 35 15 35.5498 15 36.25Z" fill="#FFFFFF" fill-opacity="1.000000" fill-rule="nonzero"/>
		<path id="Vector" d="M13.75 12.5C14.45 12.5 15 13.0498 15 13.75C15 14.4502 14.45 15 13.75 15L8.75 15C8.04999 15 7.5 14.4502 7.5 13.75C7.5 13.0498 8.04999 12.5 8.75 12.5L13.75 12.5Z" fill="#FFFFFF" fill-opacity="1.000000" fill-rule="nonzero"/>
		<path id="Vector" d="M13.75 20C14.45 20 15 20.5498 15 21.25C15 21.9502 14.45 22.5 13.75 22.5L8.75 22.5C8.04999 22.5 7.5 21.9502 7.5 21.25C7.5 20.5498 8.04999 20 8.75 20L13.75 20Z" fill="#FFFFFF" fill-opacity="1.000000" fill-rule="nonzero"/>
		<path id="Vector" d="M13.75 27.5C14.45 27.5 15 28.0498 15 28.75C15 29.4502 14.45 30 13.75 30L8.75 30C8.04999 30 7.5 29.4502 7.5 28.75C7.5 28.0498 8.04999 27.5 8.75 27.5L13.75 27.5Z" fill="#FFFFFF" fill-opacity="1.000000" fill-rule="nonzero"/>
		<path id="Vector" d="M22.5 46.25C22.5 45.5498 21.925 45 21.25 45L13.75 45C13.05 45 12.5 45.5498 12.5 46.25L12.5 57.5L10 57.5L10 46.25C10 44.1748 11.675 42.5 13.75 42.5L21.25 42.5C23.325 42.5 25 44.1748 25 46.25L25 57.5L22.5 57.5L22.5 46.25Z" fill="#FFFFFF" fill-opacity="1.000000" fill-rule="nonzero"/>
		<path id="Vector" d="M12.5 57.5L22.5 57.5L25 57.5L25 58.75C25 59.4502 24.45 60 23.75 60L11.25 60C10.55 60 10 59.4502 10 58.75L10 57.5L12.5 57.5Z" fill="#FFFFFF" fill-opacity="1.000000" fill-rule="nonzero"/>
		<path id="Vector" d="M4.375 0.5L31.85 4.6748C33.675 4.97461 35 6.5249 35 8.375L35 22.7246L34 22.5249C33.625 22.4497 33.25 22.5498 32.95 22.7749C32.675 23.0249 32.5 23.375 32.5 23.75L32.5 8.375C32.5 7.75 32.05 7.22461 31.45 7.125L3.97498 2.97461C3.90002 2.94971 3.82501 2.94971 3.75 2.94971C3.45001 2.94971 3.17499 3.0498 2.95001 3.25C2.65002 3.5 2.5 3.82471 2.5 4.19971L2.5 56.25C2.5 56.9497 3.07501 57.5 3.75 57.5L10 57.5L10 58.75C10 59.4497 10.55 60 11.25 60L3.75 60C1.67499 60 0 58.3247 0 56.25L0 4.19971C0 3.09961 0.474976 2.0498 1.32501 1.34961C2.17499 0.625 3.27502 0.324707 4.375 0.5Z" fill="#FFFFFF" fill-opacity="1.000000" fill-rule="nonzero"/>
	</g>
</svg>
