<svg width="37.011719" height="50.000000" viewBox="0 0 37.0117 50" fill="none" xmlns="http://www.w3.org/2000/svg" xmlns:xlink="http://www.w3.org/1999/xlink">
	<desc>
			Created with Pixso.
	</desc>
	<defs/>
	<path id="Vector" d="M25.293 50L11.7188 50C5.25702 50 0 44.7432 0 38.2812L0 11.7188C0 5.25684 5.25702 0 11.7188 0L25.293 0C31.7547 0 37.0117 5.25684 37.0117 11.7188L37.0117 38.2812C37.0117 44.7432 31.7547 50 25.293 50ZM11.7188 3.90625C7.41095 3.90625 3.90625 7.41113 3.90625 11.7188L3.90625 38.2812C3.90625 42.5889 7.41095 46.0938 11.7188 46.0938L25.293 46.0938C29.6008 46.0938 33.1055 42.5889 33.1055 38.2812L33.1055 11.7188C33.1055 7.41113 29.6008 3.90625 25.293 3.90625L11.7188 3.90625ZM29.1992 14.7461C29.1992 13.6675 28.3248 12.793 27.2461 12.793L9.76562 12.793C7.17419 12.896 7.17615 16.5972 9.76562 16.6992L27.2461 16.6992C28.3248 16.6992 29.1992 15.8247 29.1992 14.7461ZM28.9062 40.2344L28.9062 30.957C28.8031 28.3657 25.1022 28.3677 25 30.957L25 40.2344C25 41.313 25.8744 42.1875 26.9531 42.1875C28.0319 42.1875 28.9062 41.313 28.9062 40.2344ZM10.1562 29.0039C8.80792 29.0039 7.71484 30.0972 7.71484 31.4453C7.84344 34.6836 12.4695 34.6831 12.5977 31.4453C12.5977 30.0972 11.5046 29.0039 10.1562 29.0039ZM18.5547 29.0039C17.2064 29.0039 16.1133 30.0972 16.1133 31.4453C16.2419 34.6836 20.868 34.6831 20.9961 31.4453C20.9961 30.0972 19.903 29.0039 18.5547 29.0039ZM10.1562 37.3047C8.80792 37.3047 7.71484 38.3979 7.71484 39.7461C7.84344 42.9844 12.4695 42.9839 12.5977 39.7461C12.5977 38.3979 11.5046 37.3047 10.1562 37.3047ZM18.5547 37.3047C17.2064 37.3047 16.1133 38.3979 16.1133 39.7461C16.2419 42.9844 20.868 42.9839 20.9961 39.7461C20.9961 38.3979 19.903 37.3047 18.5547 37.3047ZM12.5 23.0469C12.5 24.395 11.4069 25.4883 10.0586 25.4883C6.82013 25.3599 6.82098 20.7334 10.0586 20.6055C11.4069 20.6055 12.5 21.6987 12.5 23.0469ZM18.5547 20.6055C17.2064 20.6055 16.1133 21.6987 16.1133 23.0469C16.2419 26.2852 20.868 26.2847 20.9961 23.0469C20.9961 21.6987 19.903 20.6055 18.5547 20.6055ZM26.9531 20.6055C25.6048 20.6055 24.5117 21.6987 24.5117 23.0469C24.6403 26.2852 29.2664 26.2847 29.3945 23.0469C29.3945 21.6987 28.3015 20.6055 26.9531 20.6055Z" fill="#0061DF" fill-opacity="1.000000" fill-rule="nonzero"/>
</svg>
