<svg width="19.000000" height="19.000000" viewBox="0 0 19 19" fill="none" xmlns="http://www.w3.org/2000/svg" xmlns:xlink="http://www.w3.org/1999/xlink">
	<desc>
			Created with Pixso.
	</desc>
	<defs>
		<clipPath id="clip1987_25796">
			<rect id="calendar 1" width="19.000000" height="19.000000" fill="white" fill-opacity="0"/>
		</clipPath>
	</defs>
	<rect id="calendar 1" width="19.000000" height="19.000000" fill="#FFFFFF" fill-opacity="0"/>
	<g clip-path="url(#clip1987_25796)">
		<path id="Vector" d="M16.5508 1.48438L14.8438 1.48438L14.8438 0.59375C14.8438 0.265869 14.5781 0 14.25 0C13.9219 0 13.6562 0.265869 13.6562 0.59375L13.6562 1.48438L5.34375 1.48438L5.34375 0.59375C5.34375 0.265869 5.07812 0 4.75 0C4.42188 0 4.15625 0.265869 4.15625 0.59375L4.15625 1.48438L2.44922 1.48438C1.09863 1.48438 0 2.58307 0 3.93359L0 16.5508C0 17.9013 1.09863 19 2.44922 19L16.5508 19C17.9014 19 19 17.9013 19 16.5508L19 3.93359C19 2.58307 17.9014 1.48438 16.5508 1.48438ZM2.44922 2.67188L4.15625 2.67188L4.15625 3.26562C4.15625 3.59351 4.42188 3.85938 4.75 3.85938C5.07812 3.85938 5.34375 3.59351 5.34375 3.26562L5.34375 2.67188L13.6562 2.67188L13.6562 3.26562C13.6562 3.59351 13.9219 3.85938 14.25 3.85938C14.5781 3.85938 14.8438 3.59351 14.8438 3.26562L14.8438 2.67188L16.5508 2.67188C17.2466 2.67188 17.8125 3.23785 17.8125 3.93359L17.8125 5.34375L1.1875 5.34375L1.1875 3.93359C1.1875 3.23785 1.75342 2.67188 2.44922 2.67188ZM16.5508 17.8125L2.44922 17.8125C1.75342 17.8125 1.1875 17.2465 1.1875 16.5508L1.1875 6.53125L17.8125 6.53125L17.8125 16.5508C17.8125 17.2465 17.2466 17.8125 16.5508 17.8125Z" fill="#696969" fill-opacity="1.000000" fill-rule="nonzero"/>
	</g>
</svg>
