<svg width="20.000000" height="20.000000" viewBox="0 0 20 20" fill="none" xmlns="http://www.w3.org/2000/svg" xmlns:xlink="http://www.w3.org/1999/xlink">
	<desc>
			Created with Pixso.
	</desc>
	<defs>
		<clipPath id="clip1987_20151">
			<rect id="car-key 1" width="20.000000" height="20.000000" fill="white" fill-opacity="0"/>
		</clipPath>
	</defs>
	<rect id="car-key 1" width="20.000000" height="20.000000" fill="#FFFFFF" fill-opacity="0"/>
	<g clip-path="url(#clip1987_20151)">
		<path id="Vector" d="M16.2188 2.54883L17.3906 2.54883L17.3906 3.7207L16.2188 3.7207L16.2188 2.54883Z" fill="#0061DF" fill-opacity="1.000000" fill-rule="nonzero"/>
		<path id="Vector" d="M18.541 15.4396C17.8594 14.9857 17.0415 14.8245 16.2388 14.9856L13.0806 15.6487C13.2661 14.7477 12.7954 13.8363 11.9321 13.498L8.55273 12.1604C7.20605 11.6276 5.71094 11.5951 4.34082 12.0697L0 13.5909L0 19.3936L4.96924 17.7262L11.0171 20.0001L20 18.1481L19.8477 17.3885C19.6865 16.5857 19.2227 15.8936 18.541 15.4396ZM11.1123 18.7819L4.9917 16.4806L1.17383 17.7616L1.17383 14.4235L4.72705 13.1782C5.83008 12.7961 7.03516 12.8223 8.12061 13.2518L11.502 14.5902C11.853 14.7277 12.0322 15.1436 11.9019 15.5172C11.8335 15.7125 11.6958 15.8662 11.5132 15.95C11.3438 16.0278 11.1562 16.0339 10.9854 15.967L6.89258 14.3632L6.46436 15.4561L10.5571 17.0599C10.8828 17.1874 11.229 17.2194 11.5645 17.1567L11.5664 17.1661L16.4722 16.136C16.9668 16.0376 17.4702 16.1371 17.8906 16.4167C18.1997 16.6228 18.4365 16.9084 18.5801 17.2424L11.1123 18.7819Z" fill="#0061DF" fill-opacity="1.000000" fill-rule="nonzero"/>
		<path id="Vector" d="M9.97217 10.9817C10.1655 11.038 10.3628 11.0654 10.5586 11.0654C11.106 11.0654 11.6411 10.8503 12.0391 10.4519L15.0439 7.44714L16.0781 8.48132L19.168 5.3916C19.7041 4.8551 19.9995 4.14185 19.9995 3.38306C19.9995 2.62439 19.7041 1.91101 19.1675 1.37451L18.625 0.831909C18.0889 0.29541 17.3755 0 16.6167 0C15.8579 0 15.1445 0.29541 14.6079 0.831909L11.5186 3.92163L12.5522 4.95569L7.3042 10.204L9.97217 10.9817ZM13.1758 3.92163L15.4365 1.66064C15.752 1.34546 16.1709 1.17188 16.6167 1.17188C17.0625 1.17188 17.4814 1.34546 17.7964 1.66064L18.3394 2.20312C18.6543 2.51831 18.8276 2.93738 18.8276 3.38306C18.8276 3.82874 18.6543 4.2478 18.3389 4.56299L16.0781 6.82397L13.1758 3.92163ZM14.2153 6.61865L11.2104 9.62329C10.9727 9.86145 10.6235 9.95093 10.3003 9.85657L9.53271 9.63281L13.3813 5.7843L14.2153 6.61865Z" fill="#0061DF" fill-opacity="1.000000" fill-rule="nonzero"/>
	</g>
</svg>
