<svg width="19.000000" height="19.000000" viewBox="0 0 19 19" fill="none" xmlns="http://www.w3.org/2000/svg" xmlns:xlink="http://www.w3.org/1999/xlink">
	<desc>
			Created with Pixso.
	</desc>
	<defs>
		<clipPath id="clip1987_22336">
			<rect id="car" width="19.000000" height="19.000000" fill="white" fill-opacity="0"/>
		</clipPath>
	</defs>
	<rect id="car" width="19.000000" height="19.000000" fill="#FFFFFF" fill-opacity="0"/>
	<g clip-path="url(#clip1987_22336)">
		<path id="Vector" d="M18.2733 7.6123L17.8592 7.17383L16.4058 3.25635C16.1581 2.59424 15.5248 2.15576 14.8184 2.15186L4.43738 2.15186C3.73099 2.15186 3.09766 2.59424 2.85001 3.25635L1.41687 7.125L0.820099 7.67725C0.300415 8.11963 0 8.76953 0 9.45166L0 15.1597C0.00405884 16.0933 0.763245 16.8486 1.69702 16.8486L2.7688 16.8486C3.70258 16.8486 4.46176 16.0933 4.46582 15.1597L4.46582 14.3315L14.5342 14.3315L14.5342 15.1597C14.5382 16.0933 15.2974 16.8486 16.2312 16.8486L17.303 16.8486C18.2368 16.8486 18.9959 16.0933 19 15.1597L19 9.30127C18.9959 8.66406 18.7361 8.05469 18.2733 7.6123ZM3.61325 3.53223C3.74316 3.18701 4.07202 2.96387 4.43738 2.96387L14.8224 2.96387C15.1878 2.96387 15.5167 3.19141 15.6466 3.53223L16.9132 6.94238L15.9673 6.94238C15.744 5.41992 14.3271 4.36865 12.8047 4.5957C11.5908 4.77441 10.6367 5.72852 10.4581 6.94238L2.34659 6.94238L3.61325 3.53223ZM15.1391 6.94238L11.2782 6.94238C11.5015 5.87451 12.5489 5.19287 13.6167 5.41602C14.3799 5.57812 14.9767 6.17529 15.1391 6.94238ZM3.65384 15.1597C3.64978 15.6465 3.25598 16.0366 2.7688 16.0366L1.69702 16.0366C1.20984 16.0366 0.81604 15.6465 0.811951 15.1597L0.811951 14.0957C1.05554 14.2544 1.37628 14.3315 1.69702 14.3315L3.65384 14.3315L3.65384 15.1597ZM18.188 15.1597C18.184 15.6465 17.7902 16.0366 17.303 16.0366L16.2312 16.0366C15.744 16.0366 15.3502 15.6426 15.3462 15.1597L15.3462 14.3315L17.303 14.3315C17.6237 14.3315 17.9445 14.2544 18.188 14.0957L18.188 15.1597ZM17.303 13.5195L1.69702 13.5195C1.2139 13.5234 0.81604 13.1377 0.811951 12.6504L0.811951 9.45166C0.811951 9.00488 1.01089 8.57861 1.35193 8.29053C1.35599 8.28613 1.36411 8.27832 1.36816 8.27393L1.92029 7.75439L17.2949 7.75439L17.6846 8.17236C17.6887 8.18066 17.7009 8.18457 17.7049 8.19287C18.0094 8.48096 18.184 8.88281 18.184 9.30127L18.184 12.6504L18.188 12.6504C18.184 13.1338 17.7861 13.5234 17.303 13.5195Z" fill="#696969" fill-opacity="1.000000" fill-rule="nonzero"/>
		<path id="Vector" d="M5.35895 9.37793L2.31406 9.37793C2.09076 9.37793 1.90808 9.56055 1.90808 9.78369L1.90808 11.895C1.90808 12.1182 2.09076 12.3008 2.31406 12.3008L5.35895 12.3008C5.58221 12.3008 5.76492 12.1182 5.76492 11.895L5.76492 9.78369C5.76492 9.56055 5.58221 9.37793 5.35895 9.37793ZM4.95294 11.4893L2.72003 11.4893L2.72003 10.1899L4.95294 10.1899L4.95294 11.4893Z" fill="#696969" fill-opacity="1.000000" fill-rule="nonzero"/>
		<path id="Vector" d="M16.686 9.37793L13.6411 9.37793C13.4178 9.37793 13.2351 9.56055 13.2351 9.78369L13.2351 11.895C13.2351 12.1182 13.4178 12.3008 13.6411 12.3008L16.686 12.3008C16.9092 12.3008 17.0919 12.1182 17.0919 11.895L17.0919 9.78369C17.0919 9.56055 16.9092 9.37793 16.686 9.37793ZM16.28 11.4893L14.0471 11.4893L14.0471 10.1899L16.28 10.1899L16.28 11.4893Z" fill="#696969" fill-opacity="1.000000" fill-rule="nonzero"/>
		<path id="Vector" d="M11.4609 11.083L7.53909 11.083C7.3158 11.083 7.13312 11.2656 7.13312 11.4888C7.13312 11.7124 7.3158 11.895 7.53909 11.895L11.4609 11.895C11.6842 11.895 11.8669 11.7124 11.8669 11.4888C11.8669 11.2656 11.6842 11.083 11.4609 11.083Z" fill="#696969" fill-opacity="1.000000" fill-rule="nonzero"/>
		<path id="Vector" d="M11.4609 9.82471L7.53909 9.82471C7.3158 9.82471 7.13312 10.0073 7.13312 10.2305C7.13312 10.4541 7.3158 10.6367 7.53909 10.6367L11.4609 10.6367C11.6842 10.6367 11.8669 10.4541 11.8669 10.2305C11.8669 10.0073 11.6842 9.82471 11.4609 9.82471Z" fill="#696969" fill-opacity="1.000000" fill-rule="nonzero"/>
	</g>
</svg>
