<svg width="20.000000" height="19.858154" viewBox="0 0 20 19.8582" fill="none" xmlns="http://www.w3.org/2000/svg" xmlns:xlink="http://www.w3.org/1999/xlink">
	<desc>
			Created with Pixso.
	</desc>
	<defs>
		<clipPath id="clip1987_25944">
			<rect id="chair" width="20.000000" height="19.858156" fill="white" fill-opacity="0"/>
		</clipPath>
	</defs>
	<rect id="chair" width="20.000000" height="19.858156" fill="#FFFFFF" fill-opacity="0"/>
	<g clip-path="url(#clip1987_25944)">
		<path id="Vector" d="M19.7651 4.7937C19.5947 4.60938 19.353 4.50366 19.1011 4.50366L18.834 4.50366C18.1338 4.50366 17.5596 5.026 17.4985 5.71875L17.2095 8.98755C17.1836 9.27722 16.9438 9.49573 16.6509 9.49573L14.1499 9.49573C13.3481 9.49573 12.6963 10.1431 12.6963 10.9388L12.6963 11.0822C12.6963 11.5629 13.0903 11.954 13.5742 11.954L14.1104 11.954L13.5825 13.6658C13.582 13.6671 13.5815 13.6683 13.5815 13.6697L13.1777 14.978C13.1304 15.1317 13.2173 15.2943 13.3721 15.3414C13.4009 15.3501 13.4297 15.3542 13.458 15.3542C13.5835 15.3542 13.6992 15.2737 13.7383 15.1484L14.0781 14.0449L18.0967 14.0449L18.437 15.1484C18.4756 15.2737 18.5918 15.3542 18.7168 15.3542C18.7456 15.3542 18.7744 15.3501 18.8027 15.3414C18.9575 15.2943 19.0444 15.1317 18.9971 14.978L18.0396 11.8727C18.2075 11.8254 18.3701 11.7582 18.5225 11.6715C18.6626 11.5916 18.7114 11.4138 18.6309 11.2744C18.5503 11.1351 18.3716 11.0869 18.231 11.1667C17.9951 11.3011 17.7256 11.3722 17.4521 11.3722L14.5068 11.3722C14.5059 11.3722 14.5049 11.3722 14.5039 11.3722L13.5742 11.3722C13.4136 11.3722 13.2822 11.2422 13.2822 11.0822L13.2822 10.9388C13.2822 10.4639 13.6714 10.0775 14.1499 10.0775L16.6509 10.0775C17.2495 10.0775 17.7407 9.63074 17.793 9.03845L18.082 5.76953C18.1167 5.37952 18.4399 5.08545 18.8345 5.08545L19.1011 5.08545C19.1904 5.08545 19.2729 5.12134 19.333 5.18665C19.3931 5.25195 19.4219 5.33643 19.4141 5.42468L19.0142 9.95129C19.0044 10.063 18.9824 10.1733 18.9492 10.2795C18.9009 10.433 18.9873 10.5961 19.1416 10.6438C19.2964 10.6917 19.4604 10.606 19.5088 10.4526C19.5542 10.3066 19.5845 10.1552 19.5981 10.0022L19.998 5.47546C20.02 5.22656 19.9351 4.97803 19.7651 4.7937ZM14.7231 11.954L17.4517 11.954L17.917 13.4631L14.2578 13.4631L14.7231 11.954Z" fill="#696969" fill-opacity="1.000000" fill-rule="nonzero"/>
		<path id="Vector" d="M5.85254 9.4967L3.35156 9.4967C3.05859 9.4967 2.81836 9.2782 2.79297 8.98853L2.50391 5.71973C2.44287 5.02698 1.86865 4.50464 1.16797 4.50464L0.900879 4.50464C0.649414 4.50464 0.407227 4.61035 0.237305 4.79468C0.0673828 4.979 -0.0175781 5.22754 0.00439453 5.47656L0.404297 10.0032C0.45166 10.5374 0.696777 11.031 1.09521 11.3933C1.34521 11.6208 1.64258 11.7842 1.96289 11.8741L1.00488 14.9791C0.95752 15.1327 1.04492 15.2954 1.19922 15.3424C1.22803 15.3511 1.25684 15.3552 1.28516 15.3552C1.41064 15.3552 1.52686 15.2747 1.56543 15.1494L1.90576 14.0459L5.92383 14.0459L6.26416 15.1494C6.30273 15.2747 6.41895 15.3552 6.54443 15.3552C6.57275 15.3552 6.60156 15.3511 6.63037 15.3424C6.78467 15.2954 6.87207 15.1327 6.82471 14.9791L6.4209 13.6707C6.42041 13.6693 6.42041 13.6681 6.41992 13.6667L5.89209 11.955L6.42822 11.955C6.91211 11.955 7.30615 11.564 7.30615 11.0831L7.30615 10.9398C7.30615 10.144 6.65381 9.4967 5.85254 9.4967ZM2.08496 13.4641L2.55029 11.955L5.2793 11.955L5.74463 13.4641L2.08496 13.4641ZM6.72021 11.0831C6.72021 11.243 6.58887 11.3732 6.42822 11.3732L5.49902 11.3732C5.49756 11.3732 5.49658 11.3732 5.49512 11.3732L2.55029 11.3732C2.48779 11.3732 2.42578 11.3691 2.36523 11.3622C2.36523 11.3622 2.36523 11.3622 2.36523 11.3622C1.63232 11.2781 1.0542 10.7003 0.988281 9.95227L0.587891 5.42566C0.580078 5.3374 0.609375 5.25293 0.669434 5.18762C0.729492 5.12231 0.812012 5.08643 0.900879 5.08643L1.16797 5.08643C1.5625 5.08643 1.88574 5.38049 1.92041 5.77051L2.20898 9.03931L2.20898 9.03931C2.26172 9.63171 2.75244 10.0784 3.35156 10.0784L5.85254 10.0784C6.33105 10.0784 6.72021 10.4648 6.72021 10.9397L6.72021 11.0831L6.72021 11.0831Z" fill="#696969" fill-opacity="1.000000" fill-rule="nonzero"/>
		<path id="Vector" d="M12.2251 14.3948C12.104 13.9333 11.6841 13.6111 11.2041 13.6111L11.0225 13.6111L11.0225 8.31555L14.6304 8.31555C14.8379 8.31555 15.0327 8.22375 15.1641 8.06384C15.2954 7.90393 15.3467 7.69629 15.3047 7.49414C15.1787 6.88586 14.6333 6.44434 14.0078 6.44434L7.91699 6.44434C7.75488 6.44434 7.62402 6.57458 7.62402 6.73523C7.62402 6.89587 7.75488 7.02612 7.91699 7.02612L14.0078 7.02612C14.3564 7.02612 14.6606 7.27222 14.731 7.61133C14.7393 7.65259 14.7212 7.68225 14.71 7.69629C14.6982 7.71033 14.6729 7.73376 14.6304 7.73376L5.37012 7.73376C5.32812 7.73376 5.30225 7.71033 5.29102 7.69629C5.2793 7.68225 5.26123 7.65259 5.27002 7.61133C5.33984 7.27222 5.64404 7.02612 5.99268 7.02612L6.54297 7.02612C6.70459 7.02612 6.83594 6.89587 6.83594 6.73523C6.83594 6.57458 6.70459 6.44434 6.54297 6.44434L5.99268 6.44434C5.36719 6.44434 4.82178 6.88586 4.6958 7.49414C4.65381 7.69629 4.70557 7.90393 4.83691 8.06384C4.96826 8.22375 5.1626 8.31555 5.37012 8.31555L8.97803 8.31555L8.97803 13.6111L8.79639 13.6111C8.31641 13.6111 7.89648 13.9333 7.77588 14.3948L7.70703 14.6572C7.66309 14.8253 7.69922 15.0005 7.80615 15.1381C7.91309 15.2754 8.07471 15.3542 8.24951 15.3542L11.751 15.3542C11.9258 15.3542 12.0874 15.2755 12.1943 15.1381C12.3018 15.0006 12.3374 14.8253 12.2935 14.6572L12.2251 14.3948ZM9.56396 8.31555L10.437 8.31555L10.437 13.6111L9.56396 13.6111L9.56396 8.31555ZM8.28223 14.7725L8.34277 14.5413C8.39648 14.3361 8.58301 14.1929 8.79639 14.1929L11.2041 14.1929C11.4175 14.1929 11.604 14.3361 11.6577 14.5413L11.7183 14.7725L8.28223 14.7725Z" fill="#696969" fill-opacity="1.000000" fill-rule="nonzero"/>
	</g>
</svg>
