<svg width="16.000000" height="16.000000" viewBox="0 0 16 16" fill="none" xmlns="http://www.w3.org/2000/svg" xmlns:xlink="http://www.w3.org/1999/xlink">
	<desc>
			Created with Pixso.
	</desc>
	<defs>
		<clipPath id="clip1987_25898">
			<rect id="coaxial" width="16.000000" height="16.000000" fill="white" fill-opacity="0"/>
		</clipPath>
	</defs>
	<rect id="coaxial" width="16.000000" height="16.000000" fill="#FFFFFF" fill-opacity="0"/>
	<g clip-path="url(#clip1987_25898)">
		<path id="Vector" d="M5 6.28052L5 7.25C5.00391 7.28821 5.0127 7.32581 5.02637 7.36169L5.5 8.30896L5.5 15.5L7 15.5L7 8.30896L7.4751 7.36169C7.48828 7.32568 7.49658 7.28821 7.5 7.25L7.5 6.28052L7.74268 5.31079C7.74658 5.29065 7.74902 5.27039 7.75 5.25L7.75 2.75C7.75 2.68372 7.72363 2.62012 7.67676 2.57324C7.62988 2.52637 7.56641 2.5 7.5 2.5L7.25 2.5L7.25 1L6.5 1L6.5 0.75C6.5 0.683716 6.47363 0.620117 6.42676 0.573242C6.37988 0.526367 6.31641 0.5 6.25 0.5C6.18359 0.5 6.12012 0.526367 6.07324 0.573242C6.02637 0.620117 6 0.683716 6 0.75L6 1L5.25 1L5.25 2.5L5 2.5C4.93359 2.5 4.87012 2.52637 4.82324 2.57324C4.77637 2.62012 4.75 2.68372 4.75 2.75L4.75 5.25C4.75098 5.27039 4.75342 5.29065 4.75732 5.31079L5 6.28052ZM6.5 15L6 15L6 9.5L6.5 9.5L6.5 15ZM6.5 9L6 9L6 8.5L6.5 8.5L6.5 9ZM6.5957 8L5.9043 8L5.6543 7.5L6.8457 7.5L6.5957 8ZM7 7L5.5 7L5.5 6.5L7 6.5L7 7ZM7.05469 6L5.44531 6L5.32031 5.5L7.17969 5.5L7.05469 6ZM5.75 1.5L6.75 1.5L6.75 2.5L5.75 2.5L5.75 1.5ZM5.25 3L7.25 3L7.25 5L5.25 5L5.25 3Z" fill="#696969" fill-opacity="1.000000" fill-rule="nonzero"/>
		<path id="Vector" d="M5.75 4L6.75 4L6.75 4.5L5.75 4.5L5.75 4Z" fill="#696969" fill-opacity="1.000000" fill-rule="evenodd"/>
		<path id="Vector" d="M8.5 6.28052L8.5 7.25C8.50342 7.28821 8.51172 7.32568 8.5249 7.36169L9 8.30896L9 15.5L10.5 15.5L10.5 8.30896L10.9751 7.36169C10.9883 7.32568 10.9966 7.28821 11 7.25L11 6.28052L11.2427 5.31079C11.2466 5.29065 11.249 5.27039 11.25 5.25L11.25 2.75C11.25 2.68372 11.2236 2.62012 11.1768 2.57324C11.1299 2.52637 11.0664 2.5 11 2.5L10.75 2.5L10.75 1L10 1L10 0.75C10 0.683716 9.97363 0.620117 9.92676 0.573242C9.87988 0.526367 9.81641 0.5 9.75 0.5C9.68359 0.5 9.62012 0.526367 9.57324 0.573242C9.52637 0.620117 9.5 0.683716 9.5 0.75L9.5 1L8.75 1L8.75 2.5L8.5 2.5C8.43359 2.5 8.37012 2.52637 8.32324 2.57324C8.27637 2.62012 8.25 2.68372 8.25 2.75L8.25 5.25C8.25098 5.27039 8.25342 5.29065 8.25732 5.31079L8.5 6.28052ZM10 15L9.5 15L9.5 9.5L10 9.5L10 15ZM10 9L9.5 9L9.5 8.5L10 8.5L10 9ZM10.0957 8L9.4043 8L9.1543 7.5L10.3457 7.5L10.0957 8ZM10.5 7L9 7L9 6.5L10.5 6.5L10.5 7ZM10.5547 6L8.94531 6L8.82031 5.5L10.6797 5.5L10.5547 6ZM9.25 1.5L10.25 1.5L10.25 2.5L9.25 2.5L9.25 1.5ZM8.75 3L10.75 3L10.75 5L8.75 5L8.75 3Z" fill="#696969" fill-opacity="1.000000" fill-rule="nonzero"/>
		<path id="Vector" d="M9.25 4L10.25 4L10.25 4.5L9.25 4.5L9.25 4Z" fill="#696969" fill-opacity="1.000000" fill-rule="evenodd"/>
	</g>
</svg>
