<svg width="20.000000" height="20.000000" viewBox="0 0 20 20" fill="none" xmlns="http://www.w3.org/2000/svg" xmlns:xlink="http://www.w3.org/1999/xlink">
	<desc>
			Created with Pixso.
	</desc>
	<defs>
		<clipPath id="clip1987_25809">
			<rect id="file 1" width="20.000000" height="20.000000" fill="white" fill-opacity="0"/>
		</clipPath>
	</defs>
	<rect id="file 1" width="20.000000" height="20.000000" fill="#FFFFFF" fill-opacity="0"/>
	<g clip-path="url(#clip1987_25809)">
		<path id="Vector" d="M12.8877 0.115509C12.7959 0.0189209 12.6704 -0.0390625 12.54 -0.0390625L4.73779 -0.0390625C3.29834 -0.0390625 2.10986 1.14456 2.10986 2.58408L2.10986 17.3377C2.10986 18.7773 3.29834 19.961 4.73779 19.961L15.3271 19.961C16.7671 19.961 17.9551 18.7773 17.9551 17.3377L17.9551 5.62273C17.9551 5.49715 17.8975 5.37645 17.8149 5.28459L12.8877 0.115509ZM13.0278 1.66626L16.3271 5.13002L14.1821 5.13002C13.5444 5.13002 13.0278 4.61794 13.0278 3.98026L13.0278 1.66626ZM15.3271 18.9948L4.73779 18.9948C3.83447 18.9948 3.07617 18.246 3.07617 17.3377L3.07617 2.58408C3.07617 1.68076 3.82959 0.927124 4.73779 0.927124L12.0615 0.927124L12.0615 3.98026C12.0615 5.15413 13.0083 6.09621 14.1821 6.09621L16.9893 6.09621L16.9893 17.3377C16.9893 18.246 16.2354 18.9948 15.3271 18.9948Z" fill="#696969" fill-opacity="1.000000" fill-rule="nonzero"/>
		<path id="Vector" d="M14.0083 15.6615L6.05664 15.6615C5.79102 15.6615 5.57373 15.8788 5.57373 16.1446C5.57373 16.4103 5.79102 16.6277 6.05664 16.6277L14.0132 16.6277C14.2788 16.6277 14.4966 16.4103 14.4966 16.1446C14.4966 15.8788 14.2788 15.6615 14.0083 15.6615Z" fill="#696969" fill-opacity="1.000000" fill-rule="nonzero"/>
		<path id="Vector" d="M9.67969 13.9272C9.77148 14.0238 9.89746 14.0817 10.0322 14.0817C10.168 14.0817 10.2935 14.0238 10.3853 13.9272L13.2158 10.8885C13.3994 10.6952 13.3853 10.386 13.1919 10.2074C12.9985 10.0238 12.6895 10.0381 12.5107 10.2315L10.5156 12.3715L10.5156 7.09625C10.5156 6.83044 10.2979 6.61316 10.0322 6.61316C9.7666 6.61316 9.54932 6.83044 9.54932 7.09625L9.54932 12.3715L7.55908 10.2315C7.37549 10.0383 7.0708 10.0238 6.87793 10.2074C6.68457 10.3909 6.66992 10.6953 6.85352 10.8885L9.67969 13.9272Z" fill="#696969" fill-opacity="1.000000" fill-rule="nonzero"/>
	</g>
</svg>
