<svg width="10.000000" height="5.906555" viewBox="0 0 10 5.90656" fill="none" xmlns="http://www.w3.org/2000/svg" xmlns:xlink="http://www.w3.org/1999/xlink">
	<desc>
			Created with Pixso.
	</desc>
	<defs/>
	<path id="Vector" d="M9.83984 0.493652L9.5127 0.163818C9.40918 0.060791 9.27246 0.00408936 9.12598 0.00408936C8.97949 0.00408936 8.8418 0.060791 8.73926 0.163818L5.00195 3.90057L1.26172 0.159668C1.1582 0.0566406 1.02148 0 0.875 0C0.728516 0 0.59082 0.0566406 0.487305 0.159668L0.160156 0.487488C-0.0537109 0.700684 -0.0537109 1.04791 0.160156 1.26105L4.61426 5.73108C4.7168 5.83405 4.85449 5.90656 5.00195 5.90656L5.00391 5.90656C5.15039 5.90656 5.28711 5.83392 5.39062 5.73108L9.83984 1.27319C9.94336 1.17023 10 1.02893 10 0.882446C10 0.73584 9.94336 0.596497 9.83984 0.493652Z" fill="#696969" fill-opacity="1.000000" fill-rule="nonzero"/>
</svg>
