<svg width="14.000000" height="14.099976" viewBox="0 0 14 14.1" fill="none" xmlns="http://www.w3.org/2000/svg" xmlns:xlink="http://www.w3.org/1999/xlink">
	<desc>
			Created with Pixso.
	</desc>
	<defs>
		<clipPath id="clip1987_25880">
			<rect id="dryer" width="14.000000" height="14.100000" fill="white" fill-opacity="0"/>
		</clipPath>
	</defs>
	<rect id="dryer" width="14.000000" height="14.100000" fill="#FFFFFF" fill-opacity="0"/>
	<g clip-path="url(#clip1987_25880)">
		<path id="Vector" d="M3.0625 4.81989C3.771 4.81989 4.34766 4.23926 4.34766 3.52551C4.34766 2.81183 3.771 2.2312 3.0625 2.2312C2.354 2.2312 1.77734 2.81183 1.77734 3.52551C1.77734 4.23926 2.354 4.81989 3.0625 4.81989ZM3.0625 3.05737C3.31885 3.05737 3.52734 3.2674 3.52734 3.52551C3.52734 3.78369 3.31885 3.99371 3.0625 3.99371C2.80615 3.99371 2.59766 3.78369 2.59766 3.52551C2.59766 3.2674 2.80615 3.05737 3.0625 3.05737Z" fill="#696969" fill-opacity="1.000000" fill-rule="nonzero"/>
		<path id="Vector" d="M11.1973 1.57208L9.01904 1.35272C2.69922 0.40979 3.10938 0.468506 3.0625 0.468506C1.37402 0.468506 0 1.83978 0 3.52533C0 4.1261 0.174805 4.68695 0.475586 5.15997C0.483398 5.19226 0.841309 6.45245 2.23047 11.3497C2.28076 11.5271 2.44189 11.6494 2.625 11.6494L2.87109 11.6494L2.87109 13.2191C2.87109 13.4472 3.05469 13.6321 3.28125 13.6321C3.50781 13.6321 3.69141 13.4472 3.69141 13.2191L3.69141 11.6494L4.15625 11.6494C4.38281 11.6494 4.56641 11.4644 4.56641 11.2363L4.56641 6.3623L9.01904 5.69794L11.1973 5.47858C11.4067 5.45746 11.5664 5.27972 11.5664 5.0675L11.5664 1.98315C11.5664 1.77094 11.4067 1.5932 11.1973 1.57208ZM3.03369 1.29486L8.55859 2.1192L8.55859 4.9314L3.03369 5.7558C1.81055 5.74036 0.820312 4.74567 0.820312 3.52533C0.820312 2.30499 1.81055 1.3103 3.03369 1.29486ZM3.74609 10.8232L2.93457 10.8232L1.63037 6.22662C2.05811 6.45343 2.54541 6.58215 3.0625 6.58215C3.10547 6.58215 3.07324 6.58508 3.74609 6.48468L3.74609 10.8232ZM10.7461 4.69366L9.37891 4.83136L9.37891 2.2193L10.7461 2.35699L10.7461 4.69366Z" fill="#696969" fill-opacity="1.000000" fill-rule="nonzero"/>
		<path id="Vector" d="M12.9062 3.05737L13.5898 3.05737C13.8164 3.05737 14 2.87244 14 2.64429C14 2.41614 13.8164 2.2312 13.5898 2.2312L12.9062 2.2312C12.6797 2.2312 12.4961 2.41614 12.4961 2.64429C12.4961 2.87244 12.6797 3.05737 12.9062 3.05737Z" fill="#696969" fill-opacity="1.000000" fill-rule="nonzero"/>
		<path id="Vector" d="M13.5898 3.99365L12.9062 3.99365C12.6797 3.99365 12.4961 4.17859 12.4961 4.40674C12.4961 4.63489 12.6797 4.81982 12.9062 4.81982L13.5898 4.81982C13.8164 4.81982 14 4.63489 14 4.40674C14 4.17859 13.8164 3.99365 13.5898 3.99365Z" fill="#696969" fill-opacity="1.000000" fill-rule="nonzero"/>
	</g>
</svg>
