<svg width="16.000000" height="16.000000" viewBox="0 0 16 16" fill="none" xmlns="http://www.w3.org/2000/svg" xmlns:xlink="http://www.w3.org/1999/xlink">
	<desc>
			Created with Pixso.
	</desc>
	<defs>
		<clipPath id="clip1987_25995">
			<rect id="grass 1" width="16.000000" height="16.000000" fill="white" fill-opacity="0"/>
		</clipPath>
	</defs>
	<rect id="grass 1" width="16.000000" height="16.000000" fill="#FFFFFF" fill-opacity="0"/>
	<g clip-path="url(#clip1987_25995)">
		<path id="Vector" d="M0.124023 5.43756C1.17773 6.22797 2.13818 7.13843 2.94873 8.1109C2.1665 7.83942 1.30078 7.68756 0.472656 7.68756L0.311523 7.68756C0.173828 7.68756 0.0522461 7.77771 0.0126953 7.90948C-0.0273438 8.04132 0.0234375 8.18372 0.138184 8.26007C0.297363 8.40076 2.27734 9.41309 2.84717 11.4873C1.95654 11.6785 1.2749 12.4061 1.14648 13.3125L0.311523 13.3125C0.13916 13.3125 -0.000976562 13.4524 -0.000976562 13.625C-0.000976562 13.7976 0.13916 13.9375 0.311523 13.9375L3.93652 13.9375C4.10938 13.9375 4.24902 13.7976 4.24902 13.625C4.24902 13.4524 4.10938 13.3125 3.93652 13.3125L1.78027 13.3125C1.91943 12.6221 2.51172 12.0961 3.2417 12.0641C3.66553 12.0451 4.07617 12.197 4.38525 12.4901C4.53369 12.6302 4.77441 12.5933 4.87354 12.4148C5.30664 11.634 6.13135 11.125 7.06152 11.125C7.8501 11.125 8.55322 11.4871 9.01514 12.0654C8.76416 12.3707 8.62402 12.7553 8.62402 13.1562C8.62402 13.2087 8.62646 13.2607 8.63135 13.3125L6.74902 13.3125C6.57666 13.3125 6.43652 13.4524 6.43652 13.625C6.43652 13.7976 6.57666 13.9375 6.74902 13.9375L15.6865 13.9375C15.8589 13.9375 15.999 13.7976 15.999 13.625C15.999 13.4524 15.8589 13.3125 15.6865 13.3125L14.8516 13.3125C14.7231 12.406 14.0415 11.6783 13.1509 11.4872C13.7207 9.41394 15.6973 8.40399 15.8599 8.26001C15.9746 8.18365 16.0254 8.04126 15.9858 7.90948C15.9458 7.77771 15.8242 7.68756 15.6865 7.68756L15.5254 7.68756C14.7837 7.68756 13.9951 7.80914 13.2861 8.02484C14.4136 6.39514 15.6938 5.59277 15.874 5.43756C15.9907 5.35004 16.0312 5.1933 15.9717 5.06C15.9121 4.92676 15.7686 4.85248 15.625 4.8811C13.7808 5.24994 12.0903 6.17078 10.8076 7.43683C10.9888 6.04987 11.3979 4.7132 12.0283 3.45233C12.0889 3.33197 12.0649 3.18671 11.9702 3.09161C11.875 2.99652 11.7295 2.97284 11.6094 3.03302C9.94971 3.86279 8.6333 5.33582 8.02979 7.20361C7.06299 5.09375 5.47119 3.30627 3.47217 2.10706C3.34912 2.03326 3.19189 2.05267 3.09033 2.15405C2.98926 2.25543 2.96973 2.41284 3.04346 2.53577C4.104 4.39111 4.79834 5.20111 5.33008 6.85425C3.96875 5.5697 2.10352 4.875 0.311523 4.875C0.177246 4.875 0.0576172 4.96106 0.0151367 5.08862C-0.0273438 5.21631 0.0166016 5.35681 0.124023 5.43756ZM4.52246 11.8028C4.21289 11.5964 3.85547 11.4729 3.48145 11.4442C3.20459 10.3149 2.45312 9.20984 1.40234 8.37842C2.24609 8.49609 3.0752 8.76691 3.74121 9.15131C4.22656 9.8515 4.63574 10.5772 4.96045 11.3123C4.79688 11.4605 4.65039 11.6243 4.52246 11.8028ZM14.2178 13.3125L9.26025 13.3125C9.25293 13.261 9.24902 13.2089 9.24902 13.1562C9.24902 12.8392 9.38672 12.5381 9.62598 12.3301C9.82471 12.1575 10.0791 12.0625 10.3428 12.0625C10.6646 12.0625 10.9688 12.2033 11.1772 12.4488C11.1772 12.4489 11.1772 12.449 11.1772 12.4491C11.2915 12.5835 11.4966 12.5964 11.627 12.4764C11.627 12.4764 11.627 12.4764 11.627 12.4763C11.9336 12.1937 12.3379 12.0456 12.7568 12.0641C13.4868 12.0961 14.0786 12.6221 14.2178 13.3125ZM12.5166 11.4441C12.2695 11.4632 12.0288 11.5239 11.8047 11.6226C11.9561 10.687 12.2739 9.77094 12.7529 8.89026C13.2935 8.64392 13.9409 8.46564 14.5981 8.37671C13.5459 9.20825 12.7935 10.3141 12.5166 11.4441ZM14.2847 5.92383C12.6611 7.43378 11.4917 9.44653 11.1689 11.6492C10.9189 11.512 10.6357 11.4376 10.3428 11.4376C10.043 11.4376 9.75049 11.5164 9.49316 11.6627C9.3877 11.5323 9.27246 11.4105 9.14697 11.2983C9.31592 10.9287 9.5918 9.82098 10.6509 8.53357C11.5962 7.38403 12.8735 6.47455 14.2847 5.92383ZM11.0518 4.09381C10.5151 5.40704 10.1973 6.789 10.1045 8.21533C9.62158 8.81604 9.22656 9.46637 8.92676 10.1539C8.81787 9.48297 8.64893 8.82172 8.42383 8.18146C8.73584 6.52643 9.69092 5.05707 11.0518 4.09381ZM4.32568 3.45782C5.90479 4.71478 7.11963 6.39789 7.80713 8.31055C8.0791 9.06567 8.26709 9.85297 8.36719 10.6507L8.38477 10.7929C7.97461 10.6004 7.52637 10.5 7.06152 10.5C6.8501 10.5 6.64111 10.5215 6.43652 10.563L6.43652 9.91876C6.43652 6.33362 4.65771 4.09711 4.32568 3.45782ZM5.6582 8.17743C5.75977 8.75018 5.81152 9.33557 5.81152 9.91876L5.81152 10.7606C5.6958 10.8112 5.5835 10.8685 5.4751 10.9326C4.5376 8.86969 3.04639 7.04944 1.30127 5.57617C3.05225 5.8446 4.68848 6.80548 5.6582 8.17743Z" fill="#696969" fill-opacity="1.000000" fill-rule="nonzero"/>
		<path id="Vector" d="M5.65479 13.6248C5.65479 13.7974 5.51465 13.9373 5.34229 13.9373C5.16992 13.9373 5.02979 13.7974 5.02979 13.6248C5.02979 13.4521 5.16992 13.3123 5.34229 13.3123C5.51465 13.3123 5.65479 13.4521 5.65479 13.6248Z" fill="#696969" fill-opacity="1.000000" fill-rule="evenodd"/>
	</g>
</svg>
