<svg width="382.000000" height="106.000000" viewBox="0 0 382 106" fill="none" xmlns="http://www.w3.org/2000/svg" xmlns:xlink="http://www.w3.org/1999/xlink">
	<desc>
			Created with Pixso.
	</desc>
	<defs/>
	<path id="Cleanliness" d="M5.85156 15.0854Q4.39551 15.0854 3.22656 14.4429Q2.05762 13.7969 1.39111 12.6553Q0.728027 11.5137 0.728027 10.0986Q0.728027 8.68701 1.39111 7.54541Q2.05762 6.40381 3.2334 5.76123Q4.40918 5.11523 5.86523 5.11523Q6.95898 5.11523 7.88184 5.48096Q8.80469 5.84326 9.45068 6.54395L8.79102 7.20361Q7.64258 6.0415 5.89258 6.0415Q4.73047 6.0415 3.77686 6.57471Q2.82666 7.10449 2.28662 8.03076Q1.75 8.95361 1.75 10.0986Q1.75 11.2471 2.28662 12.1733Q2.82666 13.0962 3.77686 13.6294Q4.73047 14.1592 5.89258 14.1592Q7.65967 14.1592 8.79102 12.9834L9.45068 13.6431Q8.80469 14.3403 7.875 14.7129Q6.94531 15.0854 5.85156 15.0854ZM11.4537 4.61279L12.4449 4.61279L12.4449 15L11.4537 15L11.4537 4.61279ZM21.6284 11.6265L15.4692 11.6265Q15.5547 12.7749 16.351 13.4824Q17.1508 14.1865 18.3676 14.1865Q19.0547 14.1865 19.6289 13.9438Q20.2031 13.6978 20.6235 13.2227L21.1806 13.8652Q20.6919 14.4531 19.957 14.7607Q19.2221 15.0684 18.3403 15.0684Q17.2055 15.0684 16.3305 14.5864Q15.4555 14.1045 14.9633 13.25Q14.4746 12.3955 14.4746 11.3188Q14.4746 10.2388 14.9428 9.3877Q15.4145 8.5332 16.2314 8.05811Q17.0517 7.57959 18.0737 7.57959Q19.0957 7.57959 19.9057 8.05811Q20.7192 8.5332 21.1806 9.38086Q21.6455 10.2251 21.6455 11.3188L21.6284 11.6265ZM18.0737 8.43408Q17.0107 8.43408 16.2895 9.11426Q15.5683 9.79102 15.4692 10.8848L20.6919 10.8848Q20.5927 9.79102 19.8716 9.11426Q19.1504 8.43408 18.0737 8.43408ZM26.0394 7.57959Q27.4818 7.57959 28.2509 8.30078Q29.0233 9.02197 29.0233 10.437L29.0233 15L28.0697 15L28.0697 13.8516Q27.7347 14.4258 27.0819 14.7471Q26.4325 15.0684 25.537 15.0684Q24.3031 15.0684 23.5751 14.4805Q22.847 13.8926 22.847 12.9287Q22.847 11.9888 23.5272 11.4146Q24.2074 10.8403 25.6908 10.8403L28.0287 10.8403L28.0287 10.3926Q28.0287 9.44238 27.4955 8.94678Q26.9657 8.44775 25.9403 8.44775Q25.243 8.44775 24.597 8.68018Q23.9545 8.90918 23.493 9.31592L23.0453 8.57422Q23.6024 8.09912 24.3851 7.83936Q25.1713 7.57959 26.0394 7.57959ZM25.6908 14.2856Q26.5316 14.2856 27.1332 13.9028Q27.7347 13.5166 28.0287 12.7886L28.0287 11.5854L25.7181 11.5854Q23.828 11.5854 23.828 12.9014Q23.828 13.5439 24.3168 13.9165Q24.809 14.2856 25.6908 14.2856ZM35.4752 7.57959Q36.8629 7.57959 37.6798 8.38623Q38.5001 9.18945 38.5001 10.731L38.5001 15L37.5055 15L37.5055 10.8267Q37.5055 9.68164 36.9313 9.08008Q36.357 8.4751 35.2941 8.4751Q34.1046 8.4751 33.4108 9.18262Q32.7169 9.89014 32.7169 11.1377L32.7169 15L31.7257 15L31.7257 7.6377L32.6759 7.6377L32.6759 8.99463Q33.0826 8.32129 33.8038 7.95215Q34.525 7.57959 35.4752 7.57959ZM41.2037 4.61279L42.1949 4.61279L42.1949 15L41.2037 15L41.2037 4.61279ZM44.9697 7.6377L45.9609 7.6377L45.9609 15L44.9697 15L44.9697 7.6377ZM45.4721 6.02441Q45.1645 6.02441 44.9526 5.81592Q44.7441 5.60742 44.7441 5.31348Q44.7441 5.0332 44.9526 4.82471Q45.1645 4.61279 45.4721 4.61279Q45.7798 4.61279 45.9883 4.81787Q46.2002 5.01953 46.2002 5.29639Q46.2002 5.60742 45.9883 5.81592Q45.7798 6.02441 45.4721 6.02441ZM52.4852 7.57959Q53.8729 7.57959 54.6898 8.38623Q55.5101 9.18945 55.5101 10.731L55.5101 15L54.5155 15L54.5155 10.8267Q54.5155 9.68164 53.9413 9.08008Q53.367 8.4751 52.3041 8.4751Q51.1146 8.4751 50.4208 9.18262Q49.7269 9.89014 49.7269 11.1377L49.7269 15L48.7357 15L48.7357 7.6377L49.6859 7.6377L49.6859 8.99463Q50.0926 8.32129 50.8138 7.95215Q51.535 7.57959 52.4852 7.57959ZM64.6504 11.6265L58.4912 11.6265Q58.5767 12.7749 59.373 13.4824Q60.1728 14.1865 61.3896 14.1865Q62.0767 14.1865 62.6509 13.9438Q63.2251 13.6978 63.6455 13.2227L64.2026 13.8652Q63.7139 14.4531 62.979 14.7607Q62.2441 15.0684 61.3623 15.0684Q60.2275 15.0684 59.3525 14.5864Q58.4775 14.1045 57.9853 13.25Q57.4966 12.3955 57.4966 11.3188Q57.4966 10.2388 57.9648 9.3877Q58.4365 8.5332 59.2534 8.05811Q60.0737 7.57959 61.0957 7.57959Q62.1177 7.57959 62.9277 8.05811Q63.7412 8.5332 64.2026 9.38086Q64.6675 10.2251 64.6675 11.3188L64.6504 11.6265ZM61.0957 8.43408Q60.0327 8.43408 59.3115 9.11426Q58.5903 9.79102 58.4912 10.8848L63.7139 10.8848Q63.6147 9.79102 62.8936 9.11426Q62.1724 8.43408 61.0957 8.43408ZM68.6699 15.0684Q67.7744 15.0684 66.954 14.812Q66.1371 14.5522 65.6723 14.1592L66.1235 13.3765Q66.5849 13.7388 67.2822 13.9712Q67.9828 14.2036 68.7416 14.2036Q69.7465 14.2036 70.2285 13.8892Q70.7138 13.5713 70.7138 12.9971Q70.7138 12.5903 70.4472 12.3613Q70.1806 12.1289 69.7739 12.0127Q69.3705 11.8931 68.6972 11.7803Q67.8017 11.6128 67.2548 11.4385Q66.7114 11.2607 66.3251 10.8438Q65.9389 10.4233 65.9389 9.68164Q65.9389 8.75537 66.7079 8.16748Q67.4804 7.57959 68.851 7.57959Q69.5654 7.57959 70.2797 7.771Q70.9941 7.95898 71.4555 8.2666L71.0214 9.06299Q70.1122 8.43408 68.851 8.43408Q67.9008 8.43408 67.4155 8.77246Q66.9335 9.10742 66.9335 9.65088Q66.9335 10.0713 67.207 10.3242Q67.4804 10.5771 67.8837 10.6968Q68.2905 10.813 69.0048 10.9395Q69.8867 11.1069 70.4199 11.2778Q70.9531 11.4453 71.329 11.8521Q71.7084 12.2554 71.7084 12.9697Q71.7084 13.937 70.9018 14.5044Q70.0986 15.0684 68.6699 15.0684ZM75.5159 15.0684Q74.6204 15.0684 73.8 14.812Q72.9831 14.5522 72.5183 14.1592L72.9695 13.3765Q73.4309 13.7388 74.1282 13.9712Q74.8288 14.2036 75.5876 14.2036Q76.5925 14.2036 77.0745 13.8892Q77.5598 13.5713 77.5598 12.9971Q77.5598 12.5903 77.2932 12.3613Q77.0266 12.1289 76.6199 12.0127Q76.2165 11.8931 75.5432 11.7803Q74.6477 11.6128 74.1008 11.4385Q73.5574 11.2607 73.1711 10.8438Q72.7849 10.4233 72.7849 9.68164Q72.7849 8.75537 73.5539 8.16748Q74.3264 7.57959 75.697 7.57959Q76.4114 7.57959 77.1257 7.771Q77.8401 7.95898 78.3015 8.2666L77.8674 9.06299Q76.9582 8.43408 75.697 8.43408Q74.7468 8.43408 74.2615 8.77246Q73.7795 9.10742 73.7795 9.65088Q73.7795 10.0713 74.053 10.3242Q74.3264 10.5771 74.7297 10.6968Q75.1365 10.813 75.8508 10.9395Q76.7327 11.1069 77.2659 11.2778Q77.7991 11.4453 78.175 11.8521Q78.5544 12.2554 78.5544 12.9697Q78.5544 13.937 77.7478 14.5044Q76.9446 15.0684 75.5159 15.0684Z" fill="#696969" fill-opacity="1.000000" fill-rule="evenodd"/>
	<rect id="Rectangle 100" x="194.000000" y="7.500000" rx="2.500000" width="150.000000" height="5.000000" fill="#E6E9EC" fill-opacity="1.000000"/>
	<rect id="Rectangle 102" x="194.000000" y="7.500000" rx="2.500000" width="119.000000" height="5.000000" fill="#0061DF" fill-opacity="1.000000"/>
	<path id="4.7" d="M370.478 12.4229L368.519 12.4229L368.519 15L367.511 15L367.511 12.4229L361.981 12.4229L361.981 11.6948L367.172 5.20068L368.294 5.20068L363.283 11.5273L367.538 11.5273L367.538 9.26123L368.519 9.26123L368.519 11.5273L370.478 11.5273L370.478 12.4229ZM372.437 15.0684Q372.13 15.0684 371.911 14.8462Q371.696 14.6206 371.696 14.2993Q371.696 13.978 371.911 13.7627Q372.13 13.5439 372.437 13.5439Q372.745 13.5439 372.967 13.7627Q373.193 13.978 373.193 14.2993Q373.193 14.6206 372.967 14.8462Q372.745 15.0684 372.437 15.0684ZM381.397 5.20068L381.397 5.91504L377.295 15L376.205 15L380.234 6.09619L375.196 6.09619L375.196 7.93164L374.202 7.93164L374.202 5.20068L381.397 5.20068Z" fill="#0D263B" fill-opacity="1.000000" fill-rule="evenodd"/>
	<path id="Communication" d="M5.85156 58.0854Q4.39551 58.0854 3.22656 57.4429Q2.05762 56.7969 1.39111 55.6553Q0.728027 54.5137 0.728027 53.0986Q0.728027 51.687 1.39111 50.5454Q2.05762 49.4038 3.2334 48.7612Q4.40918 48.1152 5.86523 48.1152Q6.95898 48.1152 7.88184 48.481Q8.80469 48.8433 9.45068 49.5439L8.79102 50.2036Q7.64258 49.0415 5.89258 49.0415Q4.73047 49.0415 3.77686 49.5747Q2.82666 50.1045 2.28662 51.0308Q1.75 51.9536 1.75 53.0986Q1.75 54.2471 2.28662 55.1733Q2.82666 56.0962 3.77686 56.6294Q4.73047 57.1592 5.89258 57.1592Q7.65967 57.1592 8.79102 55.9834L9.45068 56.6431Q8.80469 57.3403 7.875 57.7129Q6.94531 58.0854 5.85156 58.0854ZM14.1395 58.0684Q13.0765 58.0684 12.222 57.5864Q11.3675 57.1045 10.8753 56.25Q10.3866 55.3955 10.3866 54.3188Q10.3866 53.2388 10.8753 52.3877Q11.3675 51.5332 12.222 51.0581Q13.0765 50.5796 14.1395 50.5796Q15.2025 50.5796 16.057 51.0581Q16.9115 51.5332 17.3934 52.3877Q17.8788 53.2388 17.8788 54.3188Q17.8788 55.3955 17.3934 56.25Q16.9115 57.1045 16.057 57.5864Q15.2025 58.0684 14.1395 58.0684ZM14.1395 57.1865Q14.9256 57.1865 15.5477 56.8311Q16.1698 56.4756 16.5184 55.8193Q16.8705 55.1597 16.8705 54.3188Q16.8705 53.478 16.5184 52.8218Q16.1698 52.1621 15.5477 51.8066Q14.9256 51.4478 14.1395 51.4478Q13.3568 51.4478 12.7313 51.8066Q12.1092 52.1621 11.7503 52.8218Q11.3949 53.478 11.3949 54.3188Q11.3949 55.1597 11.7503 55.8193Q12.1092 56.4756 12.7313 56.8311Q13.3568 57.1865 14.1395 57.1865ZM29.0904 50.5796Q30.4781 50.5796 31.2676 51.3794Q32.0606 52.1758 32.0606 53.731L32.0606 58L31.0659 58L31.0659 53.8267Q31.0659 52.6816 30.5122 52.0801Q29.9585 51.4751 28.9536 51.4751Q27.8052 51.4751 27.1455 52.1826Q26.4893 52.8901 26.4893 54.1377L26.4893 58L25.4947 58L25.4947 53.8267Q25.4947 52.6816 24.9409 52.0801Q24.3872 51.4751 23.3653 51.4751Q22.2305 51.4751 21.564 52.1826Q20.9009 52.8901 20.9009 54.1377L20.9009 58L19.9097 58L19.9097 50.6377L20.8599 50.6377L20.8599 51.981Q21.253 51.3076 21.9502 50.9453Q22.6509 50.5796 23.5635 50.5796Q24.4864 50.5796 25.1631 50.9727Q25.8433 51.3623 26.1817 52.1348Q26.585 51.4067 27.3472 50.9932Q28.1128 50.5796 29.0904 50.5796ZM43.9444 50.5796Q45.3321 50.5796 46.1216 51.3794Q46.9146 52.1758 46.9146 53.731L46.9146 58L45.9199 58L45.9199 53.8267Q45.9199 52.6816 45.3662 52.0801Q44.8125 51.4751 43.8076 51.4751Q42.6592 51.4751 41.9995 52.1826Q41.3433 52.8901 41.3433 54.1377L41.3433 58L40.3487 58L40.3487 53.8267Q40.3487 52.6816 39.7949 52.0801Q39.2412 51.4751 38.2193 51.4751Q37.0845 51.4751 36.418 52.1826Q35.7549 52.8901 35.7549 54.1377L35.7549 58L34.7637 58L34.7637 50.6377L35.7139 50.6377L35.7139 51.981Q36.107 51.3076 36.8042 50.9453Q37.5049 50.5796 38.4175 50.5796Q39.3404 50.5796 40.0171 50.9727Q40.6973 51.3623 41.0357 52.1348Q41.439 51.4067 42.2012 50.9932Q42.9668 50.5796 43.9444 50.5796ZM56.252 50.6377L56.252 58L55.2984 58L55.2984 56.6567Q54.9087 57.3267 54.2217 57.6992Q53.5347 58.0684 52.6529 58.0684Q51.2105 58.0684 50.3765 57.2651Q49.5459 56.4585 49.5459 54.9067L49.5459 50.6377L50.5405 50.6377L50.5405 54.8076Q50.5405 55.9697 51.1148 56.5713Q51.689 57.1729 52.752 57.1729Q53.9141 57.1729 54.584 56.4688Q55.2573 55.7612 55.2573 54.5L55.2573 50.6377L56.252 50.6377ZM62.7892 50.5796Q64.1769 50.5796 64.9938 51.3862Q65.8141 52.1895 65.8141 53.731L65.8141 58L64.8195 58L64.8195 53.8267Q64.8195 52.6816 64.2453 52.0801Q63.671 51.4751 62.6081 51.4751Q61.4186 51.4751 60.7248 52.1826Q60.0309 52.8901 60.0309 54.1377L60.0309 58L59.0397 58L59.0397 50.6377L59.9899 50.6377L59.9899 51.9946Q60.3966 51.3213 61.1178 50.9521Q61.839 50.5796 62.7892 50.5796ZM68.5177 50.6377L69.5089 50.6377L69.5089 58L68.5177 58L68.5177 50.6377ZM69.0201 49.0244Q68.7125 49.0244 68.5006 48.8159Q68.2921 48.6074 68.2921 48.3135Q68.2921 48.0332 68.5006 47.8247Q68.7125 47.6128 69.0201 47.6128Q69.3278 47.6128 69.5363 47.8179Q69.7482 48.0195 69.7482 48.2964Q69.7482 48.6074 69.5363 48.8159Q69.3278 49.0244 69.0201 49.0244ZM75.3325 58.0684Q74.2422 58.0684 73.3809 57.5933Q72.5195 57.1182 72.0274 56.2568Q71.5386 55.3955 71.5386 54.3188Q71.5386 53.2388 72.0274 52.3877Q72.5195 51.5332 73.3809 51.0581Q74.2422 50.5796 75.3325 50.5796Q76.2861 50.5796 77.0347 50.9521Q77.7832 51.3213 78.2173 52.0356L77.4756 52.5415Q77.1133 51.9946 76.5527 51.7212Q75.9922 51.4478 75.3325 51.4478Q74.5361 51.4478 73.897 51.8066Q73.2612 52.1621 72.9024 52.8218Q72.5469 53.478 72.5469 54.3188Q72.5469 55.1733 72.9024 55.8262Q73.2612 56.4756 73.897 56.8311Q74.5361 57.1865 75.3325 57.1865Q75.9922 57.1865 76.5527 56.9233Q77.1133 56.6567 77.4756 56.1099L78.2173 56.6123Q77.7832 57.3267 77.0278 57.6992Q76.2725 58.0684 75.3325 58.0684ZM82.7394 50.5796Q84.1818 50.5796 84.9509 51.3008Q85.7233 52.022 85.7233 53.437L85.7233 58L84.7697 58L84.7697 56.8516Q84.4347 57.4258 83.7819 57.7471Q83.1325 58.0684 82.237 58.0684Q81.0031 58.0684 80.2751 57.4805Q79.5471 56.8926 79.5471 55.9287Q79.5471 54.9888 80.2272 54.4146Q80.9074 53.8403 82.3908 53.8403L84.7287 53.8403L84.7287 53.3926Q84.7287 52.4424 84.1955 51.9468Q83.6657 51.4478 82.6403 51.4478Q81.943 51.4478 81.2971 51.6802Q80.6545 51.9092 80.193 52.3159L79.7453 51.5742Q80.3024 51.0991 81.0851 50.8394Q81.8713 50.5796 82.7394 50.5796ZM82.3908 57.2856Q83.2316 57.2856 83.8332 56.9028Q84.4347 56.5166 84.7287 55.7886L84.7287 54.5854L82.4181 54.5854Q80.528 54.5854 80.528 55.9014Q80.528 56.5439 81.0168 56.9165Q81.509 57.2856 82.3908 57.2856ZM92.3017 57.5522Q92.0214 57.8052 91.6078 57.9385Q91.1977 58.0684 90.7465 58.0684Q89.7109 58.0684 89.1503 57.5112Q88.5932 56.9507 88.5932 55.9287L88.5932 51.4751L87.2773 51.4751L87.2773 50.6377L88.5932 50.6377L88.5932 49.0244L89.5844 49.0244L89.5844 50.6377L91.8266 50.6377L91.8266 51.4751L89.5844 51.4751L89.5844 55.8706Q89.5844 56.5303 89.9125 56.8755Q90.2441 57.2173 90.8593 57.2173Q91.1669 57.2173 91.454 57.1182Q91.7411 57.019 91.953 56.8379L92.3017 57.5522ZM94.1097 50.6377L95.1009 50.6377L95.1009 58L94.1097 58L94.1097 50.6377ZM94.6121 49.0244Q94.3045 49.0244 94.0926 48.8159Q93.8841 48.6074 93.8841 48.3135Q93.8841 48.0332 94.0926 47.8247Q94.3045 47.6128 94.6121 47.6128Q94.9198 47.6128 95.1283 47.8179Q95.3402 48.0195 95.3402 48.2964Q95.3402 48.6074 95.1283 48.8159Q94.9198 49.0244 94.6121 49.0244ZM100.884 58.0684Q99.8205 58.0684 98.966 57.5864Q98.1115 57.1045 97.6194 56.25Q97.1306 55.3955 97.1306 54.3188Q97.1306 53.2388 97.6194 52.3877Q98.1115 51.5332 98.966 51.0581Q99.8205 50.5796 100.884 50.5796Q101.947 50.5796 102.801 51.0581Q103.655 51.5332 104.137 52.3877Q104.623 53.2388 104.623 54.3188Q104.623 55.3955 104.137 56.25Q103.655 57.1045 102.801 57.5864Q101.947 58.0684 100.884 58.0684ZM100.884 57.1865Q101.67 57.1865 102.292 56.8311Q102.914 56.4756 103.262 55.8193Q103.614 55.1597 103.614 54.3188Q103.614 53.478 103.262 52.8218Q102.914 52.1621 102.292 51.8066Q101.67 51.4478 100.884 51.4478Q100.101 51.4478 99.4753 51.8066Q98.8532 52.1621 98.4944 52.8218Q98.1389 53.478 98.1389 54.3188Q98.1389 55.1597 98.4944 55.8193Q98.8532 56.4756 99.4753 56.8311Q100.101 57.1865 100.884 57.1865ZM110.403 50.5796Q111.791 50.5796 112.608 51.3862Q113.428 52.1895 113.428 53.731L113.428 58L112.433 58L112.433 53.8267Q112.433 52.6816 111.859 52.0801Q111.285 51.4751 110.222 51.4751Q109.033 51.4751 108.339 52.1826Q107.645 52.8901 107.645 54.1377L107.645 58L106.654 58L106.654 50.6377L107.604 50.6377L107.604 51.9946Q108.011 51.3213 108.732 50.9521Q109.453 50.5796 110.403 50.5796Z" fill="#696969" fill-opacity="1.000000" fill-rule="evenodd"/>
	<path id="Check-in" d="M5.85156 101.085Q4.39551 101.085 3.22656 100.443Q2.05762 99.7969 1.39111 98.6553Q0.728027 97.5137 0.728027 96.0986Q0.728027 94.687 1.39111 93.5454Q2.05762 92.4038 3.2334 91.7612Q4.40918 91.1152 5.86523 91.1152Q6.95898 91.1152 7.88184 91.481Q8.80469 91.8433 9.45068 92.5439L8.79102 93.2036Q7.64258 92.0415 5.89258 92.0415Q4.73047 92.0415 3.77686 92.5747Q2.82666 93.1045 2.28662 94.0308Q1.75 94.9536 1.75 96.0986Q1.75 97.2471 2.28662 98.1733Q2.82666 99.0962 3.77686 99.6294Q4.73047 100.159 5.89258 100.159Q7.65967 100.159 8.79102 98.9834L9.45068 99.6431Q8.80469 100.34 7.875 100.713Q6.94531 101.085 5.85156 101.085ZM15.2032 93.5796Q16.5909 93.5796 17.4078 94.3862Q18.2281 95.1895 18.2281 96.731L18.2281 101L17.2335 101L17.2335 96.8267Q17.2335 95.6816 16.6593 95.0801Q16.085 94.4751 15.0221 94.4751Q13.8326 94.4751 13.1388 95.1826Q12.4449 95.8901 12.4449 97.1377L12.4449 101L11.4537 101L11.4537 90.6128L12.4449 90.6128L12.4449 94.9229Q12.8516 94.2803 13.566 93.9316Q14.2804 93.5796 15.2032 93.5796ZM27.3684 97.6265L21.2092 97.6265Q21.2947 98.7749 22.091 99.4824Q22.8908 100.187 24.1076 100.187Q24.7947 100.187 25.3689 99.9438Q25.9431 99.6978 26.3635 99.2227L26.9206 99.8652Q26.4319 100.453 25.697 100.761Q24.9621 101.068 24.0803 101.068Q22.9455 101.068 22.0705 100.586Q21.1955 100.104 20.7033 99.25Q20.2146 98.3955 20.2146 97.3188Q20.2146 96.2388 20.6828 95.3877Q21.1545 94.5332 21.9714 94.0581Q22.7917 93.5796 23.8137 93.5796Q24.8357 93.5796 25.6457 94.0581Q26.4592 94.5332 26.9206 95.3809Q27.3855 96.2251 27.3855 97.3188L27.3684 97.6265ZM23.8137 94.4341Q22.7507 94.4341 22.0295 95.1143Q21.3083 95.791 21.2092 96.8848L26.4319 96.8848Q26.3327 95.791 25.6116 95.1143Q24.8904 94.4341 23.8137 94.4341ZM32.4645 101.068Q31.3742 101.068 30.5129 100.593Q29.6515 100.118 29.1593 99.2568Q28.6706 98.3955 28.6706 97.3188Q28.6706 96.2388 29.1593 95.3877Q29.6515 94.5332 30.5129 94.0581Q31.3742 93.5796 32.4645 93.5796Q33.4181 93.5796 34.1667 93.9521Q34.9152 94.3213 35.3493 95.0356L34.6076 95.5415Q34.2453 94.9946 33.6847 94.7212Q33.1242 94.4478 32.4645 94.4478Q31.6681 94.4478 31.029 94.8066Q30.3932 95.1621 30.0343 95.8218Q29.6789 96.478 29.6789 97.3188Q29.6789 98.1733 30.0343 98.8262Q30.3932 99.4756 31.029 99.8311Q31.6681 100.187 32.4645 100.187Q33.1242 100.187 33.6847 99.9233Q34.2453 99.6567 34.6076 99.1099L35.3493 99.6123Q34.9152 100.327 34.1598 100.699Q33.4045 101.068 32.4645 101.068ZM39.9132 97.3052L38.1769 98.9014L38.1769 101L37.1857 101L37.1857 90.6128L38.1769 90.6128L38.1769 97.6538L42.5724 93.6377L43.8063 93.6377L40.6549 96.6455L44.1002 101L42.8834 101L39.9132 97.3052ZM44.7448 96.772L48.4123 96.772L48.4123 97.6401L44.7448 97.6401L44.7448 96.772ZM50.6397 93.6377L51.6309 93.6377L51.6309 101L50.6397 101L50.6397 93.6377ZM51.1421 92.0244Q50.8345 92.0244 50.6226 91.8159Q50.4141 91.6074 50.4141 91.3135Q50.4141 91.0332 50.6226 90.8247Q50.8345 90.6128 51.1421 90.6128Q51.4498 90.6128 51.6582 90.8179Q51.8702 91.0195 51.8702 91.2964Q51.8702 91.6074 51.6582 91.8159Q51.4498 92.0244 51.1421 92.0244ZM58.1552 93.5796Q59.5429 93.5796 60.3598 94.3862Q61.1801 95.1895 61.1801 96.731L61.1801 101L60.1855 101L60.1855 96.8267Q60.1855 95.6816 59.6113 95.0801Q59.037 94.4751 57.9741 94.4751Q56.7846 94.4751 56.0908 95.1826Q55.3969 95.8901 55.3969 97.1377L55.3969 101L54.4057 101L54.4057 93.6377L55.3559 93.6377L55.3559 94.9946Q55.7626 94.3213 56.4838 93.9521Q57.205 93.5796 58.1552 93.5796Z" fill="#696969" fill-opacity="1.000000" fill-rule="evenodd"/>
	<rect id="Rectangle 103" x="194.000000" y="50.500000" rx="2.500000" width="150.000000" height="5.000000" fill="#E6E9EC" fill-opacity="1.000000"/>
	<rect id="Rectangle 104" x="194.000000" y="50.500000" rx="2.500000" width="133.000000" height="5.000000" fill="#0061DF" fill-opacity="1.000000"/>
	<path id="4.9" d="M370.03 55.4229L368.071 55.4229L368.071 58L367.063 58L367.063 55.4229L361.533 55.4229L361.533 54.6948L366.724 48.2007L367.846 48.2007L362.835 54.5273L367.09 54.5273L367.09 52.2612L368.071 52.2612L368.071 54.5273L370.03 54.5273L370.03 55.4229ZM371.989 58.0684Q371.682 58.0684 371.463 57.8462Q371.248 57.6206 371.248 57.2993Q371.248 56.978 371.463 56.7627Q371.682 56.5439 371.989 56.5439Q372.297 56.5439 372.519 56.7627Q372.745 56.978 372.745 57.2993Q372.745 57.6206 372.519 57.8462Q372.297 58.0684 371.989 58.0684ZM377.254 48.1152Q379.199 48.1152 380.235 49.397Q381.27 50.6787 381.27 53.0166Q381.27 54.6538 380.71 55.7886Q380.153 56.9233 379.144 57.5044Q378.136 58.0854 376.793 58.0854Q375.337 58.0854 374.469 57.5522L374.875 56.7388Q375.573 57.2036 376.779 57.2036Q378.403 57.2036 379.326 56.1748Q380.248 55.1426 380.248 53.1841Q380.248 52.8184 380.207 52.3877Q379.845 53.1841 379.045 53.625Q378.249 54.0659 377.213 54.0659Q376.246 54.0659 375.497 53.7036Q374.749 53.3379 374.328 52.6748Q373.908 52.0083 373.908 51.1265Q373.908 50.231 374.342 49.5439Q374.776 48.8569 375.538 48.4878Q376.301 48.1152 377.254 48.1152ZM377.367 53.2114Q378.109 53.2114 378.676 52.9312Q379.244 52.6509 379.565 52.1621Q379.886 51.6733 379.886 51.0684Q379.886 50.5112 379.585 50.0361Q379.285 49.5576 378.697 49.2637Q378.109 48.9697 377.295 48.9697Q376.232 48.9697 375.566 49.5508Q374.903 50.1318 374.903 51.0991Q374.903 52.063 375.566 52.6372Q376.232 53.2114 377.367 53.2114Z" fill="#0D263B" fill-opacity="1.000000" fill-rule="evenodd"/>
	<rect id="Rectangle 112" x="194.000000" y="93.500000" rx="2.500000" width="150.000000" height="5.000000" fill="#E6E9EC" fill-opacity="1.000000"/>
	<rect id="Rectangle 114" x="194.000000" y="93.500000" rx="2.500000" width="133.000000" height="5.000000" fill="#0061DF" fill-opacity="1.000000"/>
	<path id="4.9" d="M370.03 98.4229L368.071 98.4229L368.071 101L367.063 101L367.063 98.4229L361.533 98.4229L361.533 97.6948L366.724 91.2007L367.846 91.2007L362.835 97.5273L367.09 97.5273L367.09 95.2612L368.071 95.2612L368.071 97.5273L370.03 97.5273L370.03 98.4229ZM371.989 101.068Q371.682 101.068 371.463 100.846Q371.248 100.621 371.248 100.299Q371.248 99.978 371.463 99.7627Q371.682 99.5439 371.989 99.5439Q372.297 99.5439 372.519 99.7627Q372.745 99.978 372.745 100.299Q372.745 100.621 372.519 100.846Q372.297 101.068 371.989 101.068ZM377.254 91.1152Q379.199 91.1152 380.235 92.397Q381.27 93.6787 381.27 96.0166Q381.27 97.6538 380.71 98.7886Q380.153 99.9233 379.144 100.504Q378.136 101.085 376.793 101.085Q375.337 101.085 374.469 100.552L374.875 99.7388Q375.573 100.204 376.779 100.204Q378.403 100.204 379.326 99.1748Q380.248 98.1426 380.248 96.1841Q380.248 95.8184 380.207 95.3877Q379.845 96.1841 379.045 96.625Q378.249 97.0659 377.213 97.0659Q376.246 97.0659 375.497 96.7036Q374.749 96.3379 374.328 95.6748Q373.908 95.0083 373.908 94.1265Q373.908 93.231 374.342 92.5439Q374.776 91.8569 375.538 91.4878Q376.301 91.1152 377.254 91.1152ZM377.367 96.2114Q378.109 96.2114 378.676 95.9312Q379.244 95.6509 379.565 95.1621Q379.886 94.6733 379.886 94.0684Q379.886 93.5112 379.585 93.0361Q379.285 92.5576 378.697 92.2637Q378.109 91.9697 377.295 91.9697Q376.232 91.9697 375.566 92.5508Q374.903 93.1318 374.903 94.0991Q374.903 95.063 375.566 95.6372Q376.232 96.2114 377.367 96.2114Z" fill="#0D263B" fill-opacity="1.000000" fill-rule="evenodd"/>
</svg>
