<svg width="16.000000" height="16.000000" viewBox="0 0 16 16" fill="none" xmlns="http://www.w3.org/2000/svg" xmlns:xlink="http://www.w3.org/1999/xlink">
	<desc>
			Created with Pixso.
	</desc>
	<defs>
		<clipPath id="clip1987_25886">
			<rect id="dumbbell" width="16.000000" height="16.000000" fill="white" fill-opacity="0"/>
		</clipPath>
	</defs>
	<rect id="dumbbell" width="16.000000" height="16.000000" fill="#FFFFFF" fill-opacity="0"/>
	<g clip-path="url(#clip1987_25886)">
		<path id="Vector" d="M15.0625 6.4375L14.75 6.4375L14.75 5.03125C14.75 4.34192 14.189 3.78125 13.5 3.78125C13.2588 3.78125 13.0337 3.84973 12.8428 3.96838C12.7148 3.41406 12.2173 3 11.625 3L11.6245 3C10.9355 3 10.3745 3.56067 10.3745 4.25L10.3745 6.4375L5.62549 6.4375L5.62549 4.25C5.62549 3.56067 5.06445 3 4.375 3C3.78271 3 3.28516 3.41406 3.15723 3.96838C2.96631 3.84973 2.74121 3.78125 2.5 3.78125C1.81104 3.78125 1.25 4.34192 1.25 5.03125L1.25 6.4375L0.9375 6.4375C0.420898 6.4375 0 6.85815 0 7.375L0 8.625C0 9.14185 0.420898 9.5625 0.9375 9.5625L1.25 9.5625L1.25 10.9688C1.25 11.6581 1.81104 12.2188 2.5 12.2188C2.74121 12.2188 2.96631 12.1503 3.15723 12.0316C3.28516 12.5859 3.78271 13 4.375 13L4.37549 13C5.06445 13 5.62549 12.4393 5.62549 11.75L5.62549 9.5625L10.3745 9.5625L10.3745 11.75C10.3745 12.4393 10.9355 13 11.625 13C12.2173 13 12.7148 12.5859 12.8428 12.0316C13.0337 12.1503 13.2588 12.2188 13.5 12.2188C14.189 12.2188 14.75 11.6581 14.75 10.9688L14.75 9.5625L15.0625 9.5625C15.5791 9.5625 16 9.14185 16 8.625L16 7.375C16 6.85815 15.5791 6.4375 15.0625 6.4375ZM1.25 8.9375L0.9375 8.9375C0.765137 8.9375 0.625 8.79724 0.625 8.625L0.625 7.375C0.625 7.20276 0.765137 7.0625 0.9375 7.0625L1.25 7.0625L1.25 8.9375ZM3.125 10.9688C3.125 11.1412 3.05518 11.2975 2.94189 11.4106C2.82861 11.5238 2.67236 11.5938 2.5 11.5938C2.15527 11.5938 1.875 11.3135 1.875 10.9688L1.875 5.03125C1.875 4.68652 2.15527 4.40625 2.5 4.40625C2.84473 4.40625 3.125 4.68652 3.125 5.03125L3.125 10.9688ZM5.00049 11.75C5.00049 12.0947 4.71973 12.375 4.37549 12.375L4.375 12.375C4.03076 12.375 3.75 12.0947 3.75 11.75L3.75 4.25C3.75 3.90527 4.03076 3.625 4.37549 3.625C4.71973 3.625 5.00049 3.90527 5.00049 4.25L5.00049 11.75ZM10.373 7.6875L8.1875 7.6875C8.01514 7.6875 7.875 7.82751 7.875 8C7.875 8.17249 8.01514 8.3125 8.1875 8.3125L10.373 8.3125L10.373 8.9375L5.62402 8.9375L5.62402 7.0625L10.373 7.0625L10.373 7.6875ZM12.25 11.75C12.25 12.0947 11.9692 12.375 11.6245 12.375C11.2803 12.375 10.9995 12.0947 10.9995 11.75L10.9995 8.01599C10.9995 8.02283 10.999 8.02966 10.998 8.03625L10.998 7.96375C10.999 7.97034 10.9995 7.97717 10.9995 7.98401L10.9995 4.25C10.9995 3.90527 11.2803 3.625 11.6245 3.625L11.625 3.625C11.9692 3.625 12.25 3.90527 12.25 4.25L12.25 11.75ZM14.125 10.9688C14.125 11.3135 13.8447 11.5938 13.5 11.5938C13.1553 11.5938 12.875 11.3135 12.875 10.9688L12.875 5.03125C12.875 4.68652 13.1553 4.40625 13.5 4.40625C13.8447 4.40625 14.125 4.68652 14.125 5.03125L14.125 10.9688ZM15.375 8.625C15.375 8.79724 15.2349 8.9375 15.0625 8.9375L14.75 8.9375L14.75 7.0625L15.0625 7.0625C15.2349 7.0625 15.375 7.20276 15.375 7.375L15.375 8.625Z" fill="#696969" fill-opacity="1.000000" fill-rule="nonzero"/>
		<path id="Vector" d="M6.93848 8.3125C6.76611 8.3125 6.62598 8.17261 6.62598 8C6.62598 7.82739 6.76562 7.6875 6.93848 7.6875L6.93848 7.6875C7.11133 7.6875 7.25098 7.82739 7.25098 8C7.25098 8.17261 7.11133 8.3125 6.93848 8.3125Z" fill="#696969" fill-opacity="1.000000" fill-rule="nonzero"/>
	</g>
</svg>
