<svg width="60.000061" height="59.999023" viewBox="0 0 60.0001 59.999" fill="none" xmlns="http://www.w3.org/2000/svg" xmlns:xlink="http://www.w3.org/1999/xlink">
	<desc>
			Created with Pixso.
	</desc>
	<defs/>
	<path id="Vector" d="M25.3129 24.1401C21.9077 24.1401 19.4536 26.9897 19.4536 30.4492C19.4536 34.252 22.3803 36.7456 26.8105 40.5205C27.5825 41.1782 28.3809 41.8584 29.2288 42.6001C29.4496 42.7935 29.7249 42.8901 30.0003 42.8901C30.2757 42.8901 30.551 42.7935 30.7719 42.6001C31.6197 41.8584 32.4181 41.1782 33.1901 40.5205C37.6203 36.7456 40.5471 34.252 40.5471 30.4492C40.5471 26.9893 38.0923 24.1401 34.6877 24.1401C32.36 24.1401 30.8835 25.4692 30.0003 26.7529C29.1172 25.4692 27.6407 24.1401 25.3129 24.1401ZM31.1304 29.7236C31.1393 29.6914 32.0495 26.4839 34.6877 26.4839C36.692 26.4839 38.2033 28.1885 38.2033 30.4492C38.2033 33.1699 35.7442 35.2651 31.6701 38.7363C31.1295 39.1973 30.5762 39.6685 30.0003 40.1655C29.4244 39.6685 28.8711 39.1968 28.3305 38.7363C24.2564 35.2651 21.7973 33.1699 21.7973 30.4492C21.7973 28.1885 23.3086 26.4839 25.3129 26.4839C27.9174 26.4839 28.8297 29.5811 28.8711 29.7271C29.0118 30.2344 29.4737 30.5854 30.0003 30.5854C30.5281 30.5854 30.9908 30.2324 31.1304 29.7236Z" fill="#FFFFFF" fill-opacity="1.000000" fill-rule="nonzero"/>
	<path id="Vector" d="M15.938 11.9526C15.938 12.5996 15.4133 13.1245 14.7661 13.1245C14.1189 13.1245 13.5942 12.5996 13.5942 11.9526C13.5942 11.3057 14.1189 10.7808 14.7661 10.7808C15.4133 10.7808 15.938 11.3057 15.938 11.9526Z" fill="#FFFFFF" fill-opacity="1.000000" fill-rule="evenodd"/>
	<path id="Vector" d="M52.4742 27.8706C53.296 28.4971 54.2774 28.8276 55.3125 28.8276C57.8972 28.8276 59.9999 26.7251 59.9999 24.1401C59.9999 22.6641 59.3258 21.3042 58.1547 20.4126L52.2657 15.8867L52.2657 1.17188C52.2657 0.524902 51.741 0 51.0938 0L44.0626 0C43.4154 0 42.8908 0.524902 42.8908 1.17188L42.8908 8.68213L32.8386 0.957031C32.0168 0.331055 31.0354 0 30.0003 0C28.9652 0 27.9838 0.331055 27.1581 0.959961L18.2356 7.81689C17.7225 8.21143 17.6262 8.94727 18.0206 9.45996C18.4149 9.97314 19.1507 10.0698 19.6639 9.67529L28.5823 2.82129C28.9924 2.50879 29.4827 2.34375 30.0003 2.34375C30.5179 2.34375 31.0082 2.50879 31.4144 2.81836L56.7309 22.2744C57.319 22.7217 57.6562 23.4019 57.6562 24.1401C57.6562 25.4326 56.6048 26.4839 55.3125 26.4839C54.7949 26.4839 54.3046 26.3188 53.8987 26.0098C52.586 25.0005 31.7737 8.99316 30.7148 8.17871C30.3085 7.86621 29.7462 7.854 29.3267 8.14893C29.2736 8.18604 6.10803 26.0049 6.10559 26.0068C5.63577 26.3652 5.04843 26.5303 4.4494 26.4722C3.289 26.3594 2.65948 25.814 2.40802 24.7021C2.1973 23.7705 2.52765 22.8398 3.27402 22.271L11.3047 16.0996C11.8178 15.7051 11.9142 14.9692 11.5197 14.4565C11.1252 13.9434 10.3894 13.8467 9.8764 14.2412L1.84961 20.4102C0.368378 21.5391 -0.293488 23.3818 0.122162 25.2192C0.597595 27.3213 2.05423 28.5947 4.22263 28.8047C5.4115 28.9209 6.58475 28.5889 7.52695 27.8706L7.52518 27.8682C7.57498 27.8315 7.64294 27.7803 7.73505 27.71L7.73505 43.7881C5.05371 44.4312 2.98022 46.6128 2.48511 49.375C0.939209 50.4683 0.000762939 52.2441 0.000762939 54.1396C0.000762939 57.3706 2.62924 59.999 5.86008 59.999L54.1407 59.999C57.3716 59.999 60.0001 57.3706 60.0001 54.1396C60.0001 52.2441 59.0616 50.4683 57.5157 49.375C57.0205 46.6113 54.9456 44.4292 52.2658 43.7876L52.2658 27.7104L52.4742 27.8706ZM45.2345 2.34375L49.9219 2.34375L49.9219 14.0859L45.2345 10.4834L45.2345 2.34375ZM18.7504 57.6558L5.85995 57.6558C3.92148 57.6558 2.34439 56.0786 2.34439 54.1401C2.34439 52.8877 3.03519 51.7202 4.14716 51.0933C4.48102 50.9048 4.70157 50.5649 4.73801 50.1836C4.96713 47.7773 6.95917 45.937 9.37567 45.937C10.8847 45.937 12.3126 46.6802 13.195 47.9248C13.4716 48.3149 13.9573 48.498 14.4225 48.3872C14.7229 48.3154 14.9886 48.2808 15.235 48.2808C17.1274 48.2808 18.7274 49.8008 18.7503 51.7549C18.6505 52.4595 19.0271 52.9414 19.5158 53.1113C20.4228 53.4272 21.0943 54.2852 21.0943 55.3115C21.0941 56.604 20.0428 57.6558 18.7504 57.6558ZM38.9318 51.252C38.2074 51.6616 37.6096 52.2529 37.1943 52.9683L22.8059 52.9683C22.3905 52.2524 21.7928 51.6616 21.0688 51.252C21.0492 51.041 21.018 50.8315 20.9758 50.6235L39.0249 50.6235C38.9827 50.8315 38.9516 51.041 38.9318 51.252ZM22.8088 57.6558C23.2088 56.9658 23.4379 56.165 23.4379 55.312L36.5627 55.312C36.5627 56.165 36.7919 56.9658 37.1918 57.6558L22.8088 57.6558ZM55.2627 50.1836C55.299 50.5649 55.5197 50.9048 55.8535 51.0933C56.9655 51.7202 57.6563 52.8877 57.6563 54.1401C57.6563 56.0786 56.0792 57.6558 54.1407 57.6558L41.2503 57.6558C39.9579 57.6558 38.9066 56.604 38.9066 55.312C38.9066 54.2837 39.5792 53.4272 40.485 53.1113C40.9779 52.9399 41.3498 52.4556 41.2505 51.7549C41.2735 49.8057 42.8689 48.2808 44.7659 48.2808C45.0122 48.2808 45.278 48.3154 45.5783 48.3872C46.0432 48.4976 46.5293 48.3149 46.8058 47.9248C47.6884 46.6802 49.1161 45.937 50.6252 45.937C53.0407 45.937 55.0334 47.7749 55.2627 50.1836ZM49.9219 43.6304C48.1706 43.8086 46.5404 44.6465 45.3674 45.9722C45.1627 45.9487 44.963 45.937 44.7657 45.937C42.9169 45.937 41.1801 46.8203 40.0807 48.2808L19.92 48.2808C18.8211 46.8208 17.0839 45.937 15.2348 45.937C15.0375 45.937 14.8378 45.9487 14.6332 45.9722C13.4602 44.6465 11.8301 43.8086 10.0786 43.6304L10.0786 25.9082C11.7797 24.5996 28.0428 12.0913 30.0002 10.5859L49.9219 25.9082L49.9219 43.6304Z" fill="#FFFFFF" fill-opacity="1.000000" fill-rule="nonzero"/>
</svg>
