<svg width="15.000000" height="12.598145" viewBox="0 0 15 12.5981" fill="none" xmlns="http://www.w3.org/2000/svg" xmlns:xlink="http://www.w3.org/1999/xlink">
	<desc>
			Created with Pixso.
	</desc>
	<defs/>
	<path id="Vector" d="M13.7574 1.16406C12.1262 -0.388184 9.47107 -0.388184 7.83929 1.16406L7.5 1.48633L7.16107 1.16406C5.52917 -0.388184 2.87445 -0.387695 1.24249 1.16406C0.441223 1.92627 0 2.93701 0 4.01025C0 5.0835 0.441223 6.09424 1.24261 6.85693L7.1377 12.4536C7.23914 12.5498 7.36963 12.5981 7.5 12.5981C7.63037 12.5981 7.76074 12.5498 7.8623 12.4531L13.7574 6.85693C14.5586 6.09473 15 5.0835 15 4.01025C15 2.93701 14.5586 1.92627 13.7574 1.16406ZM13.0321 6.09375L7.5 11.3462L1.96808 6.09375C1.37769 5.53271 1.05261 4.79248 1.05261 4.01025C1.05261 3.22803 1.37769 2.48828 1.96808 1.92676C2.58386 1.34082 3.39264 1.04834 4.2016 1.04834C5.01068 1.04834 5.81982 1.34131 6.43561 1.92725L7.13739 2.59375C7.34052 2.78711 7.6593 2.78711 7.86249 2.59375L8.56439 1.92676C9.79614 0.754883 11.8002 0.754883 13.0319 1.92676C13.6221 2.48828 13.9474 3.22803 13.9474 4.01025C13.9474 4.79248 13.6221 5.53223 13.0321 6.09375Z" fill="#696969" fill-opacity="1.000000" fill-rule="nonzero"/>
</svg>
