<svg width="72.857910" height="18.292480" viewBox="0 0 72.8579 18.2925" fill="none" xmlns="http://www.w3.org/2000/svg" xmlns:xlink="http://www.w3.org/1999/xlink">
	<desc>
			Created with Pixso.
	</desc>
	<defs/>
	<path id="Houzing" d="M47.8826 3.03027C47.4559 3.03027 47.0912 2.88379 46.7882 2.59082Q46.5528 2.3584 46.4393 2.07715Q46.3338 1.81494 46.3338 1.51074Q46.3338 1.21484 46.4363 0.960449Q46.5496 0.679199 46.7882 0.44873C47.0974 0.149414 47.4621 0 47.8826 0C48.2968 0 48.6554 0.149414 48.9584 0.44873Q49.197 0.679199 49.3103 0.960449Q49.4128 1.21484 49.4128 1.51074Q49.4128 1.81494 49.3073 2.07715Q49.1938 2.3584 48.9584 2.59082C48.6554 2.88379 48.2968 3.03027 47.8826 3.03027ZM8.44876 0.622559L11.231 0.622559L11.231 13.8521L8.44876 13.8521L8.44876 8.41357L2.78226 8.41357L2.78226 13.8521L0 13.8521L0 0.622559L2.78226 0.622559L2.78226 6.02393L8.44876 6.02393L8.44876 0.622559ZM18.7431 14.0352Q17.2221 14.0352 16.0443 13.4585Q15.4402 13.1626 14.9678 12.7246Q14.5192 12.3086 14.1895 11.7646Q14.1826 11.7529 14.1759 11.7417Q13.5218 10.6323 13.5218 9.13721Q13.5218 7.51367 14.2671 6.38135Q14.5602 5.93604 14.9685 5.56641Q15.2238 5.33545 15.5064 5.14502Q16.826 4.25732 18.7431 4.25732Q20.6831 4.25732 22.0096 5.15918Q22.2811 5.34375 22.527 5.56641Q22.9353 5.93604 23.2284 6.38135Q23.9738 7.51367 23.9738 9.13721Q23.9738 10.7734 23.2223 11.915Q22.9311 12.3574 22.527 12.7261Q22.2811 12.9482 22.0096 13.1328Q20.6831 14.0352 18.7431 14.0352ZM57.6019 4.25732C58.7457 4.25732 59.6237 4.54102 60.2357 5.10889C60.8478 5.67041 61.1539 6.47266 61.1539 7.5166L61.1539 13.8521L58.4737 13.8521L58.4737 8.08398C58.4737 7.49219 58.3129 7.05859 57.9914 6.78418C57.6761 6.50928 57.268 6.37207 56.7672 6.37207C56.4766 6.37207 56.2108 6.41162 55.9696 6.49121C55.7285 6.57031 55.5059 6.6958 55.3019 6.8667C55.0979 7.03125 54.9371 7.26611 54.8196 7.57129C54.7083 7.87646 54.6496 8.23975 54.6434 8.66064L54.6434 13.8521L51.9725 13.8521L51.9725 4.44043L54.6434 4.44043L54.6434 5.48389C55.3483 4.66602 56.3344 4.25732 57.6019 4.25732ZM70.3168 4.44043L72.8579 4.44043L72.8579 13.147C72.8579 14.0444 72.7373 14.8257 72.4962 15.4907C72.2613 16.1558 71.9181 16.6899 71.4668 17.0928Q71.2954 17.248 71.1092 17.3828Q70.5597 17.7803 69.8809 17.9995Q68.972 18.2925 67.8035 18.2925C65.2871 18.2925 63.6487 17.3188 62.8882 15.3716L65.1047 14.438C65.3767 15.0542 65.7199 15.5088 66.1341 15.8022C66.5484 16.0952 67.0708 16.2417 67.7015 16.2417Q68.7447 16.2417 69.3484 15.7266Q70.1777 15.0186 70.1777 13.3394L70.1777 12.2407C69.8932 12.625 69.4914 12.9365 68.972 13.1743C68.4589 13.4062 67.8962 13.5225 67.2841 13.5225C66.6968 13.5225 66.1372 13.4126 65.6055 13.1929C65.08 12.9668 64.6194 12.6558 64.2237 12.2588C63.8279 11.856 63.5126 11.3618 63.2777 10.7759C63.0489 10.1899 62.9345 9.55518 62.9345 8.87158C62.9345 8.18164 63.0489 7.54688 63.2777 6.96729C63.5126 6.38135 63.8279 5.89307 64.2237 5.50244C64.6255 5.11182 65.0892 4.80664 65.6148 4.58691C66.1465 4.36719 66.7091 4.25732 67.3027 4.25732C67.9581 4.25732 68.5454 4.38818 69.0648 4.65088C69.5903 4.90723 69.986 5.25195 70.2519 5.68555L70.3168 4.44043ZM32.2834 4.44043L34.9543 4.44043L34.9543 13.8521L32.4225 13.8521L32.3576 12.7168Q32.0433 13.1084 31.6478 13.3843Q30.713 14.0352 29.325 14.0352C28.1811 14.0352 27.3032 13.7544 26.6911 13.1929C26.079 12.625 25.7729 11.8193 25.7729 10.7759L25.7729 4.44043L28.4532 4.44043L28.4532 10.208C28.4532 10.7939 28.6108 11.2241 28.9261 11.499C29.2477 11.7739 29.6619 11.9111 30.1689 11.9111C30.7872 11.9111 31.2911 11.7339 31.6806 11.3799C32.0763 11.02 32.2772 10.437 32.2834 9.63135L32.2834 4.44043ZM44.683 4.44043L40.4911 11.8193L44.5531 11.8193L44.5531 13.8521L36.6979 13.8521L40.8713 6.47266L37.0225 6.47266L37.0225 4.44043L44.683 4.44043ZM46.5193 13.8521L46.5193 4.44043L49.2088 4.44043L49.2088 13.8521L46.5193 13.8521ZM18.7153 11.9385C19.4943 11.9385 20.1219 11.6821 20.5979 11.1694Q20.7328 11.0259 20.8425 10.8657Q21.3213 10.165 21.3213 9.13721C21.3213 8.29443 21.0802 7.61719 20.5979 7.10449Q20.3591 6.84717 20.0694 6.67627Q19.493 6.33545 18.7153 6.33545Q18.0497 6.33545 17.5277 6.60938Q17.1696 6.79688 16.879 7.11377Q16.76 7.24365 16.6611 7.38721L16.6611 7.38721Q16.1742 8.09424 16.1742 9.13721C16.1742 9.97314 16.4091 10.6509 16.879 11.1694Q17.1617 11.4736 17.5082 11.6577L17.5083 11.6577Q18.0373 11.9385 18.7153 11.9385ZM66.2176 10.666C66.6937 11.1479 67.278 11.3892 67.9704 11.3892Q68.5161 11.3892 68.9722 11.187Q69.3843 11.0044 69.7232 10.6567C70.1993 10.1685 70.4373 9.57324 70.4373 8.87158C70.4373 8.16357 70.1993 7.56543 69.7232 7.07715Q69.4059 6.74707 69.0189 6.56592Q68.5465 6.34473 67.9704 6.34473Q67.3619 6.34473 66.8701 6.58398Q66.5075 6.76074 66.2083 7.06787C65.7446 7.54395 65.5128 8.14502 65.5128 8.87158Q65.5128 9.51758 65.7692 10.0371Q65.9379 10.3789 66.2176 10.666Z" fill="#FFFFFF" fill-opacity="1.000000" fill-rule="evenodd"/>
</svg>
