<svg width="16.000000" height="16.000000" viewBox="0 0 16 16" fill="none" xmlns="http://www.w3.org/2000/svg" xmlns:xlink="http://www.w3.org/1999/xlink">
	<desc>
			Created with Pixso.
	</desc>
	<defs>
		<clipPath id="clip1987_25981">
			<rect id="laundry" width="16.000000" height="16.000000" fill="white" fill-opacity="0"/>
		</clipPath>
	</defs>
	<rect id="laundry" width="16.000000" height="16.000000" fill="#FFFFFF" fill-opacity="0"/>
	<g clip-path="url(#clip1987_25981)">
		<path id="Vector" d="M13.8691 0L2.15381 0C1.38867 0 0.766602 0.621094 0.766602 1.38464L0.766602 14.6154C0.766602 15.3789 1.38867 16 2.15381 16L13.8691 16C14.6343 16 15.2563 15.3789 15.2563 14.6154L15.2563 1.38464C15.2563 0.621094 14.6343 0 13.8691 0L13.8691 0ZM1.69141 1.38464C1.69141 1.13013 1.89893 0.923096 2.15381 0.923096L13.8691 0.923096C14.124 0.923096 14.3315 1.13013 14.3315 1.38464L14.3315 3.23071L1.69141 3.23071L1.69141 1.38464ZM14.3315 14.6154C14.3315 14.8699 14.124 15.0769 13.8691 15.0769L2.15381 15.0769C1.89893 15.0769 1.69141 14.8699 1.69141 14.6154L1.69141 4.15381L14.3315 4.15381L14.3315 14.6154Z" fill="#696969" fill-opacity="1.000000" fill-rule="nonzero"/>
		<path id="Vector" d="M11.0952 1.61548L10.1704 1.61548C9.91504 1.61548 9.70801 1.82214 9.70801 2.07703C9.70801 2.33191 9.91504 2.53857 10.1704 2.53857L11.0952 2.53857C11.3506 2.53857 11.5576 2.33191 11.5576 2.07703C11.5576 1.82214 11.3506 1.61548 11.0952 1.61548Z" fill="#696969" fill-opacity="1.000000" fill-rule="nonzero"/>
		<path id="Vector" d="M13.561 1.61548L12.6362 1.61548C12.3809 1.61548 12.1738 1.82214 12.1738 2.07703C12.1738 2.33191 12.3809 2.53857 12.6362 2.53857L13.561 2.53857C13.8164 2.53857 14.0234 2.33191 14.0234 2.07703C14.0234 1.82214 13.8164 1.61548 13.561 1.61548Z" fill="#696969" fill-opacity="1.000000" fill-rule="nonzero"/>
		<path id="Vector" d="M3.54248 9.61536C3.54248 12.0754 5.54785 14.0769 8.0127 14.0769C10.4775 14.0769 12.4829 12.0754 12.4829 9.61536C12.4829 9.49561 12.478 9.37695 12.4688 9.25964C12.4688 9.25903 12.4688 9.25842 12.4688 9.25793C12.2856 6.96436 10.3569 5.15381 8.0127 5.15381C5.66846 5.15381 3.73975 6.96436 3.55664 9.25793C3.55664 9.25842 3.55664 9.25903 3.55664 9.25964C3.54736 9.37695 3.54248 9.49561 3.54248 9.61536ZM8.0127 13.1538C6.13721 13.1538 4.59717 11.6927 4.4751 9.85132C4.5752 9.89233 4.66357 9.94653 4.76465 10.0084C5.03711 10.176 5.37695 10.3846 6.00879 10.3846C6.64062 10.3846 6.97998 10.1761 7.25293 10.0085C7.479 9.86963 7.64258 9.76929 8.0127 9.76929C8.38281 9.76929 8.5459 9.86963 8.77197 10.0085C9.04492 10.176 9.38477 10.3846 10.0166 10.3846C10.6484 10.3846 10.9883 10.1761 11.2607 10.0085C11.3618 9.94653 11.4502 9.89233 11.5498 9.85132C11.4282 11.6927 9.88818 13.1538 8.0127 13.1538ZM8.0127 6.0769C9.72363 6.0769 11.1558 7.29297 11.4863 8.90466C11.1738 8.97864 10.9595 9.10974 10.7764 9.22229C10.5503 9.36121 10.3867 9.46155 10.0166 9.46155C9.64648 9.46155 9.48291 9.36121 9.25684 9.22229C8.98389 9.05469 8.64453 8.84607 8.0127 8.84607C7.38086 8.84607 7.04102 9.05469 6.76807 9.22229C6.54199 9.36121 6.37891 9.46155 6.00879 9.46155C5.63867 9.46155 5.4751 9.36121 5.24902 9.22229C5.06592 9.10962 4.85156 8.97852 4.53906 8.90466C4.86963 7.29297 6.30176 6.0769 8.0127 6.0769Z" fill="#696969" fill-opacity="1.000000" fill-rule="nonzero"/>
	</g>
</svg>
