<svg width="16.000000" height="16.000000" viewBox="0 0 16 16" fill="none" xmlns="http://www.w3.org/2000/svg" xmlns:xlink="http://www.w3.org/1999/xlink">
	<desc>
			Created with Pixso.
	</desc>
	<defs>
		<clipPath id="clip1987_25951">
			<rect id="liquid-soap" width="16.000000" height="16.000000" fill="white" fill-opacity="0"/>
		</clipPath>
	</defs>
	<rect id="liquid-soap" width="16.000000" height="16.000000" fill="#FFFFFF" fill-opacity="0"/>
	<g clip-path="url(#clip1987_25951)">
		<path id="Vector" d="M5.79102 12.406C5.66162 12.406 5.55664 12.5109 5.55664 12.6404L5.55664 13.6505C5.55664 13.78 5.66162 13.8849 5.79102 13.8849L10.2104 13.8849C10.3398 13.8849 10.4448 13.78 10.4448 13.6505L10.4448 12.6404C10.4448 12.5109 10.3398 12.406 10.2104 12.406L5.79102 12.406ZM9.97607 13.4161L6.02539 13.4161L6.02539 12.8748L9.97607 12.8748L9.97607 13.4161Z" fill="#696969" fill-opacity="1.000000" fill-rule="nonzero"/>
		<path id="Vector" d="M9.49805 3.54126L9.49805 2.75977C9.49805 2.63037 9.39307 2.52539 9.26367 2.52539L8.74023 2.52539L8.74023 1.47888L10.0215 1.47888C10.4292 1.47888 10.7607 1.14722 10.7607 0.739441C10.7607 0.331665 10.4292 0 10.0215 0L6.00879 0C5.81104 0 5.62549 0.0769043 5.48584 0.216614L4.6709 1.03149C4.52979 1.17273 4.45215 1.36047 4.45215 1.56024C4.45215 1.75995 4.52979 1.94775 4.6709 2.08899C4.8125 2.23016 5 2.30798 5.19971 2.30798C5.39941 2.30798 5.5874 2.23016 5.72852 2.08899L6.33838 1.47888L7.26172 1.47888L7.26172 2.52539L6.73828 2.52539C6.60889 2.52539 6.50391 2.63037 6.50391 2.75977L6.50391 3.54126C5.09668 3.62738 3.97852 4.79889 3.97852 6.22717L3.97852 12.5956C3.97852 12.725 4.0835 12.83 4.21289 12.83C4.34229 12.83 4.44727 12.725 4.44727 12.5956L4.44727 6.22717C4.44727 5.00153 5.44434 4.00439 6.66992 4.00439L9.33203 4.00439C10.5576 4.00439 11.5547 5.00153 11.5547 6.22717L11.5547 7.13904C11.5547 7.26849 11.6597 7.37341 11.7891 7.37341C11.9185 7.37341 12.0234 7.26849 12.0234 7.13904L12.0234 6.22717C12.0234 4.79889 10.9053 3.62744 9.49805 3.54126ZM6.2417 1.01013C6.1792 1.01013 6.11963 1.03485 6.07568 1.0788L5.39697 1.75751C5.34424 1.81024 5.27441 1.83923 5.19971 1.83923C5.12549 1.83923 5.05518 1.81018 5.00244 1.75745C4.94971 1.70477 4.9209 1.6347 4.9209 1.56018C4.9209 1.48566 4.94971 1.41559 5.00244 1.36292L5.81738 0.547974C5.86865 0.496887 5.93652 0.46875 6.00879 0.46875L10.0215 0.46875C10.1704 0.46875 10.292 0.59021 10.292 0.739441C10.292 0.888733 10.1704 1.01019 10.0215 1.01019L6.2417 1.01019L6.2417 1.01013ZM7.73047 1.47888L8.27148 1.47888L8.27148 2.52539L7.73047 2.52539L7.73047 1.47888ZM9.0293 2.99414L9.0293 3.53564L6.97266 3.53564L6.97266 2.99414L9.0293 2.99414Z" fill="#696969" fill-opacity="1.000000" fill-rule="nonzero"/>
		<path id="Vector" d="M11.7891 8.00146C11.6597 8.00146 11.5547 8.10638 11.5547 8.23584L11.5547 14.8187C11.5547 15.2115 11.2349 15.5311 10.8418 15.5311L5.16016 15.5311C4.76709 15.5311 4.44727 15.2115 4.44727 14.8187L4.44727 13.6924C4.44727 13.563 4.34229 13.458 4.21289 13.458C4.0835 13.458 3.97852 13.563 3.97852 13.6924L3.97852 14.8187C3.97852 15.47 4.50879 15.9999 5.16016 15.9999L10.8418 15.9999C11.4937 15.9999 12.0234 15.47 12.0234 14.8187L12.0234 8.23584C12.0234 8.10638 11.9185 8.00146 11.7891 8.00146Z" fill="#696969" fill-opacity="1.000000" fill-rule="nonzero"/>
		<path id="Vector" d="M8.00049 6.4397C6.54834 6.4397 5.36719 7.62109 5.36719 9.07318C5.36719 10.5253 6.54883 11.7067 8.00049 11.7067C9.45264 11.7067 10.6343 10.5253 10.6343 9.07318C10.6343 7.62109 9.45264 6.4397 8.00049 6.4397ZM8.00049 11.238C6.80713 11.238 5.83594 10.2669 5.83594 9.07324C5.83594 7.87958 6.80713 6.90851 8.00049 6.90851C9.19434 6.90851 10.1655 7.87958 10.1655 9.07324C10.1655 10.2668 9.19434 11.238 8.00049 11.238Z" fill="#696969" fill-opacity="1.000000" fill-rule="nonzero"/>
		<path id="Vector" d="M8.01611 7.51318C7.95117 7.51318 7.88916 7.54016 7.84473 7.58777C7.66553 7.77997 6.77148 8.7702 6.77148 9.3891C6.77148 10.0753 7.32959 10.6336 8.01611 10.6336C8.70215 10.6336 9.26074 10.0753 9.26074 9.3891C9.26074 8.7702 8.3667 7.77997 8.1875 7.58777C8.14307 7.54022 8.08105 7.51318 8.01611 7.51318ZM8.01611 10.1649C7.58838 10.1649 7.24023 9.81683 7.24023 9.3891C7.24023 9.1131 7.65088 8.52704 8.01611 8.09991C8.38135 8.52704 8.79199 9.1131 8.79199 9.3891C8.79199 9.81689 8.44385 10.1649 8.01611 10.1649Z" fill="#696969" fill-opacity="1.000000" fill-rule="nonzero"/>
	</g>
</svg>
