<svg width="18.000000" height="18.000000" viewBox="0 0 18 18" fill="none" xmlns="http://www.w3.org/2000/svg" xmlns:xlink="http://www.w3.org/1999/xlink">
	<desc>
			Created with Pixso.
	</desc>
	<defs>
		<clipPath id="clip1987_23052">
			<rect id="pin" width="18.000000" height="18.000000" fill="white" fill-opacity="0"/>
		</clipPath>
	</defs>
	<rect id="pin" width="18.000000" height="18.000000" fill="#FFFFFF" fill-opacity="0"/>
	<g clip-path="url(#clip1987_23052)">
		<path id="Vector" d="M9 3.86914C7.15739 3.86914 5.65829 5.36816 5.65829 7.21094C5.65829 9.05347 7.15739 10.5525 9 10.5525C10.8426 10.5525 12.3417 9.05347 12.3417 7.21094C12.3417 5.36816 10.8427 3.86914 9 3.86914ZM9 9.14551C7.93321 9.14551 7.06532 8.27759 7.06532 7.21094C7.06532 6.14404 7.93321 5.27612 9 5.27612C10.0668 5.27612 10.9347 6.14404 10.9347 7.21094C10.9347 8.27759 10.0668 9.14551 9 9.14551Z" fill="#FFFFFF" fill-opacity="1.000000" fill-rule="nonzero"/>
		<path id="Vector" d="M9.00014 0C5.02393 0 1.78906 3.23486 1.78906 7.21118L1.78906 7.4104C1.78906 9.42139 2.94197 11.7646 5.21588 14.3752C6.86429 16.2678 8.48967 17.5874 8.55801 17.6428L9.00014 18L9.44226 17.6428C9.51064 17.5874 11.136 16.2678 12.7844 14.3752C15.0583 11.7646 16.2112 9.42139 16.2112 7.4104L16.2112 7.21118C16.2112 3.23486 12.9763 0 9.00014 0ZM14.8042 7.4104C14.8042 10.8088 10.4254 14.9226 9.00014 16.1714C7.57445 14.9224 3.19609 10.8086 3.19609 7.4104L3.19609 7.21118C3.19609 4.01074 5.79979 1.40698 9.00014 1.40698C12.2005 1.40698 14.8042 4.01074 14.8042 7.21118L14.8042 7.4104Z" fill="#FFFFFF" fill-opacity="1.000000" fill-rule="nonzero"/>
	</g>
</svg>
