<svg width="30.387863" height="36.000000" viewBox="0 0 30.3879 36" fill="none" xmlns="http://www.w3.org/2000/svg" xmlns:xlink="http://www.w3.org/1999/xlink">
	<desc>
			Created with Pixso.
	</desc>
	<defs/>
	<path id="Vector" d="M7.32205 17.7036L7.32205 10.4233L15.1946 5.96338C17.8217 7.44971 20.443 8.93652 23.0672 10.4233L23.0672 21.6982L8.94887 21.6982L1.63391 21.6982C1.36661 21.1001 1.09357 20.5107 0.872238 19.8984C-0.0360107 17.3853 -0.234344 14.6826 0.274399 12.0845C0.826248 9.25244 2.22026 6.55273 4.45068 4.3667C7.41977 1.45557 11.3086 0 15.1946 0C19.0863 0 22.9752 1.45557 25.9385 4.3667C28.9048 7.28076 30.3879 11.0972 30.3879 14.9111C30.3879 18.728 28.9048 22.5474 25.9385 25.4556L15.1946 36L4.45068 25.4585C3.99655 25.0127 3.56541 24.5332 3.17165 24.0337L6.35918 24.0337L15.1946 32.708L24.2628 23.8081C26.7634 21.354 28.0166 18.1299 28.0166 14.9111C28.0166 11.6924 26.7634 8.47119 24.2628 6.01416C21.7594 3.5542 18.4741 2.32715 15.1946 2.32715C11.9151 2.32715 8.63271 3.55713 6.12924 6.01123C4.24373 7.86182 3.07104 10.1353 2.60541 12.5161C2.15703 14.7954 2.35823 17.168 3.20038 19.3623L20.693 19.3623L20.693 11.7603C18.8564 10.7192 17.0255 9.68115 15.1946 8.64307L9.69905 11.7603L9.69905 17.7095L7.32205 17.7095L7.32205 17.7036Z" fill="#FFFFFF" fill-opacity="1.000000" fill-rule="nonzero"/>
</svg>
