<svg width="15.000000" height="15.000000" viewBox="0 0 15 15" fill="none" xmlns="http://www.w3.org/2000/svg" xmlns:xlink="http://www.w3.org/1999/xlink">
	<desc>
			Created with Pixso.
	</desc>
	<defs>
		<clipPath id="clip1987_25744">
			<rect id="love 1" width="15.000000" height="15.000000" fill="white" fill-opacity="0"/>
		</clipPath>
	</defs>
	<rect id="love 1" width="15.000000" height="15.000000" fill="#FFFFFF" fill-opacity="0"/>
	<g clip-path="url(#clip1987_25744)">
		<path id="Vector" d="M13.7573 2.36523C12.126 0.812988 9.47119 0.812988 7.83936 2.36487L7.5 2.68713L7.16113 2.36505C5.5293 0.812927 2.87451 0.81311 1.24268 2.36505C0.441406 3.12714 0 4.13806 0 5.21118C0 6.28467 0.441406 7.29541 1.24268 8.05786L7.1377 13.6545C7.23926 13.751 7.36963 13.7991 7.5 13.7991C7.63037 13.7991 7.76074 13.7508 7.8623 13.6544L13.7573 8.05786C14.5586 7.29559 15 6.28473 15 5.21136C15 4.13806 14.5586 3.12732 13.7573 2.36523ZM13.0322 7.29468L7.5 12.547L1.96826 7.29486C1.37793 6.73346 1.05273 5.99347 1.05273 5.21136C1.05273 4.42926 1.37793 3.68927 1.96826 3.12787C2.58398 2.54187 3.39258 2.24908 4.20166 2.24908C5.01074 2.24908 5.81982 2.54224 6.43555 3.12823L7.13721 3.79474C7.34033 3.98785 7.65918 3.98785 7.8623 3.79474L8.56445 3.12787C9.7959 1.95612 11.8003 1.95612 13.0317 3.12787C13.6221 3.68927 13.9473 4.42926 13.9473 5.21136C13.9473 5.99347 13.6221 6.73334 13.0322 7.29468Z" fill="#696969" fill-opacity="1.000000" fill-rule="nonzero"/>
	</g>
</svg>
