<svg width="50.000000" height="49.902832" viewBox="0 0 50 49.9028" fill="none" xmlns="http://www.w3.org/2000/svg" xmlns:xlink="http://www.w3.org/1999/xlink">
	<desc>
			Created with Pixso.
	</desc>
	<defs/>
	<path id="Vector" d="M28.8499 49.9023L11.6959 49.9023C5.24683 49.9023 0 44.6558 0 38.2065L0 11.6958C0 5.24658 5.24683 0 11.6959 0L38.2067 0C44.6558 0 49.9026 5.24658 49.9026 11.6958L49.9026 21.54C49.7996 24.1265 46.106 24.1245 46.0039 21.54L46.0039 11.6958C46.0039 7.39648 42.5061 3.89844 38.2067 3.89844L11.6959 3.89844C7.39648 3.89844 3.89868 7.39648 3.89868 11.6958L3.89868 38.2065C3.89868 42.5059 7.39648 46.0039 11.6959 46.0039L28.8499 46.0039C31.4363 46.1069 31.4343 49.8003 28.8499 49.9023ZM26.4319 17.1631L32.47 11.125C33.2313 10.3638 33.2312 9.12939 32.4698 8.36816C31.7087 7.60693 30.4744 7.60693 29.7131 8.36816L23.675 14.4062C23.3059 14.7754 22.8141 14.9751 22.2928 14.9775C21.7709 14.9766 21.2808 14.772 20.9131 14.4014L14.9314 8.37354C14.173 7.60938 12.9387 7.60449 12.1747 8.36328C11.4105 9.12158 11.4058 10.3555 12.1642 11.1196L18.1458 17.1475C19.249 18.2593 20.7192 18.873 22.2855 18.876L22.2971 18.876C23.8589 18.876 25.327 18.2681 26.4319 17.1631ZM11.2321 32.3628L15.4191 28.1167C17.6593 25.8447 17.653 22.1543 15.4047 19.8901L11.2272 15.6831C10.4686 14.9194 9.2345 14.915 8.47046 15.6733C7.70654 16.4316 7.70227 17.666 8.46069 18.4302L12.6382 22.6372C13.3876 23.3916 13.3898 24.6221 12.6429 25.3794L8.45593 29.6255C7.70007 30.3921 7.70862 31.626 8.47534 32.3823C8.8551 32.7568 9.34961 32.9434 9.84399 32.9434C10.3474 32.9434 10.8507 32.7495 11.2321 32.3628ZM43.6426 47.9268C47.8611 42.5718 50 38.4868 50 35.7856C50 30.0264 45.3217 25.3413 39.5712 25.3413C33.8207 25.3413 29.1423 30.0264 29.1423 35.7856C29.1423 38.4868 31.2812 42.5718 35.4998 47.9268C36.4888 49.1826 37.9728 49.9028 39.5712 49.9028C41.1694 49.9028 42.6536 49.1826 43.6426 47.9268ZM42.1113 46.7207L42.1123 46.7207L42.1113 46.7207ZM46.1013 35.7856C46.1013 37.1006 44.6509 40.3467 40.5801 45.5146C40.0485 46.1719 39.0948 46.1729 38.5623 45.5146C34.4915 40.3467 33.0409 37.1006 33.0409 35.7856C33.0409 32.1763 35.9703 29.2397 39.5712 29.2397C43.1719 29.2397 46.1013 32.1763 46.1013 35.7856ZM11.7933 42.1055C10.0818 42.1157 9.18591 39.999 10.415 38.7773L38.7776 10.415C39.5389 9.65381 40.7732 9.65381 41.5344 10.415C42.2957 11.1763 42.2957 12.4106 41.5344 13.1719L13.1719 41.5342C12.7911 41.915 12.2924 42.1055 11.7933 42.1055ZM37.1345 35.5752C37.1345 36.9209 38.2255 38.0117 39.5712 38.0117C42.8033 37.8833 42.8025 33.2661 39.5712 33.1382C38.2255 33.1382 37.1345 34.2295 37.1345 35.5752Z" fill="#0061DF" fill-opacity="1.000000" fill-rule="nonzero"/>
</svg>
