<svg width="16.999878" height="17.000000" viewBox="0 0 16.9999 17" fill="none" xmlns="http://www.w3.org/2000/svg" xmlns:xlink="http://www.w3.org/1999/xlink">
	<desc>
			Created with Pixso.
	</desc>
	<defs/>
	<path id="Vector" d="M16.1481 0.146484L0.146606 16.1479C-0.166809 16.4614 0.055542 17 0.499451 17L16.5009 17C16.7765 17 16.9999 16.7764 16.9999 16.501L16.9999 0.499512C16.9999 0.0561523 16.462 -0.166992 16.1481 0.146484ZM16.002 16.002L1.70416 16.002L4.242 13.4644L4.93713 14.1592C5.03455 14.2568 5.16223 14.3052 5.28992 14.3052C5.73053 14.3052 5.95807 13.7686 5.64276 13.4536L4.94769 12.7583L6.37109 11.335L7.06616 12.0303C7.16357 12.1274 7.29132 12.1763 7.41901 12.1763C7.85956 12.1763 8.0871 11.6396 7.77185 11.3242L7.07678 10.6294L8.50018 9.20605L9.19525 9.90088C9.29272 9.99854 9.42041 10.0474 9.5481 10.0474C9.98865 10.0474 10.2162 9.51074 9.90094 9.19531L9.20587 8.50049L10.6293 7.07666L11.3243 7.77197C11.4218 7.86963 11.5495 7.91797 11.6772 7.91797C12.1177 7.91797 12.3453 7.38135 12.03 7.06641L11.335 6.37109L12.7584 4.94775L13.4534 5.64307C13.5509 5.74023 13.6786 5.78906 13.8063 5.78906C14.2469 5.78906 14.4744 5.25244 14.1591 4.93701L13.4641 4.24219L16.0019 1.7041L16.0019 16.002L16.002 16.002Z" fill="#696969" fill-opacity="1.000000" fill-rule="nonzero"/>
	<path id="Vector" d="M12.9205 8.39648L8.39612 12.9209C8.0827 13.2344 8.30505 13.7729 8.74896 13.7729L13.2733 13.7729C13.5489 13.7729 13.7723 13.5493 13.7723 13.2739L13.7723 8.74951C13.7723 8.30615 13.2344 8.08301 12.9205 8.39648ZM12.7743 12.7749L9.95367 12.7749L12.7743 9.9541L12.7743 12.7749Z" fill="#696969" fill-opacity="1.000000" fill-rule="nonzero"/>
</svg>
