<svg width="16.000000" height="15.886536" viewBox="0 0 16 15.8865" fill="none" xmlns="http://www.w3.org/2000/svg" xmlns:xlink="http://www.w3.org/1999/xlink">
	<desc>
			Created with Pixso.
	</desc>
	<defs>
		<clipPath id="clip1987_25986">
			<rect id="microwave" width="16.000000" height="15.886525" fill="white" fill-opacity="0"/>
		</clipPath>
	</defs>
	<rect id="microwave" width="16.000000" height="15.886525" fill="#FFFFFF" fill-opacity="0"/>
	<g clip-path="url(#clip1987_25986)">
		<path id="Vector" d="M14.5938 1.89282L1.40625 1.89282C0.630859 1.89282 0 2.51917 0 3.28912L0 11.6047C0 12.3746 0.630859 13.001 1.40625 13.001L2.03125 13.001L2.03125 13.5284C2.03125 13.7855 2.24121 13.9939 2.5 13.9939C2.75879 13.9939 2.96875 13.7855 2.96875 13.5284L2.96875 13.001L13.0312 13.001L13.0312 13.5284C13.0312 13.7855 13.2412 13.9939 13.5 13.9939C13.7588 13.9939 13.9688 13.7855 13.9688 13.5284L13.9688 13.001L14.5938 13.001C15.3691 13.001 16 12.3746 16 11.6047L16 3.28912C16 2.51917 15.3691 1.89282 14.5938 1.89282ZM11.0312 12.0701L1.40625 12.0701C1.14795 12.0701 0.9375 11.8613 0.9375 11.6047L0.9375 3.28912C0.9375 3.03247 1.14795 2.82367 1.40625 2.82367L11.0312 2.82367L11.0312 12.0701ZM15.0625 11.6047C15.0625 11.8613 14.8521 12.0701 14.5938 12.0701L11.9688 12.0701L11.9688 5.05774L15.0625 5.05774L15.0625 11.6047ZM15.0625 4.12689L11.9688 4.12689L11.9688 2.82367L14.5938 2.82367C14.8521 2.82367 15.0625 3.03247 15.0625 3.28912L15.0625 4.12689Z" fill="#696969" fill-opacity="1.000000" fill-rule="nonzero"/>
		<path id="Vector" d="M13.0405 10.6405C13.0933 10.8927 13.3325 11.0543 13.5918 11.006C13.8467 10.9534 14.0083 10.715 13.96 10.4587C13.9014 10.1794 13.6211 10.0268 13.3643 10.1044C13.1235 10.1807 12.9971 10.4089 13.0405 10.6405Z" fill="#696969" fill-opacity="1.000000" fill-rule="nonzero"/>
		<path id="Vector" d="M13.0405 8.65491C13.0933 8.9071 13.3325 9.06866 13.5918 9.02045C13.8467 8.96777 14.0083 8.72943 13.96 8.47308C13.9014 8.19373 13.6211 8.04126 13.3643 8.11877C13.1235 8.19513 12.9971 8.42334 13.0405 8.65491Z" fill="#696969" fill-opacity="1.000000" fill-rule="nonzero"/>
		<path id="Vector" d="M13.0405 6.66907C13.0933 6.92126 13.3325 7.08282 13.5918 7.03461C13.8467 6.98193 14.0083 6.74359 13.96 6.48724C13.9014 6.20789 13.6211 6.05542 13.3643 6.13293C13.1235 6.20929 12.9971 6.4375 13.0405 6.66907Z" fill="#696969" fill-opacity="1.000000" fill-rule="nonzero"/>
		<path id="Vector" d="M3.4375 11.015L8.5625 11.015C9.33789 11.015 9.96875 10.3885 9.96875 9.61865L9.96875 5.27472C9.96875 4.50476 9.33789 3.87842 8.5625 3.87842L3.4375 3.87842C2.66211 3.87842 2.03125 4.50476 2.03125 5.27472L2.03125 9.61865C2.03125 10.3885 2.66211 11.015 3.4375 11.015ZM2.96875 5.27472C2.96875 5.01807 3.1792 4.80927 3.4375 4.80927L8.5625 4.80927C8.8208 4.80927 9.03125 5.01807 9.03125 5.27472L9.03125 9.61865C9.03125 9.87531 8.8208 10.0841 8.5625 10.0841L3.4375 10.0841C3.1792 10.0841 2.96875 9.87531 2.96875 9.61865L2.96875 5.27472Z" fill="#696969" fill-opacity="1.000000" fill-rule="nonzero"/>
	</g>
</svg>
