<svg width="50.000000" height="49.992676" viewBox="0 0 50 49.9927" fill="none" xmlns="http://www.w3.org/2000/svg" xmlns:xlink="http://www.w3.org/1999/xlink">
	<desc>
			Created with Pixso.
	</desc>
	<defs/>
	<path id="Vector" d="M38.2812 49.9927L11.7188 49.9927C5.25702 49.9927 0 44.7358 0 38.2739L0 21.8413C0 18.2095 1.72412 14.7261 4.61194 12.5234L17.8932 2.39355C22.0776 -0.797852 27.9224 -0.797852 32.1068 2.39355L36.3281 5.61035L36.3281 3.11768C36.4313 0.526367 40.1321 0.52832 40.2344 3.11768L40.2344 9.5542C40.2344 10.2969 39.8134 10.9751 39.1479 11.3047C38.4825 11.6343 37.6879 11.5576 37.0974 11.1079L29.7385 5.5C26.9482 3.37207 23.0516 3.37207 20.262 5.49951L6.98077 15.6294C5.05566 17.0977 3.90625 19.4199 3.90625 21.8413L3.90625 38.2739C3.90625 42.582 7.41095 46.0864 11.7188 46.0864L38.2812 46.0864C42.5891 46.0864 46.0938 42.582 46.0938 38.2739L46.0938 21.8413C46.0938 19.3901 44.9573 17.0601 43.0538 15.6084C42.1961 14.9541 42.0311 13.7285 42.6854 12.8706C43.3395 12.0132 44.5652 11.8481 45.4227 12.5024C48.2889 14.6885 50 18.1797 50 21.8413L50 38.2739C50 44.7358 44.743 49.9927 38.2812 49.9927ZM21.0938 22.5513C19.7454 22.5513 18.6523 23.6445 18.6523 24.9927C18.7814 28.2319 23.4073 28.2295 23.5352 24.9927C23.5352 23.6445 22.4421 22.5513 21.0938 22.5513ZM31.3477 24.9927C31.2186 28.2319 26.5927 28.2295 26.4648 24.9927C26.5939 21.7534 31.2198 21.7559 31.3477 24.9927ZM23.5352 32.8052C23.4061 36.0444 18.7802 36.042 18.6523 32.8052C18.7814 29.5659 23.4073 29.5684 23.5352 32.8052ZM31.3477 32.8052C31.2186 36.0444 26.5927 36.042 26.4648 32.8052C26.5939 29.5659 31.2198 29.5684 31.3477 32.8052Z" fill="#0061DF" fill-opacity="1.000000" fill-rule="nonzero"/>
</svg>
