<svg width="20.000000" height="14.591309" viewBox="0 0 20 14.5913" fill="none" xmlns="http://www.w3.org/2000/svg" xmlns:xlink="http://www.w3.org/1999/xlink">
	<desc>
			Created with Pixso.
	</desc>
	<defs/>
	<path id="Vector" d="M19.8004 5.16455L13.086 0.101074C12.9072 -0.0336914 12.6609 -0.0336914 12.482 0.101074L11.3782 0.933594L10.2745 0.101074C10.0956 -0.0336914 9.84929 -0.0336914 9.67044 0.101074L8.59418 0.912598L7.5179 0.101074C7.33907 -0.0336914 7.09273 -0.0336914 6.91388 0.101074L0.199478 5.16455C0.0738678 5.25928 0 5.40771 0 5.56494L0 14.0898C0 14.3667 0.224548 14.5913 0.501556 14.5913L3.25812 14.5913L6.06955 14.5913L13.9305 14.5913L16.687 14.5913L19.4984 14.5913C19.7755 14.5913 20 14.3667 20 14.0898L20 5.56494C20 5.40771 19.9261 5.25928 19.8004 5.16455ZM18.9969 13.5879L17.1886 13.5879L17.1886 5.56494C17.1886 5.40723 17.1147 5.25928 16.989 5.16455L12.2113 1.56152L12.784 1.12988L18.9969 5.81494L18.9969 13.5879ZM14.432 13.5879L14.432 5.56494C14.432 5.40723 14.3581 5.25928 14.2325 5.16455L9.42726 1.54102L9.97252 1.12988L16.1855 5.81494L16.1855 13.5884L14.432 13.5884L14.432 13.5879ZM8.03737 13.5879L6.57111 13.5879L6.39456 13.5879L6.39456 9.95117L8.03737 9.95117L8.03737 13.5879ZM9.04048 13.5879L9.04048 9.44971C9.04048 9.17236 8.81593 8.94775 8.53893 8.94775L5.89301 8.94775C5.616 8.94775 5.39145 9.17236 5.39145 9.44971L5.39145 13.5879L3.75967 13.5879L1.00311 13.5879L1.00311 5.81494L7.21597 1.12988L13.4289 5.81494L13.4289 13.5879L9.04048 13.5879Z" fill="#0061DF" fill-opacity="1.000000" fill-rule="nonzero"/>
</svg>
