<svg width="20.000000" height="19.605469" viewBox="0 0 20 19.6055" fill="none" xmlns="http://www.w3.org/2000/svg" xmlns:xlink="http://www.w3.org/1999/xlink">
	<desc>
			Created with Pixso.
	</desc>
	<defs/>
	<path id="Vector" d="M4.27393 3.28271L0.588257 3.28271C0.263306 3.28271 0 3.01953 0 2.69482C0 2.37012 0.263306 2.10645 0.588257 2.10645L4.27393 2.10645C4.59888 2.10645 4.86218 2.37012 4.86218 2.69482C4.86218 3.01953 4.59888 3.28271 4.27393 3.28271Z" fill="#0061DF" fill-opacity="1.000000" fill-rule="nonzero"/>
	<path id="Vector" d="M6.38013 5.38867C4.89441 5.38867 3.68579 4.18018 3.68579 2.69434C3.68579 1.2085 4.89441 0 6.38013 0C7.86597 0 9.07458 1.2085 9.07458 2.69434C9.07458 4.18018 7.86597 5.38867 6.38013 5.38867ZM6.38013 1.17627C5.54321 1.17627 4.8623 1.85742 4.8623 2.69434C4.8623 3.53174 5.54321 4.2124 6.38013 4.2124C7.21716 4.2124 7.89807 3.53174 7.89807 2.69434C7.89807 1.85742 7.21716 1.17627 6.38013 1.17627Z" fill="#0061DF" fill-opacity="1.000000" fill-rule="nonzero"/>
	<path id="Vector" d="M19.4117 3.28271L10.6201 3.28271C10.2952 3.28271 10.0319 3.01953 10.0319 2.69482C10.0319 2.37012 10.2952 2.10645 10.6201 2.10645L19.4117 2.10645C19.7367 2.10645 20 2.37012 20 2.69482C20 3.01953 19.7367 3.28271 19.4117 3.28271Z" fill="#0061DF" fill-opacity="1.000000" fill-rule="nonzero"/>
	<path id="Vector" d="M14.2781 12.4971C12.7924 12.4971 11.5837 11.2881 11.5837 9.80273C11.5837 8.31689 12.7924 7.1084 14.2781 7.1084C15.7639 7.1084 16.9725 8.31689 16.9725 9.80273C16.9725 11.2881 15.7639 12.4971 14.2781 12.4971ZM14.2781 8.28467C13.4412 8.28467 12.7603 8.96582 12.7603 9.80273C12.7603 10.6396 13.4412 11.3203 14.2781 11.3203C15.1151 11.3203 15.796 10.6396 15.796 9.80273C15.796 8.96582 15.1151 8.28467 14.2781 8.28467Z" fill="#0061DF" fill-opacity="1.000000" fill-rule="nonzero"/>
	<path id="Vector" d="M10.0382 10.3906L0.588257 10.3906C0.263306 10.3906 0 10.1274 0 9.80273C0 9.47803 0.263306 9.21436 0.588257 9.21436L10.0382 9.21436C10.363 9.21436 10.6263 9.47803 10.6263 9.80273C10.6263 10.1274 10.363 10.3906 10.0382 10.3906Z" fill="#0061DF" fill-opacity="1.000000" fill-rule="nonzero"/>
	<path id="Vector" d="M19.4117 10.3906L16.3842 10.3906C16.0592 10.3906 15.7959 10.1274 15.7959 9.80273C15.7959 9.47803 16.0592 9.21436 16.3842 9.21436L19.4117 9.21436C19.7366 9.21436 19.9999 9.47803 19.9999 9.80273C19.9999 10.1274 19.7366 10.3906 19.4117 10.3906Z" fill="#0061DF" fill-opacity="1.000000" fill-rule="nonzero"/>
	<path id="Vector" d="M5.72192 19.6055C4.23621 19.6055 3.02759 18.397 3.02759 16.9111C3.02759 15.4253 4.23621 14.2168 5.72192 14.2168C7.20776 14.2168 8.41638 15.4253 8.41638 16.9111C8.41638 18.397 7.20776 19.6055 5.72192 19.6055ZM5.72192 15.3931C4.88501 15.3931 4.2041 16.0742 4.2041 16.9111C4.2041 17.748 4.88501 18.4292 5.72192 18.4292C6.55896 18.4292 7.23987 17.748 7.23987 16.9111C7.23987 16.0742 6.55896 15.3931 5.72192 15.3931Z" fill="#0061DF" fill-opacity="1.000000" fill-rule="nonzero"/>
	<path id="Vector" d="M19.4119 17.499L9.96191 17.499C9.63696 17.499 9.37366 17.2358 9.37366 16.9111C9.37366 16.5864 9.63696 16.3228 9.96191 16.3228L19.4119 16.3228C19.7367 16.3228 20 16.5864 20 16.9111C20 17.2358 19.7367 17.499 19.4119 17.499Z" fill="#0061DF" fill-opacity="1.000000" fill-rule="nonzero"/>
	<path id="Vector" d="M3.61584 17.499L0.588257 17.499C0.263306 17.499 0 17.2358 0 16.9111C0 16.5864 0.263306 16.3228 0.588257 16.3228L3.61584 16.3228C3.94067 16.3228 4.2041 16.5864 4.2041 16.9111C4.2041 17.2358 3.94067 17.499 3.61584 17.499Z" fill="#0061DF" fill-opacity="1.000000" fill-rule="nonzero"/>
</svg>
