<svg width="16.000000" height="16.000000" viewBox="0 0 16 16" fill="none" xmlns="http://www.w3.org/2000/svg" xmlns:xlink="http://www.w3.org/1999/xlink">
	<desc>
			Created with Pixso.
	</desc>
	<defs>
		<clipPath id="clip1987_25993">
			<rect id="outdoor-shower" width="16.000000" height="16.000000" fill="white" fill-opacity="0"/>
		</clipPath>
	</defs>
	<rect id="outdoor-shower" width="16.000000" height="16.000000" fill="#FFFFFF" fill-opacity="0"/>
	<g clip-path="url(#clip1987_25993)">
		<path id="Vector" d="M15.4048 14.7501L8.65527 14.7501L8.65527 8.62573L15.4048 8.62573C15.75 8.62573 16.0298 8.34595 16.0298 8.00073C16.0298 3.45557 12.2402 -0.0939941 7.99658 0.00195312C3.59326 0.0202637 0.03125 3.58826 0.03125 8.00073C0.03125 8.34595 0.311035 8.62573 0.65625 8.62573L7.40576 8.62573L7.40576 14.7501L0.65625 14.7501C0.311035 14.7501 0.03125 15.0299 0.03125 15.375C0.03125 15.7202 0.311035 16 0.65625 16L15.4048 16C15.75 16 16.0298 15.7202 16.0298 15.375C16.0298 15.0299 15.75 14.7501 15.4048 14.7501ZM8.03076 1.25134C8.22705 1.25134 8.71875 1.61353 9.17578 2.98389C9.57031 4.16797 9.80713 5.70911 9.85449 7.37585L6.20654 7.37585C6.25391 5.70911 6.49072 4.16797 6.88525 2.98389C7.34229 1.61353 7.83398 1.25134 8.03076 1.25134ZM14.7515 7.37585L11.105 7.37585C11.0557 5.55688 10.752 3.13428 9.91992 1.51855C12.4878 2.26294 14.4927 4.53638 14.7515 7.37585ZM6.14111 1.51843C5.31006 3.13232 5.00537 5.55261 4.95605 7.37585L1.30957 7.37585C1.56836 4.53784 3.57178 2.26343 6.14111 1.51843ZM1.90625 12.3129C1.56104 12.3129 1.28125 12.0331 1.28125 11.6879L1.28125 10.4589C1.28125 10.1136 1.56104 9.83386 1.90625 9.83386C2.25146 9.83386 2.53125 10.1136 2.53125 10.4589L2.53125 11.6879C2.53125 12.0331 2.25146 12.3129 1.90625 12.3129ZM4.94727 12.3129C4.60254 12.3129 4.32275 12.0331 4.32275 11.6879L4.32275 10.4589C4.32275 10.1136 4.60254 9.83386 4.94727 9.83386C5.29248 9.83386 5.57227 10.1136 5.57227 10.4589L5.57227 11.6879C5.57227 12.0331 5.29248 12.3129 4.94727 12.3129ZM11.1138 9.83386C11.459 9.83386 11.7388 10.1136 11.7388 10.4589L11.7388 11.6879C11.7388 12.0331 11.459 12.3129 11.1138 12.3129C10.7686 12.3129 10.4888 12.0331 10.4888 11.6879L10.4888 10.4589C10.4888 10.1136 10.7686 9.83386 11.1138 9.83386ZM14.1548 9.83386C14.5 9.83386 14.7798 10.1136 14.7798 10.4589L14.7798 11.6879C14.7798 12.0331 14.5 12.3129 14.1548 12.3129C13.8101 12.3129 13.5303 12.0331 13.5303 11.6879L13.5303 10.4589C13.5303 10.1136 13.8101 9.83386 14.1548 9.83386Z" fill="#696969" fill-opacity="1.000000" fill-rule="nonzero"/>
	</g>
</svg>
