<svg width="18.000000" height="18.000000" viewBox="0 0 18 18" fill="none" xmlns="http://www.w3.org/2000/svg" xmlns:xlink="http://www.w3.org/1999/xlink">
	<desc>
			Created with Pixso.
	</desc>
	<defs>
		<clipPath id="clip1987_23049">
			<rect id="phone" width="18.000000" height="18.000000" fill="white" fill-opacity="0"/>
		</clipPath>
	</defs>
	<rect id="phone" width="18.000000" height="18.000000" fill="#FFFFFF" fill-opacity="0"/>
	<g clip-path="url(#clip1987_23049)">
		<path id="Vector" d="M12.937 18C12.3559 18 11.7798 17.8972 11.2164 17.6926C8.73459 16.791 6.43089 15.3225 4.55434 13.446C2.67776 11.5696 1.20935 9.26587 0.3078 6.78394C0.0180969 5.98633 -0.0673981 5.16309 0.053772 4.33667C0.167297 3.56274 0.467087 2.81152 0.920807 2.16382C1.37651 1.51343 1.98405 0.972412 2.67773 0.599609C3.41747 0.20166 4.22485 0 5.07758 0C5.34279 0 5.57199 0.185303 5.62758 0.44458L6.51045 4.5647C6.55042 4.75122 6.49309 4.94531 6.3582 5.08032L4.84959 6.58887C6.27274 9.41846 8.58199 11.7275 11.4115 13.1506L12.92 11.6421C13.0549 11.5073 13.2491 11.45 13.4356 11.49L17.5557 12.3728C17.8151 12.4285 18.0003 12.6575 18.0003 12.9229C18.0003 13.7754 17.7986 14.583 17.4008 15.3228C17.0278 16.0164 16.4868 16.6238 15.8364 17.0796C15.1889 17.5332 14.4375 17.833 13.6635 17.9465C13.421 17.9822 13.1785 18 12.937 18ZM4.62816 1.14966C3.50337 1.27368 2.50505 1.86328 1.8421 2.80957C1.0966 3.87354 0.922775 5.18213 1.36516 6.3999C3.09843 11.1714 6.82909 14.9021 11.6005 16.6353C12.8183 17.0776 14.127 16.9038 15.1909 16.1582C16.1371 15.4954 16.7267 14.4971 16.8508 13.3723L13.4992 12.6541L11.9237 14.2295C11.756 14.3972 11.5013 14.4417 11.2868 14.3408C7.94037 12.7688 5.23163 10.0601 3.6595 6.71362C3.55872 6.49902 3.60321 6.24438 3.77087 6.07666L5.34637 4.50122L4.62816 1.14966Z" fill="#FFFFFF" fill-opacity="1.000000" fill-rule="nonzero"/>
	</g>
</svg>
