<svg width="20.000000" height="20.000000" viewBox="0 0 20 20" fill="none" xmlns="http://www.w3.org/2000/svg" xmlns:xlink="http://www.w3.org/1999/xlink">
	<desc>
			Created with Pixso.
	</desc>
	<defs>
		<clipPath id="clip1987_20160">
			<rect id="price 1" width="20.000000" height="20.000000" fill="white" fill-opacity="0"/>
		</clipPath>
	</defs>
	<rect id="price 1" width="20.000000" height="20.000000" fill="#FFFFFF" fill-opacity="0"/>
	<g clip-path="url(#clip1987_20160)">
		<path id="Vector" d="M11.751 7.58887L11.229 8.11072C10.5996 7.78308 9.83057 7.90332 9.30469 8.42944C8.95752 8.77649 8.80811 9.14783 8.83496 9.60144C8.86426 9.99438 8.9292 10.2629 9.11035 10.7469C9.37305 11.4865 9.37988 11.8176 9.13818 12.0592C8.98486 12.2126 8.81738 12.2998 8.64062 12.318C8.41943 12.3351 8.22803 12.2545 8.03857 12.0649C7.67969 11.7059 7.69141 11.2942 8.08008 10.5963L8.21777 10.3495L7.0957 10.0736L7.01221 10.2008C6.54785 10.9062 6.51611 11.7419 6.9165 12.4232L6.3999 12.9399L7.16357 13.7036L7.68457 13.1826C7.98877 13.3639 8.3252 13.4473 8.68604 13.4307C9.16992 13.4113 9.59863 13.2184 9.95947 12.8573L9.96582 12.8506C10.3726 12.4073 10.5107 11.9755 10.4277 11.4081C10.3784 11.0518 10.3213 10.8705 10.2075 10.5294L10.0591 10.0614C10.0352 9.97888 10.0142 9.86707 9.98828 9.72571L9.98584 9.71289C9.9541 9.45569 10.0239 9.32947 10.1543 9.19885C10.3486 9.00464 10.6543 8.99438 10.8359 9.1759C11.0342 9.37427 11.1167 9.56934 10.9868 10.0316L10.9248 10.2528L12.0103 10.4847L12.0703 10.3002C12.2417 9.77454 12.2144 9.29724 11.9888 8.87842L12.5146 8.35254L11.751 7.58887Z" fill="#0061DF" fill-opacity="1.000000" fill-rule="nonzero"/>
		<path id="Vector" d="M20 0.838257L19.1743 0.0078125L16.916 2.2533L9.59473 1.40356L0 10.9861L8.99512 19.9927L18.5898 10.4103L17.7485 3.07703L20 0.838257ZM17.3618 9.98157L8.99609 18.3364L1.65625 10.9871L10.022 2.6322L15.8545 3.30908L14.6816 4.47522C14.4722 4.3822 14.2441 4.33289 14.0088 4.33289C13.5664 4.33289 13.1504 4.505 12.8379 4.8175C12.1914 5.46313 12.1904 6.5144 12.8359 7.16089C13.1494 7.47437 13.5654 7.64697 14.0088 7.64697C14.4507 7.64697 14.8667 7.47498 15.1797 7.16248C15.6831 6.65955 15.7949 5.91064 15.5146 5.29846L16.6904 4.12927L17.3618 9.98157ZM14.3521 6.33374C14.2603 6.42542 14.1382 6.47595 14.0088 6.47595C13.8789 6.47595 13.7563 6.42529 13.665 6.33337C13.4756 6.1438 13.4756 5.83545 13.665 5.64612C13.7568 5.55444 13.8789 5.50403 14.0088 5.50403C14.1387 5.50403 14.2607 5.55469 14.3525 5.64661C14.542 5.83618 14.5415 6.14441 14.3521 6.33374Z" fill="#0061DF" fill-opacity="1.000000" fill-rule="nonzero"/>
	</g>
</svg>
