<svg width="16.000000" height="16.000000" viewBox="0 0 16 16" fill="none" xmlns="http://www.w3.org/2000/svg" xmlns:xlink="http://www.w3.org/1999/xlink">
	<desc>
			Created with Pixso.
	</desc>
	<defs>
		<clipPath id="clip1987_25904">
			<rect id="refrigerator" width="16.000000" height="16.000000" fill="white" fill-opacity="0"/>
		</clipPath>
	</defs>
	<rect id="refrigerator" width="16.000000" height="16.000000" fill="#FFFFFF" fill-opacity="0"/>
	<g clip-path="url(#clip1987_25904)">
		<path id="Vector" d="M2.24951 2.49976C1.97314 2.49976 1.74951 2.72357 1.74951 2.99976L1.74951 4.49963C1.74951 4.77582 1.97314 4.99963 2.24951 4.99963C2.52539 4.99963 2.74951 4.77582 2.74951 4.49963L2.74951 2.99976C2.74951 2.72357 2.52539 2.49976 2.24951 2.49976Z" fill="#696969" fill-opacity="1.000000" fill-rule="nonzero"/>
		<path id="Vector" d="M2.24951 8.49951C1.97314 8.49951 1.74951 8.72333 1.74951 8.99951L1.74951 10.4994C1.74951 10.7756 1.97314 10.9994 2.24951 10.9994C2.52539 10.9994 2.74951 10.7756 2.74951 10.4994L2.74951 8.99951C2.74951 8.72333 2.52539 8.49951 2.24951 8.49951Z" fill="#696969" fill-opacity="1.000000" fill-rule="nonzero"/>
		<path id="Vector" d="M12.0845 13.0793C12.0845 13.4245 11.8047 13.7043 11.4595 13.7043C11.1143 13.7043 10.8345 13.4245 10.8345 13.0793C10.8345 12.7341 11.1143 12.4543 11.4595 12.4543C11.8047 12.4543 12.0845 12.7341 12.0845 13.0793Z" fill="#696969" fill-opacity="1.000000" fill-rule="evenodd"/>
		<path id="Vector" d="M9.95752 11.5767C9.76221 11.7719 9.76221 12.0884 9.95752 12.2838C10.1528 12.479 10.4692 12.479 10.6646 12.2838C11.103 11.8452 11.8169 11.8452 12.2554 12.2838C12.353 12.3814 12.481 12.4302 12.6089 12.4302C13.0503 12.4302 13.2783 11.8926 12.9624 11.5767C12.1343 10.7482 10.7861 10.7482 9.95752 11.5767Z" fill="#696969" fill-opacity="1.000000" fill-rule="nonzero"/>
		<path id="Vector" d="M14.0225 10.5161C12.6064 9.09961 10.313 9.0993 8.89648 10.5161C8.70117 10.7114 8.70117 11.028 8.89648 11.2231C9.0918 11.4184 9.4082 11.4184 9.60352 11.2231C10.6294 10.1974 12.2896 10.1973 13.3154 11.2231C13.5107 11.4184 13.8271 11.4185 14.0225 11.2231C14.2178 11.028 14.2178 10.7114 14.0225 10.5161Z" fill="#696969" fill-opacity="1.000000" fill-rule="nonzero"/>
		<path id="Vector" d="M9.5 7.46899C9.5 7.24719 9.5 1.47137 9.5 1.24994C9.5 0.56073 8.93945 0 8.25 0L1.25049 0C0.561035 0 0.000488281 0.56073 0.000488281 1.24994L0.000488281 15.4992C0.000488281 15.7753 0.224121 15.9992 0.500488 15.9992L9 15.9992C9.26611 15.9992 9.48291 15.7911 9.49854 15.5289C12.5312 17.0143 15.9995 14.8003 15.9995 11.4994C15.9995 8.15643 12.4688 5.98999 9.5 7.46899ZM1.00049 1.24994C1.00049 1.11212 1.11279 0.999939 1.25049 0.999939L8.25 0.999939C8.3877 0.999939 8.5 1.11212 8.5 1.24994L8.5 6.49969L1.00049 6.49969L1.00049 1.24994ZM8.5 14.9993L1.00049 14.9993L1.00049 7.49963L8.5 7.49963L8.5 8.14801C6.50049 9.94043 6.5 13.0577 8.5 14.8508L8.5 14.9993ZM11.5 14.9993C9.56982 14.9993 8 13.4293 8 11.4994C8 9.56952 9.56982 7.99957 11.5 7.99957C13.4297 7.99957 14.9995 9.56952 14.9995 11.4994C14.9995 13.4293 13.4297 14.9993 11.5 14.9993Z" fill="#696969" fill-opacity="1.000000" fill-rule="nonzero"/>
	</g>
</svg>
