<svg width="16.000000" height="16.000000" viewBox="0 0 16 16" fill="none" xmlns="http://www.w3.org/2000/svg" xmlns:xlink="http://www.w3.org/1999/xlink">
	<desc>
			Created with Pixso.
	</desc>
	<defs>
		<clipPath id="clip1987_25911">
			<rect id="sauna" width="16.000000" height="16.000000" fill="white" fill-opacity="0"/>
		</clipPath>
	</defs>
	<rect id="sauna" width="16.000000" height="16.000000" fill="#FFFFFF" fill-opacity="0"/>
	<g clip-path="url(#clip1987_25911)">
		<path id="Vector" d="M3.77734 2.03809C2.75537 2.03809 1.92383 2.86957 1.92383 3.8916C1.92383 4.91364 2.75537 5.74512 3.77734 5.74512C4.79932 5.74512 5.63086 4.9137 5.63086 3.8916C5.63086 2.86957 4.79932 2.03809 3.77734 2.03809ZM3.77734 4.80768C3.27246 4.80768 2.86133 4.39673 2.86133 3.8916C2.86133 3.38647 3.27246 2.97559 3.77734 2.97559C4.28223 2.97559 4.69336 3.38654 4.69336 3.8916C4.69336 4.39673 4.28271 4.80768 3.77734 4.80768Z" fill="#696969" fill-opacity="1.000000" fill-rule="nonzero"/>
		<path id="Vector" d="M11.5659 14.4677L9.90625 9.78748L6.69043 9.78748L5.21826 6.29248L2.81494 6.29248L0.982422 11.2764C0.908691 11.4778 0.893066 11.6929 0.933105 11.8979L0 11.8979L0 12.8354L7.93506 12.8354L9.49805 15.4421C9.71143 15.7976 10.0918 15.9999 10.4849 15.9999C10.6401 15.9999 10.7979 15.9683 10.9478 15.902C11.4937 15.6605 11.7651 15.0305 11.5659 14.4677ZM3.29834 11.8979L3.85645 11.0029L4.33008 11.8979L3.29834 11.8979ZM10.5684 15.0446C10.4712 15.0876 10.3564 15.0512 10.3022 14.96L8.46631 11.8979L5.39062 11.8979L3.92334 9.12469L2.2583 11.7936C2.21777 11.8589 2.14746 11.8979 2.07031 11.8979C1.96973 11.8979 1.91357 11.8385 1.88867 11.8032C1.86426 11.7678 1.82764 11.6943 1.8623 11.5999L3.46924 7.23004L4.5957 7.23004L6.06836 10.725L9.24414 10.725L10.6821 14.781C10.7188 14.8844 10.6689 15.0002 10.5684 15.0446Z" fill="#696969" fill-opacity="1.000000" fill-rule="nonzero"/>
		<path id="Vector" d="M11.2402 3.52057C11.2402 2.92645 11 2.60046 10.8247 2.36237C10.6797 2.16528 10.5918 2.04633 10.5918 1.76031C10.5918 1.4743 10.6797 1.35535 10.8247 1.15826C11 0.920166 11.2402 0.594177 11.2402 0L10.3027 0C10.3027 0.286011 10.2153 0.404968 10.0698 0.602051C9.89453 0.840149 9.6543 1.16614 9.6543 1.76031C9.6543 2.35443 9.89453 2.68048 10.0698 2.91852C10.2153 3.1156 10.3027 3.23456 10.3027 3.52057C10.3027 3.80664 10.2153 3.9256 10.0698 4.12274C9.89453 4.3609 9.6543 4.68695 9.6543 5.28113C9.6543 5.87537 9.89453 6.20142 10.0698 6.43945C10.2153 6.6366 10.3027 6.75562 10.3027 7.04169L11.2402 7.04169C11.2402 6.44745 11 6.1214 10.8247 5.8833C10.6797 5.68622 10.5918 5.5672 10.5918 5.28113C10.5918 4.99506 10.6797 4.8761 10.8247 4.67896C11 4.44086 11.2402 4.11481 11.2402 3.52057Z" fill="#696969" fill-opacity="1.000000" fill-rule="nonzero"/>
		<path id="Vector" d="M13.6196 3.52075C13.6196 2.92664 13.3794 2.60059 13.2041 2.36255C13.0591 2.16547 12.9712 2.04651 12.9712 1.7605C12.9712 1.47449 13.0591 1.35553 13.2041 1.15839C13.3794 0.92041 13.6196 0.594421 13.6196 0.000244141L12.6821 0.000244141C12.6821 0.286255 12.5947 0.405212 12.4492 0.602295C12.2739 0.840393 12.0337 1.16638 12.0337 1.76056C12.0337 2.35468 12.2739 2.68073 12.4492 2.91876C12.5947 3.11584 12.6821 3.2348 12.6821 3.52081C12.6821 3.80688 12.5947 3.92584 12.4492 4.12299C12.2739 4.36108 12.0337 4.68713 12.0337 5.28131C12.0337 5.87549 12.2739 6.20154 12.4492 6.43964C12.5947 6.63672 12.6821 6.75574 12.6821 7.04181L13.6196 7.04181C13.6196 6.44763 13.3794 6.12158 13.2041 5.88348C13.0591 5.68634 12.9712 5.56738 12.9712 5.28125C12.9712 4.99518 13.0591 4.87622 13.2041 4.67908C13.3794 4.44098 13.6196 4.11493 13.6196 3.52075Z" fill="#696969" fill-opacity="1.000000" fill-rule="nonzero"/>
		<path id="Vector" d="M16.0005 3.52081C16.0005 2.9267 15.7603 2.60071 15.585 2.36261C15.4399 2.16553 15.3521 2.04657 15.3521 1.76056C15.3521 1.47455 15.4399 1.35559 15.585 1.15851C15.7603 0.92041 16.0005 0.594421 16.0005 0.000244141L15.063 0.000244141C15.063 0.286255 14.9756 0.405212 14.8301 0.602295C14.6548 0.840393 14.4146 1.16638 14.4146 1.76056C14.4146 2.35468 14.6548 2.68073 14.8301 2.91876C14.9756 3.11584 15.063 3.2348 15.063 3.52081C15.063 3.80688 14.9756 3.92584 14.8301 4.12299C14.6548 4.36108 14.4146 4.68713 14.4146 5.28131C14.4146 5.87549 14.6548 6.20154 14.8301 6.43964C14.9756 6.63672 15.063 6.75574 15.063 7.04181L16.0005 7.04181C16.0005 6.44763 15.7603 6.12158 15.585 5.88348C15.4399 5.68634 15.3521 5.56738 15.3521 5.28125C15.3521 4.99518 15.4399 4.87622 15.585 4.67908C15.7603 4.4411 16.0005 4.11505 16.0005 3.52081Z" fill="#696969" fill-opacity="1.000000" fill-rule="nonzero"/>
	</g>
</svg>
