<svg width="16.000000" height="16.000000" viewBox="0 0 16 16" fill="none" xmlns="http://www.w3.org/2000/svg" xmlns:xlink="http://www.w3.org/1999/xlink">
	<desc>
			Created with Pixso.
	</desc>
	<defs>
		<clipPath id="clip1987_23002">
			<rect id="001-loupe" width="16.000000" height="16.000000" fill="white" fill-opacity="0"/>
		</clipPath>
	</defs>
	<rect id="001-loupe" width="16.000000" height="16.000000" fill="#FFFFFF" fill-opacity="0"/>
	<g clip-path="url(#clip1987_23002)">
		<path id="Vector" d="M7.04602 0C3.16101 0 0 3.16113 0 7.0459C0 10.9312 3.16101 14.0923 7.04602 14.0923C10.9314 14.0923 14.0922 10.9312 14.0922 7.0459C14.0922 3.16113 10.9314 0 7.04602 0ZM7.04602 12.7915C3.87817 12.7915 1.30078 10.2139 1.30078 7.0459C1.30078 3.87842 3.87817 1.30078 7.04602 1.30078C10.214 1.30078 12.7913 3.87793 12.7913 7.0459C12.7913 10.2139 10.214 12.7915 7.04602 12.7915Z" fill="#FFFFFF" fill-opacity="1.000000" fill-rule="nonzero"/>
		<path id="Vector" d="M15.8094 14.8896L12.0804 11.1606C11.8264 10.9067 11.4149 10.9067 11.1608 11.1606C10.9067 11.4146 10.9067 11.8267 11.1608 12.0806L14.8898 15.8096C15.0168 15.9365 15.1831 16 15.3496 16C15.5159 16 15.6824 15.9365 15.8094 15.8096C16.0636 15.5557 16.0636 15.1436 15.8094 14.8896Z" fill="#FFFFFF" fill-opacity="1.000000" fill-rule="nonzero"/>
	</g>
</svg>
