<svg width="14.000000" height="14.000000" viewBox="0 0 14 14" fill="none" xmlns="http://www.w3.org/2000/svg" xmlns:xlink="http://www.w3.org/1999/xlink">
	<desc>
			Created with Pixso.
	</desc>
	<defs>
		<clipPath id="clip1987_25751">
			<rect id="share 1" width="14.000000" height="14.000000" fill="white" fill-opacity="0"/>
		</clipPath>
	</defs>
	<rect id="share 1" width="14.000000" height="14.000000" fill="#FFFFFF" fill-opacity="0"/>
	<g clip-path="url(#clip1987_25751)">
		<path id="Vector" d="M11.1016 9.07812C10.291 9.07812 9.57129 9.47192 9.12256 10.0781L5.25977 8.104C5.32422 7.88385 5.35938 7.651 5.35938 7.41016C5.35938 7.08392 5.29541 6.7724 5.17969 6.48724L9.22803 4.05475C9.67969 4.58496 10.3521 4.92188 11.1016 4.92188C12.4585 4.92188 13.5625 3.81787 13.5625 2.46094C13.5625 1.104 12.4585 0 11.1016 0C9.74463 0 8.64062 1.104 8.64062 2.46094C8.64062 2.7746 8.69971 3.07458 8.80713 3.35071L4.74854 5.78925C4.29736 5.27466 3.63525 4.94922 2.89844 4.94922C1.5415 4.94922 0.4375 6.05322 0.4375 7.41016C0.4375 8.76709 1.5415 9.87109 2.89844 9.87109C3.72217 9.87109 4.45264 9.46436 4.89941 8.84119L8.75098 10.8095C8.6792 11.0401 8.64062 11.2852 8.64062 11.5391C8.64062 12.896 9.74463 14 11.1016 14C12.4585 14 13.5625 12.896 13.5625 11.5391C13.5625 10.1821 12.4585 9.07812 11.1016 9.07812ZM11.1016 0.820312C12.0063 0.820312 12.7422 1.55627 12.7422 2.46094C12.7422 3.3656 12.0063 4.10156 11.1016 4.10156C10.1968 4.10156 9.46094 3.3656 9.46094 2.46094C9.46094 1.55627 10.1968 0.820312 11.1016 0.820312ZM2.89844 9.05078C1.99365 9.05078 1.25781 8.31482 1.25781 7.41016C1.25781 6.50549 1.99365 5.76953 2.89844 5.76953C3.80322 5.76953 4.53906 6.50549 4.53906 7.41016C4.53906 8.31482 3.80322 9.05078 2.89844 9.05078ZM11.1016 13.1797C10.1968 13.1797 9.46094 12.4437 9.46094 11.5391C9.46094 10.6344 10.1968 9.89844 11.1016 9.89844C12.0063 9.89844 12.7422 10.6344 12.7422 11.5391C12.7422 12.4437 12.0063 13.1797 11.1016 13.1797Z" fill="#696969" fill-opacity="1.000000" fill-rule="nonzero"/>
	</g>
</svg>
