<svg width="15.000000" height="15.000000" viewBox="0 0 15 15" fill="none" xmlns="http://www.w3.org/2000/svg" xmlns:xlink="http://www.w3.org/1999/xlink">
	<desc>
			Created with Pixso.
	</desc>
	<defs>
		<clipPath id="clip1987_22304">
			<rect id="resize 1" width="15.000000" height="15.000000" fill="white" fill-opacity="0"/>
		</clipPath>
	</defs>
	<rect id="resize 1" width="15.000000" height="15.000000" fill="#FFFFFF" fill-opacity="0"/>
	<g clip-path="url(#clip1987_22304)">
		<path id="Vector" d="M14.4141 0L10.0843 0C9.76071 0 9.49838 0.262207 9.49838 0.585938C9.49838 0.909668 9.76071 1.17188 10.0843 1.17188L12.9995 1.17188L8.30255 5.86865C8.0737 6.09766 8.0737 6.46875 8.30255 6.69727C8.53137 6.92627 8.90234 6.92627 9.1312 6.69727L13.8281 2.00049L13.8281 4.91553C13.8281 5.23926 14.0905 5.50146 14.4141 5.50146C14.7377 5.50146 15 5.23926 15 4.91553L15 0.585938C15 0.26709 14.7408 0 14.4141 0Z" fill="#696969" fill-opacity="1.000000" fill-rule="nonzero"/>
		<path id="Vector" d="M6.69745 8.30225C6.4686 8.07373 6.09763 8.07373 5.8688 8.30225L1.17188 12.9995L1.17188 10.0845C1.17188 9.76074 0.909546 9.49854 0.585938 9.49854C0.262329 9.49854 0 9.76074 0 10.0845L0 14.4141C0 14.7324 0.259369 15 0.585938 15L4.91565 15C5.23929 15 5.50159 14.7378 5.50159 14.4141C5.50159 14.0903 5.23929 13.8281 4.91565 13.8281L2.00052 13.8281L6.69745 9.13135C6.92627 8.90234 6.92627 8.53125 6.69745 8.30225Z" fill="#696969" fill-opacity="1.000000" fill-rule="nonzero"/>
	</g>
</svg>
