<svg width="45.099731" height="50.000000" viewBox="0 0 45.0997 50" fill="none" xmlns="http://www.w3.org/2000/svg" xmlns:xlink="http://www.w3.org/1999/xlink">
	<desc>
			Created with Pixso.
	</desc>
	<defs/>
	<path id="Vector" d="M40.7876 50C39.7589 50 38.7512 49.623 37.9401 48.897L33.0719 44.6128C32.2624 43.9009 32.1837 42.667 32.896 41.8574C33.6083 41.0479 34.8421 40.9692 35.6515 41.6816L40.527 45.9717C40.5325 45.9766 40.5379 45.9814 40.5433 45.9863C40.59 46.0283 40.7317 46.1558 40.9633 46.0527C41.195 45.9497 41.195 45.7588 41.195 45.6963L41.195 11.7144C41.195 7.4082 37.6917 3.90479 33.3855 3.90479L11.7142 3.90479C7.40808 3.90479 3.90475 7.4082 3.90475 11.7144L3.90475 33.3857C3.90475 37.6919 7.40808 41.1948 11.7142 41.1948L26.7475 41.1948C29.3379 41.2979 29.3359 44.9976 26.7475 45.0996L11.7142 45.0996C5.255 45.0996 0 39.8447 0 33.3857L0 11.7144C0 5.25488 5.255 0 11.7142 0L33.3855 0C39.8447 0 45.0997 5.25488 45.0997 11.7144L45.0997 45.6963C45.0997 47.4165 44.1235 48.9199 42.5519 49.6201C41.9791 49.875 41.3798 50 40.7876 50ZM31.7979 25.7837C30.8882 25.2046 29.6815 25.4727 29.1026 26.3828C25.5554 31.478 19.4106 31.2866 15.8995 26.3828C15.3206 25.4731 14.114 25.2046 13.2043 25.7837C12.2946 26.3628 12.0264 27.5693 12.6053 28.479C12.7505 28.707 16.3314 34.0688 22.5498 34.0688C28.7682 34.0688 32.2516 28.707 32.3969 28.479C32.9757 27.5693 32.7076 26.3628 31.7979 25.7837ZM30.164 20.6953C29.0857 20.6953 28.2116 19.8208 28.2116 18.7427L28.2116 13.3735C28.3147 10.7832 32.0142 10.7852 32.1164 13.3735L32.1164 18.7427C32.1164 19.8208 31.2423 20.6953 30.164 20.6953ZM16.9855 18.7427L16.9855 13.3735C16.8824 10.7832 13.183 10.7852 13.0808 13.3735L13.0808 18.7427C13.0808 19.8208 13.9549 20.6953 15.0331 20.6953C16.1115 20.6953 16.9855 19.8208 16.9855 18.7427Z" fill="#0061DF" fill-opacity="1.000000" fill-rule="nonzero"/>
</svg>
