<svg width="16.000000" height="16.000000" viewBox="0 0 16 16" fill="none" xmlns="http://www.w3.org/2000/svg" xmlns:xlink="http://www.w3.org/1999/xlink">
	<desc>
			Created with Pixso.
	</desc>
	<defs>
		<clipPath id="clip1987_25927">
			<rect id="swimmer" width="16.000000" height="16.000000" fill="white" fill-opacity="0"/>
		</clipPath>
	</defs>
	<rect id="swimmer" width="16.000000" height="16.000000" fill="#FFFFFF" fill-opacity="0"/>
	<g clip-path="url(#clip1987_25927)">
		<path id="Vector" d="M0.59668 11.4324C6.67725 9.70392 8.89941 13.1969 15.6489 11.4351C15.8994 11.3698 16.0493 11.1136 15.9844 10.8632C15.9189 10.6127 15.6626 10.4626 15.4121 10.528C14.0869 10.8739 12.9385 11.002 11.8984 11.0033L10.5396 8.81299C11.3428 9.81116 12.8359 9.86871 13.7104 8.93854C14.0952 8.5296 14.2974 7.9953 14.2803 7.4342C14.2227 5.55316 11.918 4.70911 10.6484 6.05878C10.0371 6.70892 9.92627 7.63342 10.2705 8.37933L8.41113 5.38232L11.1704 4.58606C12.0273 4.33881 12.4321 3.35785 11.9971 2.57764C11.6807 2.01111 11.0244 1.74109 10.4014 1.92096L6.22363 3.12646C5.14062 3.43909 4.65576 4.69818 5.25049 5.6568L6.51318 7.69189C5.60254 8.2569 2.71582 10.0472 2.68506 10.0684C1.96045 10.145 1.18457 10.2906 0.340332 10.5306C0.0913086 10.6014 -0.0532227 10.8607 0.0175781 11.1097C0.0883789 11.3588 0.347656 11.5032 0.59668 11.4324ZM11.3315 6.70105C11.7729 6.23187 12.5093 6.21063 12.9771 6.65057C13.4458 7.09137 13.4683 7.82745 13.0278 8.29626C12.5869 8.76489 11.8506 8.7876 11.3818 8.34674C10.9131 7.90594 10.8906 7.1698 11.3315 6.70105ZM7.55664 7.59601L6.04688 5.1626C5.78027 4.73285 5.99756 4.1676 6.48389 4.02728L10.6611 2.82172C10.8633 2.76337 11.0757 2.85095 11.1782 3.03448C11.3198 3.28784 11.1875 3.60535 10.9106 3.6853L7.55615 4.65326C7.25781 4.73938 7.12451 5.08722 7.28809 5.35071L10.7656 10.9558C8.57861 10.7722 6.80176 10.1125 4.55127 10.0124L7.40576 8.24139C7.62549 8.10492 7.69336 7.81598 7.55664 7.59601Z" fill="#696969" fill-opacity="1.000000" fill-rule="nonzero"/>
		<path id="Vector" d="M15.4121 12.7153C8.95459 14.4011 6.68848 10.9133 0.340332 12.718C0.0913086 12.7888 -0.0532227 13.048 0.0175781 13.2971C0.0883789 13.5461 0.347656 13.6906 0.59668 13.6198C6.67725 11.8913 8.89941 15.3843 15.6489 13.6224C15.8994 13.5571 16.0498 13.301 15.9844 13.0505C15.9189 12.8 15.6626 12.65 15.4121 12.7153Z" fill="#696969" fill-opacity="1.000000" fill-rule="nonzero"/>
	</g>
</svg>
