<svg width="60.000000" height="60.000000" viewBox="0 0 60 60" fill="none" xmlns="http://www.w3.org/2000/svg" xmlns:xlink="http://www.w3.org/1999/xlink">
	<desc>
			Created with Pixso.
	</desc>
	<defs>
		<clipPath id="clip1987_22656">
			<rect id="villa" width="60.000000" height="60.000000" fill="white" fill-opacity="0"/>
		</clipPath>
	</defs>
	<rect id="villa" width="60.000000" height="60.000000" fill="#FFFFFF" fill-opacity="0"/>
	<g clip-path="url(#clip1987_22656)">
		<path id="Vector" d="M7.5 27.1875L15 27.1875C15.5175 27.1875 15.9375 26.7686 15.9375 26.25L15.9375 20.625C15.9375 20.1064 15.5175 19.6875 15 19.6875L7.5 19.6875C6.98254 19.6875 6.5625 20.1064 6.5625 20.625L6.5625 26.25C6.5625 26.7686 6.98254 27.1875 7.5 27.1875ZM14.0625 25.3125L12.1875 25.3125L12.1875 21.5625L14.0625 21.5625L14.0625 25.3125ZM8.4375 21.5625L10.3125 21.5625L10.3125 25.3125L8.4375 25.3125L8.4375 21.5625Z" fill="#FFFFFF" fill-opacity="1.000000" fill-rule="nonzero"/>
		<path id="Vector" d="M18.75 27.1875L26.25 27.1875C26.7675 27.1875 27.1875 26.7686 27.1875 26.25L27.1875 20.625C27.1875 20.1064 26.7675 19.6875 26.25 19.6875L18.75 19.6875C18.2325 19.6875 17.8125 20.1064 17.8125 20.625L17.8125 26.25C17.8125 26.7686 18.2325 27.1875 18.75 27.1875ZM25.3125 25.3125L23.4375 25.3125L23.4375 21.5625L25.3125 21.5625L25.3125 25.3125ZM19.6875 21.5625L21.5625 21.5625L21.5625 25.3125L19.6875 25.3125L19.6875 21.5625Z" fill="#FFFFFF" fill-opacity="1.000000" fill-rule="nonzero"/>
		<path id="Vector" d="M58.394 30.0396L30.9375 21.8027L30.9375 20.625L37.5 20.625C39.5681 20.625 41.25 18.9434 41.25 16.875C41.25 15.1304 40.0519 13.6597 38.4357 13.2432C38.4375 13.2041 38.4375 13.1646 38.4375 13.125C38.4375 10.5405 36.3347 8.4375 33.75 8.4375C31.8572 8.4375 30.1791 9.57666 29.4525 11.2812C28.9537 11.3394 28.4747 11.4844 28.0219 11.6963L17.5378 1.2124C17.1713 0.845703 16.5787 0.845703 16.2122 1.2124L3.08716 14.3374C2.91089 14.5127 2.8125 14.751 2.8125 15L2.8125 53.4375L1.875 53.4375C1.35754 53.4375 0.9375 53.8569 0.9375 54.375L0.9375 58.125C0.9375 58.6436 1.35754 59.0625 1.875 59.0625L58.125 59.0625C58.6425 59.0625 59.0625 58.6436 59.0625 58.125L59.0625 54.375C59.0625 53.8569 58.6425 53.4375 58.125 53.4375L57.1875 53.4375L57.1875 36.3228L57.856 36.5234C57.9441 36.5498 58.035 36.5625 58.125 36.5625C58.3237 36.5625 58.5206 36.5 58.6847 36.3779C58.9229 36.1997 59.0625 35.9214 59.0625 35.625L59.0625 30.9375C59.0625 30.5244 58.7906 30.1587 58.394 30.0396ZM29.0625 15.9375L29.0625 29.0625L4.6875 29.0625L4.6875 15.9375L29.0625 15.9375ZM29.0625 34.6875L27.1875 34.6875L27.1875 30.9375L29.0625 30.9375L29.0625 34.6875ZM10.3125 30.9375L10.3125 34.6875L8.4375 34.6875L8.4375 30.9375L10.3125 30.9375ZM12.1875 30.9375L14.0625 30.9375L14.0625 34.6875L12.1875 34.6875L12.1875 30.9375ZM15.9375 30.9375L17.8125 30.9375L17.8125 34.6875L15.9375 34.6875L15.9375 30.9375ZM19.6875 30.9375L21.5625 30.9375L21.5625 34.6875L19.6875 34.6875L19.6875 30.9375ZM23.4375 30.9375L25.3125 30.9375L25.3125 34.6875L23.4375 34.6875L23.4375 30.9375ZM6.5625 30.9375L6.5625 34.6875L4.6875 34.6875L4.6875 30.9375L6.5625 30.9375ZM29.0625 36.5625L29.0625 38.4375L4.6875 38.4375L4.6875 36.5625L29.0625 36.5625ZM29.9391 13.1226C29.97 13.127 30.0581 13.1367 30.0891 13.1372C30.5428 13.1807 30.9272 12.8618 31.0369 12.4326C31.3556 11.1846 32.4712 10.3125 33.75 10.3125C35.3007 10.3125 36.5625 11.5747 36.5625 13.125C36.5625 13.3369 36.5288 13.563 36.4565 13.8379C36.3806 14.1255 36.4453 14.4321 36.6318 14.6636C36.8175 14.895 37.1082 15.0376 37.3997 15.0132C37.4541 15.0117 37.5056 15.0049 37.5 15C38.5341 15 39.375 15.8413 39.375 16.875C39.375 17.9092 38.5341 18.75 37.5 18.75L30.9375 18.75L30.9375 15C30.9375 14.751 30.8391 14.5127 30.6628 14.3374L29.4946 13.1694C29.6438 13.1411 29.7928 13.1235 29.9391 13.1226ZM16.875 3.20068L27.7368 14.0625L6.01318 14.0625L16.875 3.20068ZM4.6875 40.3125L29.0625 40.3125L29.0625 53.4375L23.4375 53.4375L23.4375 45C23.4375 44.4819 23.0175 44.0625 22.5 44.0625L11.25 44.0625C10.7325 44.0625 10.3125 44.4819 10.3125 45L10.3125 53.4375L4.6875 53.4375L4.6875 40.3125ZM12.1875 53.4375L12.1875 45.9375L15.9375 45.9375L15.9375 53.4375L12.1875 53.4375ZM17.8125 45.9375L21.5625 45.9375L21.5625 53.4375L17.8125 53.4375L17.8125 45.9375ZM57.1875 57.1875L2.8125 57.1875L2.8125 55.3125L57.1875 55.3125L57.1875 57.1875ZM51.5625 42.1875L34.6875 42.1875L34.6875 40.3125L51.5625 40.3125L51.5625 42.1875ZM34.6875 44.0625L51.5625 44.0625L51.5625 45.9375L34.6875 45.9375L34.6875 44.0625ZM34.6875 47.8125L51.5625 47.8125L51.5625 53.4375L34.6875 53.4375L34.6875 47.8125ZM55.3125 53.4375L53.4375 53.4375L53.4375 39.375C53.4375 38.8569 53.0175 38.4375 52.5 38.4375L33.75 38.4375C33.2325 38.4375 32.8125 38.8569 32.8125 39.375L32.8125 53.4375L30.9375 53.4375L30.9375 28.4478L55.3125 35.7603L55.3125 53.4375ZM57.1875 34.3652L30.9375 26.4902L30.9375 23.7603L57.1875 31.6353L57.1875 34.3652Z" fill="#FFFFFF" fill-opacity="1.000000" fill-rule="nonzero"/>
		<path id="Vector" d="M46.875 13.125L54.375 13.125C56.9597 13.125 59.0625 11.022 59.0625 8.4375C59.0625 6.0376 57.2504 4.05371 54.9225 3.78174C54.1959 2.07666 52.5178 0.9375 50.625 0.9375C48.0403 0.9375 45.9375 3.04053 45.9375 5.625C45.9375 5.66455 45.9375 5.70361 45.9393 5.74316C44.3231 6.15918 43.125 7.63037 43.125 9.375C43.125 11.4434 44.8069 13.125 46.875 13.125ZM46.8169 7.49707C46.8488 7.50195 46.9425 7.51221 46.9744 7.51318C47.2725 7.53662 47.5565 7.396 47.7422 7.16357C47.9287 6.93164 47.9934 6.62549 47.9175 6.3374C47.8462 6.06299 47.8125 5.83691 47.8125 5.625C47.8125 4.07422 49.0743 2.8125 50.625 2.8125C51.9038 2.8125 53.0194 3.68457 53.3381 4.93213C53.4478 5.36133 53.8462 5.65967 54.2859 5.63721C54.3365 5.63525 54.3862 5.62988 54.375 5.625C55.9257 5.625 57.1875 6.88672 57.1875 8.4375C57.1875 9.98828 55.9257 11.25 54.375 11.25L46.875 11.25C45.8409 11.25 45 10.4092 45 9.375C45 8.34082 45.8409 7.5 46.8169 7.49707Z" fill="#FFFFFF" fill-opacity="1.000000" fill-rule="nonzero"/>
	</g>
</svg>
