<svg width="16.000000" height="16.000000" viewBox="0 0 16 16" fill="none" xmlns="http://www.w3.org/2000/svg" xmlns:xlink="http://www.w3.org/1999/xlink">
	<desc>
			Created with Pixso.
	</desc>
	<defs>
		<clipPath id="clip1987_25959">
			<rect id="wifi" width="16.000000" height="16.000000" fill="white" fill-opacity="0"/>
		</clipPath>
	</defs>
	<rect id="wifi" width="16.000000" height="16.000000" fill="#FFFFFF" fill-opacity="0"/>
	<g clip-path="url(#clip1987_25959)">
		<path id="Vector" d="M7.99707 11.3218C7.23242 11.3218 6.61035 11.9419 6.61035 12.7037C6.61035 13.4658 7.23242 14.0861 7.99707 14.0861C8.76221 14.0861 9.38428 13.4658 9.38428 12.7037C9.38428 11.9419 8.76221 11.3218 7.99707 11.3218Z" fill="#696969" fill-opacity="1.000000" fill-rule="nonzero"/>
		<path id="Vector" d="M11.3804 9.43915C10.4775 8.53674 9.27588 8.03955 7.99658 8.03955C6.72266 8.03955 5.52393 8.53345 4.62158 9.43018C4.25684 9.79297 4.25635 10.384 4.62012 10.7475C4.79688 10.9244 5.03174 11.0215 5.28223 11.0215C5.53125 11.0215 5.76562 10.9249 5.94238 10.7495C6.4917 10.2036 7.22119 9.90289 7.99658 9.90289C8.77539 9.90289 9.50684 10.2055 10.0566 10.7547C10.2334 10.9311 10.4683 11.0285 10.7183 11.0285C10.9678 11.0285 11.2021 10.9318 11.3784 10.7564C11.7437 10.3936 11.7441 9.8028 11.3804 9.43915Z" fill="#696969" fill-opacity="1.000000" fill-rule="nonzero"/>
		<path id="Vector" d="M15.7271 5.10669C13.6626 3.04749 10.917 1.91382 7.99658 1.91382C5.08008 1.91382 2.3374 3.04486 0.273438 5.09912C-0.0908203 5.46191 -0.0913086 6.05298 0.272949 6.41644C0.449707 6.59247 0.68457 6.68927 0.934082 6.68927C1.18408 6.68927 1.41846 6.59283 1.59521 6.41693C3.30566 4.71436 5.5791 3.77649 7.99658 3.77649C10.4175 3.77649 12.6934 4.71625 14.4043 6.42334C14.5806 6.59955 14.8159 6.69672 15.0654 6.69672C15.3154 6.69672 15.5498 6.59979 15.7261 6.42413C16.0908 6.06104 16.0913 5.46973 15.7271 5.10669Z" fill="#696969" fill-opacity="1.000000" fill-rule="nonzero"/>
		<path id="Vector" d="M13.4995 7.32715C12.0298 5.86121 10.0762 5.05396 7.99756 5.05396C5.92236 5.05396 3.97168 5.8587 2.50342 7.31946C2.32666 7.49524 2.22949 7.72906 2.229 7.97803C2.229 8.22675 2.32568 8.46088 2.50244 8.6369C2.6792 8.81305 2.91406 8.91022 3.16406 8.91022C3.41309 8.91022 3.64795 8.81329 3.82471 8.63788C4.93994 7.52832 6.42188 6.91705 7.99756 6.91705C9.57617 6.91705 11.0601 7.53046 12.1763 8.64386C12.353 8.82025 12.5879 8.91742 12.8379 8.91742C13.0874 8.91742 13.3223 8.8205 13.4985 8.64484C13.6748 8.46906 13.7725 8.23523 13.7725 7.98627C13.7729 7.7373 13.6758 7.50342 13.4995 7.32715Z" fill="#696969" fill-opacity="1.000000" fill-rule="nonzero"/>
	</g>
</svg>
